<?xml version="1.0" encoding="UTF-8" standalone="no"?>
<svg
   xmlns:dc="http://purl.org/dc/elements/1.1/"
   xmlns:cc="http://creativecommons.org/ns#"
   xmlns:rdf="http://www.w3.org/1999/02/22-rdf-syntax-ns#"
   xmlns:svg="http://www.w3.org/2000/svg"
   xmlns="http://www.w3.org/2000/svg"
   xmlns:sodipodi="http://sodipodi.sourceforge.net/DTD/sodipodi-0.dtd"
   xmlns:inkscape="http://www.inkscape.org/namespaces/inkscape"
   width="32"
   height="48"
   viewBox="0 0 32 48"
   version="1.1"
   id="svg2"
   inkscape:version="0.91 r"
   sodipodi:docname="arrow_down_sheet.svg">
  <metadata
     id="metadata15">
    <rdf:RDF>
      <cc:Work
         rdf:about="">
        <dc:format>image/svg+xml</dc:format>
        <dc:type
           rdf:resource="http://purl.org/dc/dcmitype/StillImage" />
        <dc:title>Rectangle 209 Copy 3</dc:title>
      </cc:Work>
    </rdf:RDF>
  </metadata>
  <sodipodi:namedview
     pagecolor="#ffffff"
     bordercolor="#666666"
     borderopacity="1"
     objecttolerance="10"
     gridtolerance="10"
     guidetolerance="10"
     inkscape:pageopacity="0"
     inkscape:pageshadow="2"
     inkscape:window-width="1600"
     inkscape:window-height="841"
     id="namedview13"
     showgrid="false"
     fit-margin-top="0"
     fit-margin-left="0"
     fit-margin-right="0"
     fit-margin-bottom="0"
     inkscape:zoom="11.313709"
     inkscape:cx="-15.493978"
     inkscape:cy="22.359613"
     inkscape:window-x="0"
     inkscape:window-y="30"
     inkscape:window-maximized="1"
     inkscape:current-layer="svg2" />
  <!-- Generator: Sketch 3.7 (28169) - http://www.bohemiancoding.com/sketch -->
  <title
     id="title4">Rectangle 209 Copy 3</title>
  <desc
     id="desc6">Created with Sketch.</desc>
  <defs
     id="defs8" />
  <g
     id="Symbols"
     transform="matrix(0.98009019,0,0,0.93682924,5.7004742e-5,31.999998)"
     style="fill:#dcdcdc;fill-rule:evenodd;stroke:none;stroke-width:1;fill-opacity:1">
    <g
       id="Arrows_PD_page"
       transform="translate(-2,-424)"
       style="fill:#dcdcdc;fill-opacity:1">
      <path
         d="m 9.8112731,432.53945 c -0.073693,-0.31371 0.012067,-0.65713 0.2631949,-0.90826 l 15.130163,-15.13016 c 0.380113,-0.38012 0.992613,-0.3839 1.373954,-0.003 0.378701,0.3787 0.385103,0.98629 -0.0026,1.37395 l -14.667022,14.66703 14.667022,14.66702 c 0.387661,0.38766 0.381259,0.99525 0.0026,1.37395 -0.381341,0.38134 -0.993841,0.37756 -1.373954,-0.003 L 10.074468,433.4477 c -0.2511284,-0.25113 -0.3368878,-0.59455 -0.2631949,-0.90825 z"
         id="Rectangle-209-Copy-3"
         transform="matrix(0,-1,1,0,-414.2142,450.86469)"
         inkscape:connector-curvature="0"
         style="fill:#dcdcdc;fill-opacity:1" />
    </g>
  </g>
  <g
     id="Symbols-3"
     transform="matrix(0.98009019,0,0,0.93682924,5.7004742e-5,15.999998)"
     style="fill:none;fill-rule:evenodd;stroke:none;stroke-width:1">
    <g
       id="Arrows_PD_page-6"
       transform="translate(-2,-424)"
       style="fill:#3c476e">
      <path
         d="m 9.8112731,432.53945 c -0.073693,-0.31371 0.012067,-0.65713 0.2631949,-0.90826 l 15.130163,-15.13016 c 0.380113,-0.38012 0.992613,-0.3839 1.373954,-0.003 0.378701,0.3787 0.385103,0.98629 -0.0026,1.37395 l -14.667022,14.66703 14.667022,14.66702 c 0.387661,0.38766 0.381259,0.99525 0.0026,1.37395 -0.381341,0.38134 -0.993841,0.37756 -1.373954,-0.003 L 10.074468,433.4477 c -0.2511284,-0.25113 -0.3368878,-0.59455 -0.2631949,-0.90825 z"
         id="Rectangle-209-Copy-3-9"
         transform="matrix(0,-1,1,0,-414.2142,450.86469)"
         inkscape:connector-curvature="0"
         style="fill:#0ba2e8;fill-opacity:1" />
    </g>
  </g>
  <g
     id="Symbols-5"
     transform="matrix(0.98009019,0,0,0.93682924,5.7004742e-5,-1.606282e-6)"
     style="fill:none;fill-rule:evenodd;stroke:none;stroke-width:1">
    <g
       id="Arrows_PD_page-7"
       transform="translate(-2,-424)"
       style="fill:#3c476e">
      <path
         d="m 9.8112731,432.53945 c -0.073693,-0.31371 0.012067,-0.65713 0.2631949,-0.90826 l 15.130163,-15.13016 c 0.380113,-0.38012 0.992613,-0.3839 1.373954,-0.003 0.378701,0.3787 0.385103,0.98629 -0.0026,1.37395 l -14.667022,14.66703 14.667022,14.66702 c 0.387661,0.38766 0.381259,0.99525 0.0026,1.37395 -0.381341,0.38134 -0.993841,0.37756 -1.373954,-0.003 L 10.074468,433.4477 c -0.2511284,-0.25113 -0.3368878,-0.59455 -0.2631949,-0.90825 z"
         id="Rectangle-209-Copy-3-2"
         transform="matrix(0,-1,1,0,-414.2142,450.86469)"
         inkscape:connector-curvature="0" />
    </g>
  </g>
</svg>
