<?xml version="1.0" encoding="UTF-8" standalone="no"?>
<svg
   xmlns:dc="http://purl.org/dc/elements/1.1/"
   xmlns:cc="http://creativecommons.org/ns#"
   xmlns:rdf="http://www.w3.org/1999/02/22-rdf-syntax-ns#"
   xmlns:svg="http://www.w3.org/2000/svg"
   xmlns="http://www.w3.org/2000/svg"
   xmlns:sodipodi="http://sodipodi.sourceforge.net/DTD/sodipodi-0.dtd"
   xmlns:inkscape="http://www.inkscape.org/namespaces/inkscape"
   width="16"
   height="13"
   viewBox="0 0 16 13"
   version="1.1"
   id="svg4644"
   inkscape:version="0.91 r"
   sodipodi:docname="product_added.svg">
  <metadata
     id="metadata4657">
    <rdf:RDF>
      <cc:Work
         rdf:about="">
        <dc:format>image/svg+xml</dc:format>
        <dc:type
           rdf:resource="http://purl.org/dc/dcmitype/StillImage" />
        <dc:title>added</dc:title>
      </cc:Work>
    </rdf:RDF>
  </metadata>
  <sodipodi:namedview
     pagecolor="#ffffff"
     bordercolor="#666666"
     borderopacity="1"
     objecttolerance="10"
     gridtolerance="10"
     guidetolerance="10"
     inkscape:pageopacity="0"
     inkscape:pageshadow="2"
     inkscape:window-width="1600"
     inkscape:window-height="841"
     id="namedview4655"
     showgrid="false"
     fit-margin-top="0"
     fit-margin-left="0"
     fit-margin-right="0"
     fit-margin-bottom="0"
     inkscape:zoom="16.857143"
     inkscape:cx="9"
     inkscape:cy="7"
     inkscape:window-x="0"
     inkscape:window-y="30"
     inkscape:window-maximized="1"
     inkscape:current-layer="svg4644" />
  <!-- Generator: Sketch 3.7 (28169) - http://www.bohemiancoding.com/sketch -->
  <title
     id="title4646">added</title>
  <desc
     id="desc4648">Created with Sketch.</desc>
  <defs
     id="defs4650" />
  <g
     id="Symbols"
     transform="matrix(0.94152286,0,0,0.99726725,-0.47345778,-0.50206312)"
     style="fill:none;fill-rule:evenodd;stroke:none;stroke-width:1">
    <g
       id="added_product"
       transform="translate(1,1)"
       style="stroke:#25c5df">
      <path
         style="color:#000000;font-style:normal;font-variant:normal;font-weight:normal;font-stretch:normal;font-size:medium;line-height:normal;font-family:sans-serif;text-indent:0;text-align:start;text-decoration:none;text-decoration-line:none;text-decoration-style:solid;text-decoration-color:#000000;letter-spacing:normal;word-spacing:normal;text-transform:none;direction:ltr;block-progression:tb;writing-mode:lr-tb;baseline-shift:baseline;text-anchor:start;white-space:normal;clip-rule:nonzero;display:inline;overflow:visible;visibility:visible;opacity:1;isolation:auto;mix-blend-mode:normal;color-interpolation:sRGB;color-interpolation-filters:linearRGB;solid-color:#000000;solid-opacity:1;fill:#000000;fill-opacity:1;fill-rule:nonzero;stroke:none;stroke-width:1;stroke-linecap:butt;stroke-linejoin:miter;stroke-miterlimit:4;stroke-dasharray:none;stroke-dashoffset:0;stroke-opacity:1;color-rendering:auto;image-rendering:auto;shape-rendering:auto;text-rendering:auto;enable-background:accumulate"
         d="M 16.21875,-0.33398438 C 15.900964,-0.58880341 15.417441,-0.53936583 15.160156,-0.21875 L 8,8.6464844 7.99609,8.6503944 c -0.011411,0.014672 -0.021778,0.03179 -0.033203,0.048828 L 6.1640625,10.945312 0.75976562,6.03125 c -0.30367352,-0.2757953 -0.78577298,-0.2526302 -1.0625,0.050781 l -0.001953,0 c -0.27597519,0.3037713 -0.25228849,0.7882436 0.0527344,1.0644532 l 5.55273428,5.0507818 0.00195,0 c 0.241769,0.21738 0.5576041,0.341797 0.8828125,0.341796 0.03171,0 0.064955,-10e-4 0.1015625,-0.0039 0.3603608,-0.02764 0.696001,-0.208364 0.9238281,-0.488281 l 0.00195,-0.002 1.96875,-2.4570316 0.00586,-0.00977 c 0.00218,-0.00298 0.00373,-0.00677 0.00586,-0.00977 l 0.00195,-0.00195 7.1367186,-8.8398437 c 0.258005,-0.31952817 0.206536,-0.80094652 -0.111328,-1.05859375 l -0.246094,0.3046875 0.244141,-0.30664063 z M 6.3085938,11.076172 c 9.516e-4,7.84e-4 0.00303,0.0012 0.00391,0.002 l 0,0.002 -0.00391,-0.0039 z"
         id="added"
         inkscape:connector-curvature="0" />
    </g>
  </g>
</svg>
