<?xml version="1.0" encoding="utf-8"?>
<!-- Generator: Adobe Illustrator 18.0.0, SVG Export Plug-In . SVG Version: 6.00 Build 0)  -->
<!DOCTYPE svg PUBLIC "-//W3C//DTD SVG 1.1//EN" "http://www.w3.org/Graphics/SVG/1.1/DTD/svg11.dtd">
<svg version="1.1" id="Слой_1" xmlns="http://www.w3.org/2000/svg" xmlns:xlink="http://www.w3.org/1999/xlink" x="0px" y="0px"
	 width="30px" height="33.3px" viewBox="0 0 30 33.3" enable-background="new 0 0 30 33.3" xml:space="preserve">
<g transform="translate(0.000000,500.000000) scale(0.100000,-0.100000)">
	<path fill="#a94442" d="M144.6,4994.9c-11.5-5.9-41.3-18.2-55.9-22.9c-18.4-5.9-32.4-9-62.4-13.6c-10.4-1.6-19.4-3-20.1-3.3
		c-1.7-0.5-1.7-2.8-0.2-35.5c1.4-30.8,3.5-55.9,5.4-65.3c5.5-26.6,15.2-55.4,24.6-73.3c11.3-21.6,28.9-45.7,45.1-62
		c8.1-8.1,32.3-28.3,40.6-33.9c5.5-3.7,19.7-11.6,23.9-13.3l4.1-1.6l4.6,1.9c23.6,9.6,62.5,41.5,82.7,67.8
		c25,32.5,38.4,60.5,48.1,100.3c5.8,23.7,7,36.5,9.6,102l0.5,12.5l-1.7,0.4c-4.2,0.9-13.6,2.6-17,3c-12,1.5-32.3,5.2-43.5,8
		c-23.3,5.7-45.6,13.9-74.6,27.5c-3.9,1.8-7.8,3.3-8.7,3.3C149,4996.8,146.7,4995.9,144.6,4994.9z M175.5,4946.8
		c20.3-8.1,48.9-16.1,73.6-20.6l8.6-1.6l-0.1-7.5c-0.2-14.8-2.4-43.4-4.1-55.1c-2.9-18.9-11.2-43.5-21.8-64.7
		c-3.6-7.2-12.8-21.6-19.8-31c-11.9-16.1-42.5-44.5-56.9-52.8l-5-2.9l-4.4,2.6c-7.1,4.1-28.2,21.5-38.5,31.7
		c-27.6,27.4-46.9,62.3-57.6,104.3c-2.8,11-3.5,15.8-4.8,32.8c-1.2,16.5-2.5,41.9-2.2,42.4c0.1,0.1,4.3,1,9.2,1.9
		c33.7,6.4,63.1,15.5,92.2,28.5l6.4,2.8l7.4-3.3C161.6,4952.5,169.7,4949.2,175.5,4946.8z"/>
	<g>
		<path fill="#a94442" d="M169.5,4914.5l-5.8-107.1h-27.4l-5.8,107.1H169.5z"/>
		<circle fill="#a94442" cx="150.1" cy="4771.9" r="19.4"/>
	</g>
</g>
</svg>
