<?xml version="1.0" encoding="utf-8"?>
<!DOCTYPE svg PUBLIC "-//W3C//DTD SVG 1.1//EN" "http://www.w3.org/Graphics/SVG/1.1/DTD/svg11.dtd">
<svg version="1.1" xmlns="http://www.w3.org/2000/svg" xmlns:xlink="http://www.w3.org/1999/xlink" x="0px" y="0px"
	 width="20px" height="20px" viewBox="740 840 20 20" enable-background="new 740 840 20 20" xml:space="preserve">
<g transform="translate(0.000000,1600.000000) scale(0.100000,-0.100000)">
	<path d="M7482,7574.6c-0.6-0.1-1.8-0.4-2.7-0.7c-6.3-2.1-10.9-7.1-12.6-13.8l-0.4-1.6v-34.8V7489l0.4-1.6c1-3.9,2.7-6.9,5.6-9.6
		c2-1.9,4.3-3.3,7-4.2c3.2-1.1,1.2-1,28.9-1.1l24.9-0.1l6.3-4.5c14.8-10.6,22.5-15.9,23.8-16.6c0.5-0.2,1.1-0.5,1.5-0.6
		c1.7-0.4,3.2,0.8,3.6,3.1c0.1,0.6,0.2,3.9,0.2,9.7v8.8l6.1,0.1c5.3,0.1,6.3,0.1,7.5,0.4c4,0.8,7.2,2.5,9.9,5.3
		c2.8,2.8,4.5,6.1,5.4,10.2c0.2,1.2,0.3,3.1,0.3,35.3s0,34.1-0.3,35.3c-0.8,4.1-2.6,7.4-5.4,10.2c-2.8,2.8-6.3,4.6-10.2,5.3
		c-1.3,0.2-5.9,0.2-50,0.2C7490.2,7574.8,7482.9,7574.8,7482,7574.6z M7581.5,7567.3c0.5-0.1,1.6-0.6,2.4-1c1.4-0.7,1.7-0.9,3-2.2
		c1.2-1.2,1.6-1.7,2.1-2.8c0.4-0.7,0.8-1.7,1-2.3l0.3-0.9v-34.3v-34.3l-0.3-0.9c-0.2-0.5-0.7-1.5-1-2.3c-0.6-1.1-0.9-1.6-2.1-2.8
		c-1.6-1.6-2.8-2.3-5-3.1l-1.2-0.4l-6.3-0.1c-6-0.1-6.4-0.1-7.7-0.4c-2.7-0.6-4.4-2.3-5.1-4.9c-0.3-1.2-0.3-1.6-0.4-7.1l-0.1-5.9
		l-4.6,3.2c-2.5,1.8-7.7,5.4-11.4,8.1c-3.7,2.7-7.2,5.1-7.7,5.5c-0.6,0.5-1.3,0.8-2.2,1l-1.3,0.4l-25.4,0.1
		c-19.3,0.1-25.5,0.1-26,0.3c-0.4,0.1-1.4,0.5-2.3,1c-1.6,0.7-1.8,0.9-3.2,2.4c-1.6,1.6-2.1,2.5-3,4.7l-0.4,1v34.6v34.6l0.4,1
		c0.9,2.2,1.4,3,3,4.7c1.4,1.5,1.7,1.6,3.2,2.4c0.9,0.5,1.9,0.9,2.3,0.9c0.4,0.1,19.7,0.1,49.3,0.1
		C7575.1,7567.5,7580.7,7567.5,7581.5,7567.3z"/>
	<path d="M7498.5,7541.7c-0.7-0.3-1.4-1-1.8-1.7c-0.4-0.8-0.4-2.4,0-3.2c0.4-0.8,1.3-1.6,2-1.8c0.5-0.2,5.7-0.2,31.9-0.2h31.3
		l0.7,0.3c0.9,0.5,1.7,1.4,2,2.4c0.4,1.5-0.2,3.1-1.5,4l-0.6,0.4l-31.7,0C7502.7,7542,7499,7541.9,7498.5,7541.7z"/>
	<path d="M7498.5,7527.1c-0.7-0.3-1.4-1-1.8-1.7c-0.4-0.8-0.4-2.4,0-3.2c0.4-0.8,1.3-1.6,2-1.8c0.5-0.2,5.7-0.2,31.9-0.2h31.3
		l0.7,0.3c0.9,0.5,1.7,1.4,2,2.4c0.4,1.5-0.2,3.1-1.5,4l-0.6,0.4l-31.7,0C7502.7,7527.3,7499,7527.3,7498.5,7527.1z"/>
	<path d="M7498.5,7512.5c-0.7-0.3-1.4-1-1.8-1.7c-0.2-0.4-0.3-0.8-0.3-1.6c0-1.2,0.3-1.9,1.1-2.7c1.1-1,0.6-1,11.6-1
		c5.5,0,10.4,0,11,0c1.4,0.1,2.4,0.7,3.1,1.8c0.5,0.7,0.5,0.9,0.4,1.9c-0.1,1.4-0.6,2.3-1.6,3l-0.7,0.4l-11.1,0
		C7500.5,7512.7,7499,7512.7,7498.5,7512.5z"/>
	<path d="M7418.5,7533.1c-4.3-0.7-7.9-2.6-10.9-5.7c-2.6-2.7-4.3-6-5.1-9.8c-0.2-1.2-0.3-2.8-0.3-27.5c0-25,0-26.3,0.3-27.7
		c0.3-1.5,1.1-3.9,1.6-5c2.4-4.8,6.5-8.4,11.5-9.9c2.1-0.7,3.5-0.8,7.5-0.9l3.8-0.1l0-9.2c0.1-10.2,0-9.9,1-11.1
		c1-1.2,2.3-1.3,4-0.5c1.4,0.7,6.3,4.1,22.9,15.9l7,4.9l21.1,0.1c23.1,0.1,21.8,0,24.7,0.9c4.6,1.4,8.5,4.6,10.9,8.9
		c0.6,1,1.6,3.5,1.6,3.8c0,0-1.8,0.1-3.9,0.1h-3.9l-0.4-0.7c-0.2-0.4-1-1.4-1.8-2.2c-1.3-1.4-1.6-1.5-3.1-2.3c-0.9-0.5-2-0.9-2.3-1
		c-0.5-0.1-5.9-0.2-22.1-0.2l-21.4-0.1l-1.3-0.3l-1.3-0.4l-5.3-3.7c-2.9-2-8.3-5.9-12.1-8.6l-6.9-4.9l-0.1,5.7
		c-0.1,5.4-0.1,5.7-0.4,7c-0.7,2.5-2.4,4.3-4.8,4.9c-1,0.3-1.7,0.3-5.4,0.4c-2.3,0.1-4.6,0.2-5,0.3c-0.4,0.1-1.5,0.5-2.4,1
		c-1.5,0.7-1.8,0.9-3.1,2.3c-1.2,1.2-1.6,1.7-2.1,2.8c-0.4,0.7-0.8,1.7-1,2.3l-0.3,0.9l0,25.6c0,14.2,0,26.2,0.1,26.8
		c0.1,1.3,0.8,3.2,1.7,4.6c0.3,0.4,1.1,1.4,1.8,2.1c1.4,1.4,2.5,2.1,4.7,3l1,0.4l17.6,0l17.6,0v3.6v3.7l-17.1,0
		C7423.7,7533.3,7419.4,7533.3,7418.5,7533.1z"/>
</g>
</svg>
