<?xml version="1.0" encoding="utf-8"?>
<!DOCTYPE svg PUBLIC "-//W3C//DTD SVG 1.1//EN" "http://www.w3.org/Graphics/SVG/1.1/DTD/svg11.dtd">
<svg version="1.1" xmlns="http://www.w3.org/2000/svg" xmlns:xlink="http://www.w3.org/1999/xlink" x="0px" y="0px"
	 width="20px" height="20px" viewBox="151 147 20 20" enable-background="new 151 147 20 20" xml:space="preserve">
<path fill="#D1D1D1" d="M169.1,154.4c-0.5-0.3-6.9-4.2-6.9-4.2s-0.7-0.5-1.2-0.5c-0.4,0-1.2,0.5-1.2,0.5s-6.3,3.9-6.9,4.2
	c-0.6,0.4-0.6,0.6-0.6,1.2c0,0.3,0,8.2,0,8.2c0,0.3,0.3,0.6,0.6,0.6h16.2c0.3,0,0.6-0.3,0.6-0.6c0,0,0-7.4,0-8.2
	S169.5,154.7,169.1,154.4z M152.8,155.7c0-0.1,0-0.2,0-0.3l5.7,3.4c0.1,0.1,0.2,0,0.3-0.1c0.1-0.1,0-0.2-0.1-0.3l-5.8-3.4
	c0.1-0.1,0.2-0.2,0.4-0.3c0.6-0.4,6.6-4,6.6-4s0.7-0.4,1.1-0.4s1.1,0.4,1.1,0.4s6.1,3.7,6.6,4c0.2,0.1,0.3,0.2,0.4,0.4l-5.7,3.4
	c-0.1,0.1-0.1,0.2-0.1,0.3c0.1,0.1,0.2,0.1,0.3,0.1l5.6-3.4c0,0.1,0,0.1,0,0.2h0v7.9l-8.1-5.3c0,0-0.1,0-0.1,0c0,0-0.1,0-0.1,0
	l-8.1,5.3L152.8,155.7L152.8,155.7z M153.1,163.9C153.1,163.9,153.1,163.9,153.1,163.9l7.9-5.2l8,5.2c0,0,0,0,0,0H153.1z"/>
</svg>
