<?xml version="1.0" encoding="utf-8"?>
<!DOCTYPE svg PUBLIC "-//W3C//DTD SVG 1.1//EN" "http://www.w3.org/Graphics/SVG/1.1/DTD/svg11.dtd">
<svg version="1.1" xmlns="http://www.w3.org/2000/svg" xmlns:xlink="http://www.w3.org/1999/xlink" x="0px" y="0px"
	 width="18px" height="18px" viewBox="0 0 31.4 32" enable-background="new 0 0 31.4 32" xml:space="preserve">
<g>
	<g transform="translate(0.000000,692.000000) scale(0.100000,-0.100000)">
		<path fill="#D7DDEB" d="M14,6870c-5.2-1.8-8-5-9.3-10.4c-0.7-3-0.8-4-0.3-6.8c0.7-3.7,1.8-5.5,9.1-15c2.5-3.1,90-116.2,90-116.2
			v-41.9c0-51.7-0.4-48.6,7.6-54.4c2.3-1.7,32.6-20.5,34.3-20.9c2.9-0.7,3.5-0.7,6.6,0c6.5,1.5,10.2,5,11.5,11
			c0.7,2.9,0.8,9.9,0.8,54.5v51.2c0,0,92,119.6,95.3,123.5c4,5,5.1,9.4,3.6,14.9c-0.9,3.3-2.3,5.5-5,7.9c-4.3,3.8,6.2,3.5-124.8,3.5
			C23.7,6870.9,16.3,6870.8,14,6870z M239.5,6850.7c-1.9-2.4-90.9-117.8-91.9-119.1c-2.7-3.6-2.6-1.8-2.9-55.2l-0.2-49.6l-21.3,13.9
			v41.6c0,48.3,0.2,45.2-4.6,51.6c-2.2,2.9-87.1,112.8-90.3,116.9c-0.3,0.4,20.8,0.6,105.6,0.6
			C218.7,6851.3,239.9,6851.2,239.5,6850.7z"/>
	</g>
</g>
</svg>
