<?xml version="1.0" encoding="utf-8"?>
<!DOCTYPE svg PUBLIC "-//W3C//DTD SVG 1.1//EN" "http://www.w3.org/Graphics/SVG/1.1/DTD/svg11.dtd">
<svg version="1.1" xmlns="http://www.w3.org/2000/svg" xmlns:xlink="http://www.w3.org/1999/xlink" x="0px" y="0px"
	 width="18px" height="18px" viewBox="0 0 31.4 32" enable-background="new 0 0 31.4 32" xml:space="preserve">
<g>
	<g transform="translate(0.000000,692.000000) scale(0.100000,-0.100000)">
		<path fill="#526AA8" d="M225.7,6916c-4.7-0.4-11.7-1.9-17.2-3.7c-17.8-5.9-38.8-22.7-54.3-43.1c-4.2-5.5-4.9-9-2.8-13.1
			c1.4-2.8,10.9-14,16.6-19.8c12.2-12.2,27.2-22.5,39.2-26.8c1.9-0.7,6-1.9,9.1-2.6c5.1-1.3,6.5-1.4,13.7-1.4s8.7,0.1,13.7,1.4
			c10.8,2.7,18,5.9,27.8,12.5c8.2,5.5,13.2,9.6,20.3,16.7c5.9,5.9,15.4,17.1,16.9,20c2.1,4.1,1.4,7.6-2.8,13.1
			c-15.5,20.6-36.5,37.1-54.4,43.1c-5.2,1.8-14.1,3.6-18.3,3.8C231.4,6916.2,228,6916.2,225.7,6916z M238.3,6888.4
			c4.4-2.2,7.6-5.2,9.6-9.5c1.5-3,1.6-3.7,1.6-8.4c0-4.7-0.1-5.4-1.4-8.1c-1.9-3.8-5.9-7.8-9.5-9.5c-2.4-1.1-3.7-1.4-7.8-1.5
			c-4.6-0.2-5.2-0.1-8.2,1.3c-4.3,2-7.8,5.3-9.8,9.4c-1.4,2.8-1.6,3.8-1.7,7.9c-0.2,5.5,0.8,8.9,3.8,12.7c4,5,8.9,7.4,15.5,7.4
			C234.4,6890.1,235,6889.9,238.3,6888.4z M199.9,6886.3c-3.9-7.7-4.7-17.5-2.1-26c2.2-7.3,7.3-13.9,14.1-18.4
			c10.7-7,25.8-7.1,36.6-0.1c5.2,3.3,9.4,8,12.2,13.5c1.9,3.7,3.7,11.2,3.7,15.5c0,4.4-1.9,12.1-3.9,15.7c-0.8,1.5-1.3,2.6-1.1,2.6
			c0.7,0,8.1-5.5,12.6-9.4c4.9-4.2,11.3-10.6,15.6-15.7l2.8-3.2l-3.1-3.6c-7.3-8.5-17.6-17.9-25.4-23.2c-5.1-3.4-13.5-7.5-19.1-9.4
			c-3.9-1.3-4.7-1.4-12.8-1.4s-8.8,0.1-12.8,1.4c-5.6,1.9-14.1,6-19.1,9.4c-7.8,5.3-18.1,14.7-25.4,23.2l-3,3.6l3.7,4.4
			c4.3,5.1,12.7,13.2,17.6,17.2c3.2,2.6,9.9,7.3,10.3,7.3C201.5,6889.6,200.8,6888.1,199.9,6886.3z"/>
		<path fill="#526AA8" d="M14,6870c-5.2-1.8-8-5-9.3-10.4c-0.7-3-0.8-4-0.3-6.8c0.7-3.7,1.8-5.5,9.1-15c2.5-3.1,90-116.2,90-116.2
			v-41.9c0-51.6-0.4-48.6,7.6-54.4c2.3-1.7,32.6-20.5,34.3-20.9c2.9-0.7,3.5-0.7,6.6,0c6.5,1.5,10.2,5,11.5,11
			c0.7,2.9,0.8,9.9,0.8,54.5v51.2c0,0,45.6,59.7,45.5,59.9c-0.1,0.1-2.2,0.8-4.6,1.4c-2.4,0.6-6.6,2.1-9.4,3.2
			c-2.8,1.2-5.1,2-5.2,1.9c-0.9-1.1-39.1-50.7-41.4-53.7c-1.6-2.2-3.3-4.8-3.6-5.9c-0.5-1.6-0.7-11.8-0.9-51.6l-0.2-49.6l-21.3,13.9
			v41.6c0,47.8,0.2,45.2-4.2,51c-1.4,1.9-91,117.8-91,117.8l46.8,0.1c25.8,0,46.8,0.2,46.8,0.4c0,0.2-0.5,0.9-1,1.8
			c-0.6,0.8-1.5,3-2,5c-0.8,3.3-0.8,3.7-0.1,6.7c0.4,1.8,1.1,3.7,1.4,4.3c0.4,0.6,0.7,1.2,0.7,1.4c0,0.2-23.4,0.2-52.1,0.2
			C20.4,6870.9,16.3,6870.8,14,6870z"/>
	</g>
</g>
</svg>
