<?xml version="1.0" encoding="UTF-8" standalone="no"?>
<!-- Created with Inkscape (http://www.inkscape.org/) -->

<svg
   xmlns:dc="http://purl.org/dc/elements/1.1/"
   xmlns:cc="http://creativecommons.org/ns#"
   xmlns:rdf="http://www.w3.org/1999/02/22-rdf-syntax-ns#"
   xmlns:svg="http://www.w3.org/2000/svg"
   xmlns="http://www.w3.org/2000/svg"
   xmlns:sodipodi="http://sodipodi.sourceforge.net/DTD/sodipodi-0.dtd"
   xmlns:inkscape="http://www.inkscape.org/namespaces/inkscape"
   width="32px"
   height="32px"
   viewBox="0 0 105 105"
   version="1.1"
   inkscape:version="0.91 r"
   sodipodi:docname="XC_NotFinishedOrders.svg">
  <defs
     id="defs4" />
  <sodipodi:namedview
     id="base"
     pagecolor="#ffffff"
     bordercolor="#666666"
     borderopacity="1.0"
     inkscape:pageopacity="0.0"
     inkscape:pageshadow="2"
     inkscape:zoom="5.6"
     inkscape:cx="36.299832"
     inkscape:cy="53.438525"
     inkscape:document-units="px"
     inkscape:current-layer="layer1"
     showgrid="false"
     fit-margin-top="0"
     fit-margin-left="0"
     fit-margin-right="0"
     fit-margin-bottom="0"
     showguides="false"
     inkscape:window-width="1600"
     inkscape:window-height="841"
     inkscape:window-x="0"
     inkscape:window-y="30"
     inkscape:window-maximized="1">
    <inkscape:grid
       type="xygrid"
       id="grid3550" />
  </sodipodi:namedview>
  <metadata
     id="metadata7">
    <rdf:RDF>
      <cc:Work
         rdf:about="">
        <dc:format>image/svg+xml</dc:format>
        <dc:type
           rdf:resource="http://purl.org/dc/dcmitype/StillImage" />
        <dc:title></dc:title>
      </cc:Work>
    </rdf:RDF>
  </metadata>
  <g
     inkscape:label="Layer 1"
     inkscape:groupmode="layer"
     id="layer1"
     transform="translate(-321.78571,-485.57651)">
    <path
       style="fill:#2C5FA6"
       d="m 331.83852,537.09437 0,-47.58929 52.47826,0 19.67888,18.14293 c -0.13374,11.28819 -0.18156,22.57752 -0.12036,33.86638 l -5.44469,0.0965 c 0.20428,-7.71921 0.16523,-19.37103 0.0329,-27.09278 -6.31763,-0.56992 -12.69165,-0.13642 -19.03572,-0.26661 l 0,-21.06398 -42.83035,1.07648 c -0.34108,28.87083 -0.68217,57.74167 -1.02327,86.6125 16.0804,0.2124 48.77872,0.029 48.77872,0.029 l -0.0618,3.49117 c 0,0 -36.9337,0.12659 -52.45254,0.28693 z m 66.69615,-27.77947 c -5.16442,-4.22509 -9.77324,-8.65622 -14.76401,-13.08639 0,0 -0.53571,0.17857 -0.0465,13.29473 3.92595,-0.009 10.88425,-0.2293 14.81052,-0.20834 z m -9.73544,69.80447 c -9.37001,-8.54645 -4.73815,-26.17324 7.31746,-29.57987 9.50342,-3.01076 20.97769,3.46213 22.42506,13.5451 1.92699,9.03818 -3.70224,19.58232 -13.20137,21.21454 -5.89068,1.30135 -12.62002,-0.43099 -16.54115,-5.17977 z m 21.68653,-1.39554 c 8.28869,-6.48498 4.62664,-21.94793 -5.80238,-23.84388 -7.5912,-1.67858 -15.76915,4.4521 -15.92468,12.32032 -0.76681,7.73192 6.17257,15.18406 14.03219,14.45888 2.79058,-0.10095 5.58726,-1.07342 7.69487,-2.93532 z m -10.59367,-4.64017 c 2.90026,-6.34807 5.44755,5.66919 0.13534,1.07837 l -0.0792,-0.55289 -0.0561,-0.52548 z m 2.08214,-5.00195 c -2.67943,-2.97286 -3.13534,-6.57394 0.0187,-9.63342 3.74924,1.95053 3.72132,6.77108 -0.0187,9.63342 z m -56.52081,-7.38651 c 0,0 11.33229,-0.11869 21.04206,-0.11701 0.29023,4.99832 0.29023,-0.002 0.0885,5.08124 -9.79831,-0.0829 -15.15545,0.0957 -20.97782,0.042 -0.2875,-2.12712 -0.15274,-5.00619 -0.15274,-5.00619 z m -0.80835,-7.26452 c 0.25178,-4.40858 0,-0.35714 0.25178,-4.40858 8.39905,-0.14153 27.76873,0.11912 36.44696,0.30982 -0.3669,4.35855 0,0 -0.01,4.17998 -21.36375,0.16434 -28.89956,0.009 -36.68899,-0.0812 z m -0.13512,-16.57561 c 8.40705,0.0753 23.14047,0.33907 29.59967,0.10665 0.31332,3.0615 0,0.89286 0.31332,3.95436 -5.9613,-0.19442 -23.32731,-0.2221 -29.84861,0.10303 z m 0.17857,-11.24285 c 13.75243,-0.0605 31.27596,-0.02 43.42366,-0.0757 0,5.11617 0.17857,0.35714 -0.0688,4.49934 -12.92073,0 -30.24011,-0.31377 -43.3857,-0.32794 0,0 0.0308,0.11751 0.0308,-0.16713 z"
       id="path3480"
       inkscape:connector-curvature="0"
       sodipodi:nodetypes="cccccccccccccccccccccccccccccccccccccccccccccccccccccccscccc" />
  </g>
</svg>
