<?xml version="1.0" encoding="utf-8"?>
<!DOCTYPE svg PUBLIC "-//W3C//DTD SVG 1.1//EN" "http://www.w3.org/Graphics/SVG/1.1/DTD/svg11.dtd">
<svg version="1.1" xmlns="http://www.w3.org/2000/svg" xmlns:xlink="http://www.w3.org/1999/xlink" x="0px" y="0px"
	 width="32px" height="32px" viewBox="39 757.9 32 32" enable-background="new 39 757.9 32 32" xml:space="preserve">
<g transform="translate(0.000000,705.000000) scale(0.100000,-0.100000)">
	<path d="M390.5-557.7v-28.4h7.1h7.1v21.3v21.3h21.3h21.3v7.1v7.1h-28.4h-28.4V-557.7z"/>
	<path d="M482.6-536.5v-7.1H511h28.4v7.1v7.1H511h-28.4V-536.5z"/>
	<path d="M567.7-536.5v-7.1h28.4h28.4v7.1v7.1h-28.4h-28.4V-536.5z"/>
	<path d="M652.8-536.5v-7.1h21.3h21.3v-21.3v-21.3h7.1h7.1v28.4v28.4h-28.4h-28.4V-536.5z"/>
	<path d="M390.5-642.8v-28.4h7.1h7.1v28.4v28.4h-7.1h-7.1V-642.8z"/>
	<path d="M542-615.3c-3.1-1.1-5.2-2.6-6.9-5c-2.7-3.7-2.8-4.5-2.8-28.7v-22.1l-23-0.1c-22.3-0.1-23.2-0.2-25.2-1.1
		c-3.1-1.5-5.4-3.7-6.9-6.7c-1.3-2.6-1.3-3-1.3-9.8c0-6.8,0-7.2,1.3-9.8c1.5-3,3.8-5.2,6.9-6.7c2.1-0.9,2.9-1,25.2-1.1l23-0.1
		l0.1-23l0.1-23l1.3-2.7c1.5-3,3.8-5.2,6.9-6.7c1.9-0.9,3.1-1,9.3-1s7.4,0.1,9.3,1c3.1,1.5,5.4,3.7,6.9,6.7l1.3,2.7l0.1,23l0.1,23
		l23,0.1c22.3,0.1,23.1,0.2,25.2,1.1c3.1,1.5,5.4,3.7,6.9,6.7c1.3,2.6,1.3,3,1.3,9.8c0,6.8,0,7.2-1.3,9.8c-1.5,3-3.8,5.2-6.9,6.7
		c-2.1,0.9-2.9,1-25.2,1.1l-23,0.1l-0.1,23l-0.1,23l-1.3,2.7c-1.5,3-3.8,5.2-6.9,6.7C556.2-614.3,545.5-614,542-615.3z"/>
	<path d="M695.4-642.8v-28.4h7.1h7.1v28.4v28.4h-7.1h-7.1V-642.8z"/>
	<path d="M390.5-727.9v-28.4h7.1h7.1v28.4v28.4h-7.1h-7.1V-727.9z"/>
	<path d="M695.4-727.9v-28.4h7.1h7.1v28.4v28.4h-7.1h-7.1V-727.9z"/>
	<path d="M390.5-820.1v-28.4h28.4h28.4v7.1v7.1h-21.3h-21.3v21.3v21.3h-7.1h-7.1V-820.1z"/>
	<path d="M695.4-813v-21.3h-21.3h-21.3v-7.1v-7.1h28.4h28.4v28.4v28.4h-7.1h-7.1V-813z"/>
	<path d="M482.6-841.3v-7.1H511h28.4v7.1v7.1H511h-28.4V-841.3z"/>
	<path d="M567.7-841.3v-7.1h28.4h28.4v7.1v7.1h-28.4h-28.4V-841.3z"/>
</g>
</svg>
