<?xml version="1.0" encoding="utf-8"?>
<!DOCTYPE svg PUBLIC "-//W3C//DTD SVG 1.1//EN" "http://www.w3.org/Graphics/SVG/1.1/DTD/svg11.dtd">
<svg version="1.1" xmlns="http://www.w3.org/2000/svg" xmlns:xlink="http://www.w3.org/1999/xlink" x="0px" y="0px"
	 width="32px" height="28.2px" viewBox="1 688.8 32 28.2" enable-background="new 1 688.8 32 28.2" xml:space="preserve">
<path fill="#C1CCDA" d="M13,689c-1.3,0.2-2.1,0.6-3,1.2c-0.6,0.5-1,0.8-1.4,1.5c-0.4,0.6-0.7,1.1-0.9,1.9c-0.3,1.1-0.3,1.2-0.2,4.4
	l0,3l0.1,0.6c0.1,0.3,0.2,0.7,0.2,0.8l0.1,0.2l-0.4,0c-0.8,0.1-1.9,0.3-2.6,0.7c-1.7,0.8-3,2.4-3.5,4.3c-0.3,1-0.3,1.3-0.3,3.2
	l0,1.7l0.2,0.6c0.2,0.7,0.4,1.1,0.7,1.6c0.6,0.9,1.6,1.4,2.9,1.8c1.5,0.4,1,0.3,8,0.4l6.4,0v-0.8v-0.8l-6.4,0c-5.8,0-6.5,0-6.9-0.1
	c-1.1-0.2-1.8-0.5-2.3-1c-0.4-0.4-0.6-0.7-0.8-1.2l-0.1-0.4v-2c0-1.7,0-2,0.1-2.3c0.5-1.9,1.9-3.3,3.8-3.8c0.4-0.1,0.6-0.1,2.4-0.1
	l2,0l-0.4-0.3c-0.5-0.4-0.8-0.9-1.2-1.5c-0.5-1-0.5-0.9-0.5-4.7v-3.3l0.1-0.5c0.5-1.6,1.7-2.8,3.3-3.3l0.5-0.1h1.6h1.6l0.5,0.1
	c1.6,0.5,2.8,1.7,3.3,3.3l0.1,0.5v3.3v3.3l-0.1,0.5c-0.3,0.9-0.9,1.8-1.5,2.4l-0.3,0.3l1.2,0l1.2,0l0.2-0.2c0.5-0.5,1.4-1,2-1.2
	c0.2,0,0.3-0.1,0.3-0.1c0-0.1-0.5-0.1-1.1-0.1h-0.6l0.1-0.3c0-0.1,0.1-0.5,0.2-0.8l0.1-0.6l0-3c0-3.2,0-3.3-0.3-4.4
	c-0.5-2.1-2.3-3.9-4.4-4.4c-0.3-0.1-0.8-0.2-1-0.2C15.6,688.9,13.4,688.9,13,689z"/>
<path fill="#78AFCC" d="M26.9,705.9c-0.1,0-0.2,0.2-0.3,0.2c-0.1,0.2-0.1,0.2-0.1,1.9l0,1.7h-1.7c-1.8,0-1.9,0-2.1,0.3
	c-0.1,0.1-0.1,0.2-0.1,0.8c0,0.6,0,0.6,0.1,0.8c0.2,0.4,0.3,0.4,2.2,0.4h1.7v1.7c0,1.6,0,1.7,0.1,1.9c0.2,0.3,0.4,0.4,1.1,0.4
	c0.7,0,0.9-0.1,1.1-0.4c0.1-0.2,0.1-0.2,0.1-1.9v-1.7h1.7c1.6,0,1.7,0,1.9-0.1c0.3-0.2,0.4-0.4,0.4-1.1s-0.1-0.9-0.4-1.1
	c-0.2-0.1-0.3-0.1-1.9-0.1h-1.7v-1.7c0-1.9,0-1.9-0.4-2.2c-0.2-0.1-0.3-0.1-0.8-0.1C27.2,705.8,27,705.8,26.9,705.9z"/>
</svg>
