<?xml version="1.0" encoding="utf-8"?>
<!DOCTYPE svg PUBLIC "-//W3C//DTD SVG 1.1//EN" "http://www.w3.org/Graphics/SVG/1.1/DTD/svg11.dtd">
<svg version="1.1" xmlns="http://www.w3.org/2000/svg" xmlns:xlink="http://www.w3.org/1999/xlink" x="0px" y="0px"
	 width="32px" height="29.6px" viewBox="-14 682.9 32 29.6" enable-background="new -14 682.9 32 29.6" xml:space="preserve">
<path fill="#C1CCDA" d="M-12,683c-0.9,0.2-1.7,1-1.9,1.9c-0.1,0.4-0.1,22.4,0,22.9c0.2,0.9,1,1.7,1.9,1.9c0.2,0,2.5,0.1,8,0.1h7.7
	V709v-0.8H-4c-7.6,0-7.7,0-7.9-0.1c-0.1-0.1-0.2-0.2-0.3-0.3c-0.1-0.2-0.1-0.3-0.1-7.4V693h11.7h11.7v2.5v2.5h0.8h0.8v-4.4
	c0-3.5,0-4.4-0.1-4.6c-0.3-0.9-1-1.7-1.9-1.9c-0.2,0-2.1-0.1-6.3-0.1h-6v-0.9c0-0.5,0-1.1-0.1-1.2c-0.2-0.9-1-1.8-1.9-2
	C-3.8,682.9-11.6,682.9-12,683z M-3.4,684.7c0.4,0.2,0.4,0.3,0.4,1.5c0,1.4,0.1,1.6,0.5,2c0.5,0.5,0,0.5,7.1,0.5
	c5.8,0,6.2,0,6.3,0.1c0.3,0.2,0.4,0.4,0.4,1.4v1H-0.5h-11.7v-3.1c0-3,0-3.1,0.1-3.2c0.1-0.1,0.2-0.2,0.3-0.3
	c0.2-0.1,0.3-0.1,4.2-0.1C-3.7,684.6-3.6,684.6-3.4,684.7z"/>
<path fill="#78AFCC" d="M11.7,701.5c-0.1,0.1-0.3,0.2-0.3,0.3c-0.1,0.2-0.1,0.3-0.1,2v1.8H9.5c-1.7,0-1.8,0-2,0.1
	c-0.3,0.2-0.4,0.4-0.4,1.1c0,0.7,0.1,1,0.4,1.2c0.2,0.1,0.3,0.1,2,0.1h1.8v1.8c0,2,0,2.1,0.4,2.3c0.2,0.1,0.3,0.1,0.8,0.1
	s0.6,0,0.8-0.1c0.4-0.2,0.4-0.3,0.4-2.3v-1.8h1.8c2,0,2,0,2.3-0.4c0.1-0.2,0.1-0.3,0.1-0.8c0-0.8-0.1-1-0.4-1.2
	c-0.2-0.1-0.3-0.1-2-0.1h-1.8v-1.8c0-1.7,0-1.8-0.1-2c-0.2-0.4-0.4-0.4-1.2-0.4C12,701.4,11.8,701.4,11.7,701.5z"/>
</svg>
