<?xml version="1.0" encoding="utf-8"?>
<!DOCTYPE svg PUBLIC "-//W3C//DTD SVG 1.1//EN" "http://www.w3.org/Graphics/SVG/1.1/DTD/svg11.dtd">
<svg version="1.1" xmlns="http://www.w3.org/2000/svg" xmlns:xlink="http://www.w3.org/1999/xlink" x="0px" y="0px"
	 width="32px" height="23.4px" viewBox="736 1210.7 32 23.4" enable-background="new 736 1210.7 32 23.4" xml:space="preserve">
<g transform="translate(0.000000,1605.000000) scale(0.100000,-0.100000)">
	<path fill="#C9C9C9" d="M7543.3,3942.6c-0.6-0.1-2.1-0.6-3.5-1.1c-16-6.2-28.1-6.2-42.6,0c-2.3,1-2.4,1-4.1,1.1
		c-2.9,0.1-6.2-0.7-9.8-2.5c-5.1-2.5-8.7-5.9-10-9.4l-0.4-1l-0.1-25.9l-0.4-0.1c-0.2,0-2.1-0.4-4.2-0.7c-14-2.4-27.2-6.2-35.3-10.2
		c-5.5-2.7-9-5.5-10.4-8.5c-0.5-1.1-0.7-1.6-0.7-2.7c0-0.8,0-1.7,0.1-2.3c1.4-6.7,13.2-12.9,33.7-17.9c14.3-3.5,30.6-5.5,49.7-6.2
		c5.7-0.2,21.7-0.2,27.4,0c21.5,0.8,40.2,3.4,55.7,7.8c14.2,4,23.2,8.6,26.4,13.5c1.2,1.8,1.6,3.5,1.3,5.5c-0.8,6.7-12,12.9-32,18
		c-4.4,1.1-12,2.7-16.6,3.4l-0.6,0.1c0,0,0.1,25.5-0.1,26.2c-0.9,4.5-6.2,9-13.4,11.5C7549.9,3942.3,7545.8,3942.9,7543.3,3942.6z"
		/>
	<path fill="#C9C9C9" d="M7569.1,3854.4c-0.2-0.2-0.5-2.3-0.7-4.4c-0.2-4-1.1-6.5-3-9.5c-1-1.6-2.9-3.5-4.5-4.7
		c-1.5-1.2-5-2.8-7-3.4c-3.5-1-7.4-1.2-10.2-0.5c-5.9,1.6-12.3,7.3-16.3,14.9l-0.8,1.5H7516l-0.7-1.3c-0.4-0.7-1.2-2.1-1.8-3.1
		c-4.4-6.7-9.9-11-15.5-12.1c-3.5-0.7-8.6,0.1-12.6,2c-3.9,1.8-7.3,5-9.1,8.5c-1.4,2.6-1.8,4.4-2.1,8.1c-0.1,1.3-0.2,2.6-0.3,2.8
		l-0.1,0.5c0,0-9.9,1.7-10.1,1.7c-0.3,0-0.3-0.1-0.2-3.2c0.5-16.3,5.3-29.9,14.8-41.7c7.9-9.8,17.2-16.4,27.6-19.5
		c4-1.2,7.2-1.7,12.1-2c12.6-0.7,24.2,2.7,34.1,10.2c2.4,1.8,3.4,2.7,6,5.3c11.3,11.1,17.9,24.9,19.7,41.1c0.3,2.5,0.6,9.2,0.5,10.1
		C7578.1,3856.2,7569.1,3854.4,7569.1,3854.4z"/>
	<path fill="#C9C9C9" d="M7505.9,3772.1c-5.3-1-9-4.6-10.3-9.9c-0.2-1-0.3-1.9-0.3-5.2c0-4.6,0.2-5.5,1.5-8.1c0.6-1.3,1-1.8,2.3-3.1
		c1.7-1.7,3.2-2.6,5.3-3.2l1.2-0.4v-32.3h30.5v32.6l0.7,0.2c2.5,0.7,5.3,3,6.8,5.5c0.4,0.6,0.9,1.8,1.2,2.6l0.5,1.5l0.1,4.2
		c0,3.4,0,4.4-0.2,5.5c-1.2,5.8-5.8,9.8-11.7,10.3c-1.3,0.1-1.3,0.1-3.2-0.6c-5.7-2.3-11.8-2.3-19.5,0.1
		C7508.7,3772.4,7507.8,3772.5,7505.9,3772.1z"/>
	<path fill="#C9C9C9" d="M7473.6,3770.4c-21.6-3.9-40-9.9-58-18.9c-19.3-9.6-36.1-21.8-49.6-35.8c-2-2.1-4.9-5.4-5-5.6
		c0-0.1,134.8-0.1,134.8-0.1v13.7l-2,0.6c-4.8,1.4-9.8,3.6-12.8,5.6c-1.6,1.1-3.7,2.9-4.4,3.9c-2.2,2.8-3.1,7.8-3.1,15.9
		c0,5.5,0.4,11.7,1.3,18.1c0.2,1.3,0.3,2.5,0.3,2.6C7474.9,3770.6,7474.8,3770.6,7473.6,3770.4z"/>
	<path fill="#C9C9C9" d="M7567.5,3769.6c0.1-0.9,0.7-6.5,1-9.7c0.4-4.4,0.5-12.1,0.3-15.2c-0.4-4.5-1.1-7.9-2.2-10
		c-1.6-3.2-5.4-6.2-10.8-8.7c-1.9-0.8-5.7-2.2-7.9-2.7c-0.9-0.2-2.8-0.7-2.8-0.7v-12.6c0,0,133.9,0,133.9,0.1c0,0.1-0.9,1.1-2,2.3
		c-13.6,15.2-32.5,29.2-53.2,39.4c-14.3,7.1-28.9,12.3-44.9,16.1c-3.5,0.8-10.7,2.3-11.1,2.3
		C7567.4,3770.1,7567.4,3770,7567.5,3769.6z"/>
</g>
</svg>
