<?xml version="1.0" standalone="no"?>
<!DOCTYPE svg PUBLIC "-//W3C//DTD SVG 20010904//EN"
 "http://www.w3.org/TR/2001/REC-SVG-20010904/DTD/svg10.dtd">
<svg version="1.0" xmlns="http://www.w3.org/2000/svg"
 width="1500.000000pt" height="2125.000000pt" viewBox="0 0 1500.000000 2125.000000"
 preserveAspectRatio="xMidYMid meet">
<metadata>
Created by potrace 1.11, written by Peter Selinger 2001-2013
</metadata>
<g transform="translate(0.000000,2125.000000) scale(0.100000,-0.100000)"
fill="#1a509a" stroke="none">
<path d="M1630 19347 c-168 -57 -284 -169 -348 -333 l-27 -69 -3 -8603 c-2
-7670 0 -8611 13 -8669 46 -196 210 -361 406 -408 57 -13 726 -15 5829 -15
5103 0 5772 2 5829 15 196 47 360 212 406 408 13 58 15 999 13 8669 l-3 8603
-27 69 c-64 165 -191 285 -357 336 -62 20 -127 20 -5865 20 l-5801 -1 -65 -22z
m10870 -3097 l0 -1880 -5000 0 -5000 0 0 1880 0 1880 5000 0 5000 0 0 -1880z
m-7660 -3774 c49 -26 108 -84 133 -131 l22 -40 0 -1055 c0 -1009 -1 -1057 -19
-1090 -26 -49 -84 -108 -131 -133 l-40 -22 -1055 0 -1055 0 -40 22 c-47 25
-105 84 -131 133 -18 33 -19 81 -19 1090 0 1009 1 1057 19 1090 36 69 107 129
176 151 14 4 493 7 1065 6 993 -2 1042 -3 1075 -21z m3750 0 c49 -26 108 -84
133 -131 l22 -40 0 -1055 c0 -1009 -1 -1057 -19 -1090 -26 -49 -84 -108 -131
-133 l-40 -22 -1055 0 -1055 0 -40 22 c-47 25 -105 84 -131 133 -18 33 -19 81
-19 1090 0 1009 1 1057 19 1090 36 69 107 129 176 151 14 4 493 7 1065 6 993
-2 1042 -3 1075 -21z m3750 -7 c60 -27 107 -74 136 -134 l24 -50 0 -1040 c0
-1024 -1 -1041 -21 -1085 -25 -55 -71 -105 -124 -133 l-40 -22 -1055 0 -1056
0 -49 26 c-56 28 -116 100 -134 159 -8 27 -11 328 -11 1057 0 1097 -2 1060 50
1134 28 39 81 78 127 95 31 11 234 13 1073 13 1020 1 1036 0 1080 -20z m1
-3735 c58 -27 109 -78 137 -137 l22 -47 0 -2922 c0 -2918 0 -2923 -21 -2968
-27 -60 -74 -107 -134 -136 l-50 -24 -1041 0 -1040 0 -52 26 c-29 14 -67 44
-86 66 -72 83 -66 -183 -66 3033 0 3235 -7 2951 70 3038 39 44 88 74 145 88
17 4 489 6 1050 6 1017 -2 1020 -2 1066 -23z m-7501 -8 c49 -26 108 -84 133
-131 l22 -40 0 -1055 c0 -1009 -1 -1057 -19 -1090 -26 -49 -84 -108 -131 -133
l-40 -22 -1055 0 -1055 0 -40 22 c-47 25 -105 84 -131 133 -18 33 -19 81 -19
1090 0 1009 1 1057 19 1090 36 69 107 129 176 151 14 4 493 7 1065 6 993 -2
1042 -3 1075 -21z m3750 0 c49 -26 108 -84 133 -131 l22 -40 0 -1055 c0 -1009
-1 -1057 -19 -1090 -26 -49 -84 -108 -131 -133 l-40 -22 -1055 0 -1055 0 -40
22 c-47 25 -105 84 -131 133 -18 33 -19 81 -19 1090 0 1009 1 1057 19 1090 36
69 107 129 176 151 14 4 493 7 1065 6 993 -2 1042 -3 1075 -21z m-3750 -3750
c49 -26 108 -84 133 -131 l22 -40 0 -1055 c0 -1009 -1 -1057 -19 -1090 -26
-49 -84 -108 -131 -133 l-40 -22 -1055 0 -1055 0 -40 22 c-47 25 -105 84 -131
133 -18 33 -19 81 -19 1090 0 1009 1 1057 19 1090 36 69 107 129 176 151 14 4
493 7 1065 6 993 -2 1042 -3 1075 -21z m3750 0 c49 -26 108 -84 133 -131 l22
-40 0 -1055 c0 -1009 -1 -1057 -19 -1090 -26 -49 -84 -108 -131 -133 l-40 -22
-1055 0 -1055 0 -40 22 c-47 25 -105 84 -131 133 -18 33 -19 81 -19 1090 0
1009 1 1057 19 1090 36 69 107 129 176 151 14 4 493 7 1065 6 993 -2 1042 -3
1075 -21z"/>
<path d="M7776 17454 c-82 -178 -309 -382 -534 -480 l-77 -33 -3 -191 c-2
-148 0 -190 10 -190 22 0 115 38 216 89 98 49 231 138 287 192 17 16 34 29 38
29 4 0 7 -362 7 -805 l0 -805 213 2 212 3 3 1123 2 1122 -174 0 -175 0 -25
-56z"/>
<path d="M9335 17504 c-272 -40 -454 -156 -545 -345 -45 -96 -72 -191 -74
-264 l-1 -50 207 -20 207 -21 7 46 c20 145 68 227 164 276 51 26 184 31 247
10 171 -57 229 -259 133 -465 -45 -94 -120 -181 -350 -399 -386 -367 -516
-523 -599 -717 -35 -83 -71 -215 -71 -262 l0 -33 748 2 747 3 3 198 2 197
-425 0 c-234 0 -425 3 -425 7 0 21 101 131 256 278 334 316 417 412 501 579
63 126 85 216 86 356 1 182 -43 297 -164 424 -124 132 -281 194 -504 201 -66
2 -133 1 -150 -1z"/>
<path d="M10940 17499 c-213 -37 -380 -148 -463 -307 -35 -67 -87 -217 -87
-251 0 -15 27 -22 188 -49 103 -18 190 -32 194 -32 3 0 11 24 18 53 36 153
135 240 276 240 58 0 79 -4 122 -28 87 -47 130 -136 118 -249 -15 -145 -121
-239 -286 -253 -39 -3 -70 -9 -70 -13 0 -3 -9 -71 -20 -150 -29 -206 -33 -190
43 -173 81 19 199 13 252 -12 56 -28 113 -88 144 -154 23 -50 26 -67 26 -171
0 -106 -2 -120 -29 -178 -59 -128 -178 -201 -308 -189 -139 12 -237 105 -277
262 l-16 61 -202 -24 -203 -25 0 -32 c0 -47 36 -159 78 -240 44 -86 171 -217
254 -263 235 -131 575 -127 805 9 92 55 211 181 260 274 55 108 73 171 80 290
9 171 -34 298 -140 411 -66 72 -119 106 -210 139 l-60 22 59 39 c187 124 275
303 247 500 -32 220 -219 416 -458 479 -73 20 -260 28 -335 14z"/>
</g>
</svg>
