<?xml version="1.0" encoding="utf-8"?>
<!DOCTYPE svg PUBLIC "-//W3C//DTD SVG 1.1//EN" "http://www.w3.org/Graphics/SVG/1.1/DTD/svg11.dtd">
<svg version="1.1" xmlns="http://www.w3.org/2000/svg" xmlns:xlink="http://www.w3.org/1999/xlink" x="0px" y="0px"
	 width="31.3px" height="23.3px" viewBox="-53 604.8 31.3 23.3" enable-background="new -53 604.8 31.3 23.3" xml:space="preserve">
<g transform="translate(0.000000,392.000000) scale(0.100000,-0.100000)">
	<path d="M-259-2129.9c-1-0.5-35.9-34.9-77.5-76.5c-41.5-41.6-75.8-75.7-76.1-75.7c-0.3,0-16.7,16.3-36.5,36.3
		c-21.1,21.3-36.9,36.7-38.3,37.5c-2.9,1.4-6.7,1.5-9.8,0.2c-2.9-1.2-29.1-27-30.8-30.4c-1.4-2.8-1.6-7.2-0.2-10.2
		c1.1-2.7,106-108.5,109.8-110.8c3-1.8,7.8-2,10.7-0.4c2.7,1.4,188.8,187.9,189.6,189.9c0.9,2.6,0.7,7.1-0.3,9.4
		c-1.2,2.6-28.9,30.1-31.1,30.9C-251.9-2128.8-256.8-2128.9-259-2129.9z"/>
</g>
</svg>
