<?xml version="1.0" encoding="utf-8"?>
<!DOCTYPE svg PUBLIC "-//W3C//DTD SVG 1.1//EN" "http://www.w3.org/Graphics/SVG/1.1/DTD/svg11.dtd">
<svg version="1.1" xmlns="http://www.w3.org/2000/svg" xmlns:xlink="http://www.w3.org/1999/xlink" x="0px" y="0px"
	 width="32px" height="32px" viewBox="-297 420.9 32 32" enable-background="new -297 420.9 32 32" xml:space="preserve">
<g transform="translate(0.000000,522.000000) scale(0.100000,-0.100000)">
	<path d="M-2824.4,1010.2c-45.5-4.6-86.4-27.3-113.6-63.4c-15.6-20.7-26.2-46.3-30.2-72.9c-1.6-10.6-1.6-35,0-45.5
		c6.7-43.7,29.8-81.7,65.2-107c20.6-14.8,43.7-24.1,69.5-28.2c11.5-1.8,33.4-2,44.9-0.2c26.5,3.9,50.3,13.3,71.4,28.4
		c30.9,22.1,52.8,54.2,61.9,90.7c3.7,14.7,4.5,21.7,4.5,39c0,11.7-0.3,17-1.2,22.8c-8,52.5-39.4,95.9-86.4,119.6
		c-16.2,8.2-30.1,12.7-47.8,15.4C-2795.3,1010.4-2815.7,1011.1-2824.4,1010.2z M-2794.2,997.1c31.4-3,62.2-17.4,85.4-39.9
		c25.6-24.8,40.9-55.8,44.7-90.6c0.8-7.8,0.8-23.1,0-30.9c-5.5-50.3-36.1-94.1-81.7-116.5c-22.3-11-47.2-15.9-73.2-14.5
		c-71,3.9-129.3,59.6-137,131c-0.8,7.7-0.8,22.2,0,30.5c4.3,42.7,27.7,81.9,63.6,106.5c19.1,13.2,43.7,22.1,66.4,24.4
		C-2814,998.3-2806.8,998.3-2794.2,997.1z"/>
</g>
</svg>
