<?xml version="1.0" encoding="utf-8"?>
<!DOCTYPE svg PUBLIC "-//W3C//DTD SVG 1.1//EN" "http://www.w3.org/Graphics/SVG/1.1/DTD/svg11.dtd">
<svg version="1.1" xmlns="http://www.w3.org/2000/svg" xmlns:xlink="http://www.w3.org/1999/xlink" x="0px" y="0px"
	 width="32px" height="27.8px" viewBox="-58 631.8 32 27.8" enable-background="new -58 631.8 32 27.8" xml:space="preserve">
<g transform="translate(0.000000,450.000000) scale(0.100000,-0.100000)">
	<path d="M-536.6-1839.7v-21.2h-21.2h-21.2v-92.7c0-101.6-0.1-98,4.2-108.3c6.6-15.9,21.2-27.8,38.4-31.3c4.9-1,19.9-1.1,140.6-1.1
		h135.1v137.9v137.9h-137.9h-137.9V-1839.7z M-282-1956.5v-116.7l-126,0.1l-126.1,0.2l-5.3,2.6c-6.7,3.3-12.6,9.2-15.8,15.9
		l-2.3,4.8l-0.2,83.7l-0.1,83.6h10.6h10.6v-84.9v-84.9h10.6h10.6v106.1v106.1h116.7H-282V-1956.5z"/>
	<path d="M-494.2-1903.4v-42.4h42.4h42.4v42.4v42.4h-42.4h-42.4V-1903.4z"/>
	<path d="M-388.1-1871.6v-10.6h42.4h42.4v10.6v10.6h-42.4h-42.4V-1871.6z"/>
	<path d="M-388.1-1914v-10.6h42.4h42.4v10.6v10.6h-42.4h-42.4V-1914z"/>
	<path d="M-494.2-1977.7v-10.6h95.5h95.5v10.6v10.6h-95.5h-95.5V-1977.7z"/>
	<path d="M-494.2-2020.1v-10.6h84.9h84.9v10.6v10.6h-84.9h-84.9V-2020.1z"/>
</g>
</svg>
