<?xml version="1.0" encoding="utf-8"?>
<!DOCTYPE svg PUBLIC "-//W3C//DTD SVG 1.1//EN" "http://www.w3.org/Graphics/SVG/1.1/DTD/svg11.dtd">
<svg version="1.1" xmlns="http://www.w3.org/2000/svg" xmlns:xlink="http://www.w3.org/1999/xlink" x="0px" y="0px"
	 width="26px" height="32px" viewBox="168.9 988.9 26 32" enable-background="new 168.9 988.9 26 32" xml:space="preserve">
<g transform="translate(0.000000,1170.000000) scale(0.100000,-0.100000)">
	<path d="M1752.7,1809.6c-0.4-0.5-14.9-15-32.1-32.2l-31.3-31.3l0.1-116.2l0.1-116.3l0.6-2.3c0.9-3.3,3.2-7.7,5.3-10.2
		c3.2-3.8,8.2-7,13.3-8.4l2.3-0.6l47.3-0.1l47.3-0.1l9.9,9.9c5.5,5.5,9.9,10,9.8,10c-0.1,0-26,0.2-57.6,0.4
		c-31.6,0.1-57.5,0.3-57.6,0.4c-0.1,0.1-0.2,49.7-0.3,110.4l-0.2,110.3l16.6,0.1c14,0.1,17.1,0.2,19.6,0.6
		c11.2,1.9,16.9,6.6,19.4,16c1.1,4.3,1.3,7.9,1.3,24.7v15.7h80.8h80.8l-0.2-54c-0.1-29.7-0.2-69.5-0.3-88.4l-0.2-34.3l9.6,9.8
		l9.6,9.8v9.3c0,5.1,0.2,39.6,0.5,76.5c0.3,52.3,0.4,67.7,0.1,69.3c-1.7,10.4-8.8,18.4-19.1,21.3l-2.3,0.7l-86.3,0.1l-86.3,0.1
		L1752.7,1809.6z"/>
	<path d="M1854.2,1633.4c-15.2-0.1-32.4-0.2-38.1-0.2l-10.4,0v-49.8c0-27.4,0.1-49.8,0.2-49.8c0.1,0,7.7,7.5,16.8,16.6l16.6,16.6
		l32.4-32.4l32.4-32.4l17.2,17.1l17.1,17.2l-32.4,32.4l-32.4,32.4l16.2,16.2c8.9,8.9,16.1,16.2,16.1,16.4
		C1905.8,1633.7,1898.7,1633.7,1854.2,1633.4z"/>
</g>
</svg>
