<?xml version="1.0" standalone="no"?>
<!DOCTYPE svg PUBLIC "-//W3C//DTD SVG 20010904//EN"
 "http://www.w3.org/TR/2001/REC-SVG-20010904/DTD/svg10.dtd">
<svg version="1.0" xmlns="http://www.w3.org/2000/svg"
 width="684.000000pt" height="588.000000pt" viewBox="0 0 684.000000 588.000000"
 preserveAspectRatio="xMidYMid meet">
<metadata>
Created by potrace 1.11, written by Peter Selinger 2001-2013
</metadata>
<g transform="translate(0.000000,588.000000) scale(0.100000,-0.100000)"
fill="#000000" stroke="none">
<path d="M3115 5809 c-676 -43 -1318 -232 -1850 -546 -385 -228 -712 -538
-920 -875 -384 -619 -376 -1362 22 -1968 193 -294 447 -543 773 -759 63 -42
132 -86 152 -98 l37 -22 -15 -53 c-24 -82 -82 -232 -131 -343 -86 -194 -182
-328 -420 -592 -87 -96 -171 -196 -188 -221 -60 -92 -27 -210 72 -254 43 -19
52 -20 137 -8 292 40 697 158 1016 297 356 155 692 363 995 617 79 67 80 67
130 62 212 -21 517 -29 722 -18 635 34 1148 160 1658 406 777 374 1301 968
1435 1625 114 560 -36 1114 -430 1586 -663 797 -1895 1246 -3195 1164z m785
-494 c1056 -128 1927 -635 2268 -1320 41 -83 79 -191 104 -299 29 -124 32
-399 5 -526 -82 -382 -323 -727 -712 -1020 -365 -275 -874 -487 -1396 -584
-265 -49 -402 -60 -734 -60 -258 0 -344 3 -513 22 l-202 23 -113 -99 c-242
-212 -422 -343 -664 -481 -106 -60 -403 -205 -409 -199 -2 3 21 54 51 114 87
172 140 319 225 614 43 151 78 275 77 276 -317 180 -413 236 -485 283 -435
288 -718 648 -825 1051 -28 107 -30 128 -31 295 -1 200 8 261 59 421 165 508
668 968 1360 1244 325 130 701 221 1035 249 69 6 141 13 160 15 87 10 613 -3
740 -19z"/>
</g>
</svg>
