<?xml version="1.0" encoding="utf-8"?>
<!DOCTYPE svg PUBLIC "-//W3C//DTD SVG 1.1//EN" "http://www.w3.org/Graphics/SVG/1.1/DTD/svg11.dtd">
<svg version="1.1" xmlns="http://www.w3.org/2000/svg" xmlns:xlink="http://www.w3.org/1999/xlink" x="0px" y="0px"
	 width="32px" height="32px" viewBox="-19 698.9 32 32" enable-background="new -19 698.9 32 32" xml:space="preserve">
<g transform="translate(0.000000,588.000000) scale(0.100000,-0.100000)">
	<path d="M-42.2-1109.8c-25.1-1.8-49.2-9.5-71-22.8c-29.6-18-52.7-45.6-65.5-78c-11.6-29.3-13.9-63.6-6.4-95.9
		c4.9-21.2,16.2-44,31-62.6c15.8-19.9,39.5-37.5,63.8-47.5c34.5-14.1,74.8-15.5,110.6-3.8c20.7,6.8,40.7,18.6,57.5,33.8
		c20.3,18.4,36.4,43.7,44.8,70.7c9.5,30.4,9.2,66.6-0.7,96.7c-4.7,14.1-10.5,26.1-18.8,38.6c-7.2,10.9-11.5,16.1-20.7,25.2
		c-17.7,17.7-39.3,30.8-64,38.8C-0.1-1110.7-21.2-1108.3-42.2-1109.8z M-6.7-1143.3c3.2-1.7,3.3-2.3,3.3-22.5
		c0-15.3-0.2-18.6-0.8-20c-1.7-3.3-2-3.3-25.8-3.3s-24.1,0.1-25.8,3.3c-1.2,2.4-1.2,37.5,0,39.9c1.7,3.3,1.8,3.3,25.7,3.3
		C-11.7-1142.4-8.1-1142.5-6.7-1143.3z M-6.7-1216.4c3.5-1.8,3.3,1.2,3.3-58.2v-54.1H7.4c12,0,13.4-0.3,15-3.3
		c1.2-2.4,1.2-37.5,0-39.9c-1.8-3.5,0.6-3.3-52.4-3.3s-50.6-0.2-52.4,3.3c-1.2,2.4-1.2,37.5,0,39.9c1.6,3,3,3.3,15,3.3h10.8v33.3
		v33.3h-10.8c-12,0-13.4,0.3-15,3.3c-1.2,2.4-1.2,37.5,0,39.9c1.8,3.4,0.6,3.3,39,3.3C-13.1-1215.6-8.1-1215.7-6.7-1216.4z"/>
</g>
</svg>
