<?xml version="1.0" encoding="utf-8"?>
<!DOCTYPE svg PUBLIC "-//W3C//DTD SVG 1.1//EN" "http://www.w3.org/Graphics/SVG/1.1/DTD/svg11.dtd">
<svg version="1.1" xmlns="http://www.w3.org/2000/svg" xmlns:xlink="http://www.w3.org/1999/xlink" x="0px" y="0px"
	 width="32px" height="32px" viewBox="-52 665.9 32 32" enable-background="new -52 665.9 32 32" xml:space="preserve">
<g transform="translate(0.000000,522.000000) scale(0.100000,-0.100000)">
	<path d="M-374.1-1440c-45.5-4.6-86.4-27.3-113.6-63.4c-15.6-20.7-26.2-46.3-30.2-72.9c-1.6-10.6-1.6-35,0-45.5
		c6.7-43.7,29.8-81.7,65.2-107c20.6-14.8,43.7-24.1,69.5-28.2c11.5-1.8,33.4-2,44.9-0.2c26.5,3.9,50.3,13.3,71.4,28.4
		c30.9,22.1,52.8,54.2,61.9,90.7c3.7,14.7,4.5,21.7,4.5,39c0,11.7-0.3,17-1.2,22.8c-8,52.5-39.4,95.9-86.4,119.6
		c-16.2,8.2-30.1,12.7-47.8,15.4C-345-1439.8-365.4-1439.1-374.1-1440z M-343.9-1453.1c31.4-3,62.2-17.4,85.4-39.9
		c25.6-24.8,40.9-55.8,44.7-90.6c0.8-7.8,0.8-23.1,0-30.9c-5.5-50.3-36.1-94.1-81.7-116.5c-22.3-11-47.2-15.9-73.2-14.5
		c-71,3.9-129.3,59.6-137,131c-0.8,7.7-0.8,22.2,0,30.5c4.3,42.7,27.7,81.9,63.6,106.5c19.1,13.2,43.7,22.1,66.4,24.4
		C-363.7-1451.9-356.5-1451.9-343.9-1453.1z"/>
	<path d="M-370.3-1526.4c-9.5-2.2-18.1-7.2-26-15c-7.3-7.2-9.9-13.1-11.7-26.3l-0.4-2.7h13.7h13.7l0.2,1.4c0.2,0.7,0.5,2.5,0.7,3.9
		c0.9,5.5,5.5,10.8,12.2,14c2.9,1.4,4.3,1.6,8.7,1.6c6.8,0,11.3-2,15-6.6c3.2-4.1,4.1-6.7,4.1-12.7c0-8-1.3-10.2-14.5-23.6
		c-8.7-8.9-11.5-12.1-12.9-15c-1.9-4.1-2-4.4-1.7-19.8l0.1-8.6h9.3h9.3l0.2,6.4c0.2,5.2,0.6,7,1.8,9.8c1.8,3.9,2.4,4.6,14.8,16.2
		c9.7,9.2,14.6,14.8,17.2,20c4.8,9.7,4.5,25.1-0.7,36.2c-4.4,9.1-14.6,17.2-26.1,20.3C-348.5-1525.5-364.9-1525.2-370.3-1526.4z"/>
	<path d="M-366.3-1647.9c-3.6-1.4-6.5-3.6-8.4-6.5c-4.7-7.1-3.9-15.1,1.9-20.8c3.5-3.4,6.4-4.6,11.8-4.8c3.7-0.2,5.4,0,7.5,1
		c10.7,4.7,14,17.7,6.6,26c-3.6,4.1-7.8,5.9-13.2,5.9C-362.4-1647.1-365.3-1647.5-366.3-1647.9z"/>
</g>
</svg>
