<?xml version="1.0" encoding="utf-8"?>
<!DOCTYPE svg PUBLIC "-//W3C//DTD SVG 1.1//EN" "http://www.w3.org/Graphics/SVG/1.1/DTD/svg11.dtd">
<svg version="1.1" xmlns="http://www.w3.org/2000/svg" xmlns:xlink="http://www.w3.org/1999/xlink" x="0px" y="0px"
	 width="32px" height="25.6px" viewBox="48 698.1 32 25.6" enable-background="new 48 698.1 32 25.6" xml:space="preserve">
<g transform="translate(0.000000,580.000000) scale(0.100000,-0.100000)">
	<path d="M497.3-1183.2c-7.9-2.1-14.3-9.1-15.6-17c-0.4-2-0.4-15-0.4-41c0.2-37.2,0.2-38.2,1.1-41.7c2.3-8.6,6.1-16.8,10.4-22.5
		c1.5-1.9,29.3-30.1,64.5-65.2c50.1-50.1,62.3-62,64-62.8c6.8-3.1,12.8-3,19.5,0.2c3.3,1.6,4.6,2.9,46.4,44.9
		c39.5,39.6,43.2,43.5,44.7,46.4c3.3,6.2,3.3,12.8,0.1,19.4c-1.7,3.3-3,4.7-63.9,65.4c-34.5,34.3-63.5,62.8-65,63.9
		c-5.4,3.8-13.6,7.5-21.5,9.6c-3.5,0.9-4.3,0.9-42.6,1.1C503.5-1182.5,499.9-1182.5,497.3-1183.2z M540.3-1215.2
		c3.7-1,6.5-2.6,9.5-5.7c3-3,4.7-5.8,5.7-9.5c1.3-5.2,0.6-11.4-1.9-15.9c-1.5-2.8-5.8-7-8.5-8.5c-6.3-3.4-14.7-3.3-20.9,0.1
		c-2.9,1.7-6.8,5.6-8.3,8.4c-3.3,6.1-3.3,14.5,0,20.6c1.5,2.8,5.8,7,8.6,8.5C529-1214.6,535.2-1213.9,540.3-1215.2z"/>
	<path d="M607.5-1183.3c7.7-1.7,17.5-5.9,23.5-10.3c3.2-2.3,125-123.9,126.7-126.6c4.4-6.5,4.7-15.3,1-22.6
		c-0.8-1.7-11.2-12.3-41.5-42.7l-40.4-40.5l2-2.1c2.7-2.7,7-5.8,9.4-6.6c2.7-1,7.7-1.3,10.9-0.7c1.5,0.3,4.2,1.2,6,2.1
		c3.3,1.6,4.5,2.9,46.4,44.9c23.7,23.8,43.4,43.9,44,44.6c1.5,2.2,2.8,6.3,3.1,9.5c0.4,4-0.4,7.6-2.3,11.7
		c-1.6,3.3-3.1,4.8-63.8,65.3c-34.5,34.3-63.5,62.8-65,63.9c-3.8,2.8-10.7,6.1-16.1,7.9c-7.6,2.5-11.1,2.9-30.5,2.8l-17.2,0
		L607.5-1183.3z"/>
</g>
</svg>
