<?xml version="1.0" encoding="utf-8"?>
<!DOCTYPE svg PUBLIC "-//W3C//DTD SVG 1.1//EN" "http://www.w3.org/Graphics/SVG/1.1/DTD/svg11.dtd">
<svg version="1.1" xmlns="http://www.w3.org/2000/svg" xmlns:xlink="http://www.w3.org/1999/xlink" x="0px" y="0px"
	 width="30px" height="30px" viewBox="225 245 30 30" enable-background="new 225 245 30 30" xml:space="preserve">
<g transform="translate(0.000000,500.000000) scale(0.100000,-0.100000)">
	<path fill="#0055BD" d="M2367.4,2544.5c-6.6-1.9-11.5-6.7-12.7-12.4c-0.8-3.7-2.8-16.4-4-25.1c-0.5-3.5-1-6.5-1.1-6.6
		c-0.1-0.1-1.7-1-3.5-2c-1.9-1-4.9-2.9-6.8-4.3c-3.4-2.4-3.4-2.4-5.6-1.5c-28.6,12-29.7,12.4-36.2,10.8c-4.6-1.1-8.8-3.7-11.1-6.8
		c-3.4-4.6-28.7-49.9-29.4-52.6c-0.7-2.6-0.7-3.6,0.1-7c1.5-6.7,3.7-9.2,17.6-19.8c7.6-5.8,12.3-9.7,12.2-10.3
		c0-0.6-0.1-4.5-0.1-8.8l-0.1-7.7l-7-5.7c-3.9-3.1-9.5-7.7-12.4-10c-6.1-5-8.3-8.1-9.4-13.1c-0.8-4-0.2-8,2-12.4
		c2-3.9,25-44.1,26.9-47.1c2.5-3.7,5.6-5.8,10.4-7c5.8-1.3,8.5-0.7,25.3,6.1l14,5.6l7.1-4l7.1-4l0.7-3.8c0.4-2.1,1.4-8.2,2.2-13.5
		c0.8-5.3,1.8-11.3,2.2-13.3c1.1-5.9,6.1-11.1,11.9-12.7c4.6-1.3,59.9-1.3,64.5-0.1c4,1.1,8.2,3.9,10.3,7.1c2,2.9,2.4,4.7,4.9,21.4
		c1,6.8,2,12.8,2.1,13.5c0.2,0.7,1.3,1.7,2.5,2.3s4.4,2.4,7.1,4l4.9,2.9l13.4-5.5c17-6.8,19.2-7.4,24.1-6.5
		c4.2,0.8,8.6,3.3,10.8,6.1c0.8,1.1,7.7,13,15.4,26.4c15.7,27.5,16.3,29,15,35.8c-1.3,6.3-2.5,7.6-17.9,18.3l-13.7,9.5l0.2,8.7
		l0.2,8.8l10.7,8.5c5.9,4.7,11.9,9.9,13.5,11.6c4.4,4.7,5.7,10.7,3.8,17.2c-1,3.2-27.7,50.4-29.9,52.9c-3.8,4.1-10.4,6.2-16.6,5
		c-2-0.4-10-3.2-17.7-6.3l-14-5.7l-2.7,1.7c-1.5,0.9-4.7,2.8-7.3,4.1c-2.5,1.4-4.5,2.7-4.5,2.9c0,0.2-0.8,5.8-1.8,12.4
		c-1,6.5-1.9,12.8-1.9,13.7c0,1-0.4,3.6-0.9,5.8c-1.4,6.4-5.5,10.4-12.5,12.2c-2.3,0.7-9.5,0.8-30.9,0.8
		C2374.3,2545.5,2370.7,2545.4,2367.4,2544.5z M2420.6,2521.8c0-0.3,0.5-3.5,1.2-7.3c0.6-3.7,1.6-9.9,2.1-13.8
		c1.2-9.4,2-12.7,3.5-14.8c1.7-2.4,2.6-3,10.3-7.1c3.6-1.9,8.9-5,11.8-6.9c6.3-4.3,9.3-5.2,13.4-4c1.7,0.4,9.4,3.4,17.2,6.5
		l14.2,5.7l10.9-19.1c9.5-16.7,10.8-19.3,10-19.9c-9.8-7.7-25.1-20.5-25.7-21.5c-1.5-2.3-2.3-6.5-1.7-9.2c0.8-3.3,0.7-14.5-0.1-19.5
		c-0.8-5.7,0.1-10,2.7-12.7c1.1-1.1,7.8-6.1,14.9-11c7.2-4.9,13-9.1,13-9.4c0-0.4-21.2-37.9-21.9-38.8c-0.1-0.1-6.3,2.3-13.9,5.3
		c-7.6,3-15.1,5.9-16.7,6.3c-4.3,1.2-7.7,0.2-13.4-3.7c-2.6-1.7-8-4.9-12.2-7.1c-7.4-4-10.2-6.2-11.3-9.2c-0.3-0.8-1.6-8.3-3-16.8
		c-1.3-8.5-2.5-15.6-2.7-15.8c-0.4-0.5-45.8-0.7-45.8-0.2c0,0.9-3.2,21.7-4.2,27.2c-1.6,8.5-2.3,9.3-13.1,15.2
		c-4.6,2.5-10.1,5.8-12.2,7.3c-4.9,3.5-8.6,4.4-12.8,3.2c-1.6-0.4-9.2-3.3-16.7-6.3c-7.5-3.1-13.9-5.5-14.2-5.3
		c-0.3,0.1-5.4,8.6-11.3,19l-10.7,18.8l1.9,1.6c1.1,0.9,6.8,5.6,12.8,10.5c6,4.8,11.3,9.4,11.9,10.1c1.9,2.7,2.2,5.6,1.4,12.2
		c-0.7,5.3-0.7,7.4,0.1,13.6c1.2,10,0.7,12.3-3.3,16.3c-1.7,1.6-8.1,6.8-14.3,11.4s-11.3,8.6-11.3,8.8c0,0.5,21.1,37.3,21.8,38.2
		c0.5,0.5,3.9-0.7,14.2-5c7.4-3.2,14.9-6.1,16.6-6.5c4.6-1.2,7.5-0.2,15.8,5.4c3.8,2.6,9.4,5.9,12.4,7.3c6.4,3,8.1,5,9.2,10.4
		c0.5,2.6,4.9,30.2,4.9,31c0,0.1,10,0.2,22.2,0.2C2410.6,2522.2,2420.6,2522,2420.6,2521.8z"/>
	<path fill="#0055BD" d="M2392.4,2457.7c-10.3-1.9-18.4-4.9-24.5-8.9c-13.4-8.9-21.7-20.3-25.3-34.9c-3-11.7-2.9-17.6,0.1-30
		c3.1-12.9,12.4-25.6,24.7-33.7c11.4-7.6,26.6-11,39.5-8.9c11.4,1.9,18.8,4.9,26.9,11c15,11.2,23.1,26.6,23.8,45.4
		c0.2,7.3,0.1,8.3-1.6,14.9c-2,7.9-4.3,13.1-8,18.6c-11.2,16.5-28,25.9-47.3,26.5C2397,2457.8,2393.2,2457.8,2392.4,2457.7z
		 M2410.3,2433.1c10.9-4.1,19.3-12.7,23-23.6c1.1-3.2,1.3-5.2,1.3-10.6c-0.1-5.8-0.2-7.1-1.9-11.2c-3.5-8.9-9.5-15.8-17.3-19.9
		c-7.1-3.7-9.6-4.3-17.5-4c-6.4,0.2-7.4,0.4-11.6,2.3c-9.7,4.3-16.3,11-20.3,20.4c-1.6,3.8-2,5.5-2.2,10.6c-0.4,7.4,0.4,11,3.5,17.5
		c3.5,7.3,9.2,13,16.8,16.6c3.1,1.5,7.1,3,8.9,3.3C2398,2435.5,2405.7,2434.8,2410.3,2433.1z"/>
</g>
</svg>
