<?xml version="1.0" encoding="utf-8"?>
<!DOCTYPE svg PUBLIC "-//W3C//DTD SVG 1.1//EN" "http://www.w3.org/Graphics/SVG/1.1/DTD/svg11.dtd">
<svg version="1.1" xmlns="http://www.w3.org/2000/svg" xmlns:xlink="http://www.w3.org/1999/xlink" x="0px" y="0px"
	 width="25.7px" height="31.7px" viewBox="168.9 989.2 25.7 31.7" enable-background="new 168.9 989.2 25.7 31.7"
	 xml:space="preserve">
<g transform="translate(0.000000,1170.000000) scale(0.100000,-0.100000)">
	<path d="M1752.3,1806.4c-0.4-0.5-14.7-14.9-31.7-31.9l-31-31l0.1-115.1l0.1-115.1l0.6-2.3c0.9-3.2,3.2-7.6,5.3-10.1
		c3.2-3.8,8.2-6.9,13.2-8.4l2.3-0.6l46.8-0.1l46.8-0.1l9.8,9.8c5.4,5.4,9.8,9.9,9.7,9.9c-0.1,0-25.7,0.2-57,0.4
		c-31.3,0.1-57,0.3-57,0.4c-0.1,0.1-0.2,49.2-0.3,109.3l-0.2,109.2l16.4,0.1c13.8,0.1,16.9,0.2,19.4,0.6
		c11.1,1.8,16.8,6.6,19.2,15.9c1.1,4.3,1.3,7.8,1.3,24.4v15.6h80h80l-0.2-53.5c-0.1-29.4-0.2-68.8-0.3-87.5l-0.2-34l9.5,9.7l9.5,9.7
		v9.2c0,5.1,0.2,39.2,0.5,75.7c0.3,51.8,0.4,67,0.1,68.6c-1.6,10.3-8.7,18.2-18.9,21.1l-2.3,0.7l-85.4,0.1l-85.4,0.1L1752.3,1806.4z
		"/>
	<path d="M1821.7,1615.3l-17-17l32-32c17.6-17.6,32-32.1,32-32.1c0-0.1-7.2-7.4-16.1-16.3l-16.1-16.1l23.6,0.2
		c13,0.1,35.4,0.3,49.8,0.3l26.2,0.2v49.3c0,27.1-0.1,49.3-0.2,49.3c-0.1,0-7.5-7.4-16.5-16.3c-9-9-16.4-16.3-16.5-16.3
		c-0.1,0-14.6,14.4-32.1,32l-32,32L1821.7,1615.3z"/>
</g>
</svg>
