<?xml version="1.0" encoding="utf-8"?>
<!DOCTYPE svg PUBLIC "-//W3C//DTD SVG 1.1//EN" "http://www.w3.org/Graphics/SVG/1.1/DTD/svg11.dtd" >
<svg version="1.1" xmlns="http://www.w3.org/2000/svg" xmlns:xlink="http://www.w3.org/1999/xlink" x="0px" y="0px" width="100px" height="100px"
	 viewBox="0 0 100 100" enable-background="new 0 0 100 100" xml:space="preserve">
<path fill-rule="evenodd" clip-rule="evenodd" fill="#F29221" d="M16.207,3.946h67.586c6.776,0,12.27,5.494,12.27,12.27v67.57
	c0,6.777-5.493,12.27-12.27,12.27H16.207c-6.776,0-12.27-5.493-12.27-12.27v-67.57C3.938,9.439,9.431,3.946,16.207,3.946z"/>
<path fill-rule="evenodd" clip-rule="evenodd" fill="#FFFFFF" d="M74.358,48.715c-1.393,1.394-4.11,4.114-6.314,6.32
	c2.199,2.201,4.899,4.904,6.286,6.292c0.54,0.541,0.918,1.357,0.918,2.128c0,3.353,0,7.865,0,11.11c0,1.256-0.265,1.424-1.516,1.424
	c-4.322,0-4.363-0.003-5.269-0.003c0-2.152,0-5.33,0-8.448c0-1.081-0.17-1.58-0.91-2.331c-1.191-1.21-4.532-4.582-5.744-5.814
	c-0.66-0.67-1.622-0.967-2.46-0.967c-4.175,0-15.817,0-18.692,0c-0.837,0-1.8,0.297-2.46,0.967
	c-1.212,1.231-4.552,4.604-5.744,5.814c-0.739,0.751-0.91,1.25-0.91,2.331c0,2.711,0,4.619,0,6.916c0,1.228-0.327,1.555-1.579,1.555
	c-0.68,0-0.916,0.002-5.251,0.002c0-2.598,0-8.483,0-12.557c0-0.771,0.378-1.587,0.918-2.128c1.392-1.393,4.105-4.11,6.307-6.315
	c-2.199-2.202-4.903-4.908-6.291-6.297c-0.541-0.542-0.918-1.358-0.918-2.128c0-4.075,0-19.95,0-22.548
	c6.085,0,5.801,0.004,6.817,0.004c0,2.152,0,15.333,0,18.452c0,1.081,0.17,1.58,0.91,2.331c1.191,1.21,4.531,4.582,5.744,5.813
	c0.66,0.671,1.623,0.967,2.46,0.967c4.148,0,15.705,0,18.687,0c0.837,0,1.8-0.297,2.46-0.967c1.212-1.231,4.552-4.604,5.743-5.813
	c0.74-0.751,0.91-1.25,0.91-2.331c0-3.118,0-16.3,0-18.452c1.015,0,0.731-0.004,6.816-0.004c0,2.599,0,18.474,0,22.548
	C75.276,47.357,74.899,48.173,74.358,48.715z"/>
<path fill-rule="evenodd" clip-rule="evenodd" fill="#FFFFFF" d="M38.667,36.897h5.05v5.029h-5.05V36.897z"/>
<path fill-rule="evenodd" clip-rule="evenodd" fill="#FFFFFF" d="M57.322,36.897h5.05v5.029h-5.05V36.897z"/>
<path fill-rule="evenodd" clip-rule="evenodd" fill="#FFFFFF" d="M38.667,27.615h5.05v5.029h-5.05V27.615z"/>
<path fill-rule="evenodd" clip-rule="evenodd" fill="#FFFFFF" d="M57.344,27.615h5.05v5.029h-5.05V27.615z"/>
<path fill-rule="evenodd" clip-rule="evenodd" fill="#FFFFFF" d="M48.017,36.919h5.05v5.029h-5.05V36.919z"/>
<path fill-rule="evenodd" clip-rule="evenodd" fill="#FFFFFF" d="M48.017,27.615h5.05v5.029h-5.05V27.615z"/>
<path fill-rule="evenodd" clip-rule="evenodd" fill="#B14C26" d="M31.887,81.055c-2.226,0-4.086-1.547-4.577-3.623h3.729
	c1.055,0,1.91-0.855,1.91-1.909v-3.758c2.087,0.482,3.645,2.348,3.645,4.583C36.594,78.947,34.487,81.055,31.887,81.055z"/>
<path fill-rule="evenodd" clip-rule="evenodd" fill="#B14C26" d="M75.64,81.055c-2.218,0-4.072-1.536-4.571-3.6h3.723
	c1.055,0,1.91-0.855,1.91-1.91v-3.78c2.088,0.482,3.645,2.348,3.645,4.583C80.347,78.947,78.24,81.055,75.64,81.055z"/>
</svg>
