<?xml version="1.0" encoding="utf-8"?>
<!DOCTYPE svg PUBLIC "-//W3C//DTD SVG 1.1//EN" "http://www.w3.org/Graphics/SVG/1.1/DTD/svg11.dtd">
<svg version="1.1" xmlns="http://www.w3.org/2000/svg" xmlns:xlink="http://www.w3.org/1999/xlink" x="0px" y="0px"
	 width="32px" height="32px" viewBox="166 883.9 32 32" enable-background="new 166 883.9 32 32" xml:space="preserve">
<g transform="translate(0.000000,1000.000000) scale(0.100000,-0.100000)">
	<path d="M1809,1159.6c-10.8-0.9-18.5-2.1-27.4-4.4c-28.9-7.1-54.5-21.9-75.6-43.4c-7.7-7.9-12.7-14.1-18.8-23.2
		c-14.1-21.3-22.4-44.1-25.5-70.3c-0.8-7.2-0.8-27.3,0-34.5c3.9-32.5,16-60.6,36.9-85.5c3.3-4,11.7-12.5,15.9-16.2
		c11.1-9.7,23.8-18.2,36.7-24.3c16-7.7,32.7-12.4,51.2-14.6c7.2-0.8,27.3-0.8,34.5,0c33.5,4,62.9,17,87.9,38.9
		c10,8.8,19.6,19.8,27.3,31.4c14.2,21.4,22.4,44,25.5,70.4c0.8,7,0.8,27.2,0,34.4c-3.9,32.5-16,60.6-36.9,85.5
		c-3.3,4-11.7,12.5-15.9,16.2c-11.1,9.7-23.8,18.2-36.7,24.3c-15.9,7.6-32.8,12.4-50.9,14.6C1832.8,1159.5,1813,1159.9,1809,1159.6z
		 M1836.8,1133.2c13.5-1.6,21-3.6,34.3-9.3c8.2-3.4,19.7-9.8,25.8-14.2c9.1-6.6,21.6-18.8,29.3-28.6c10.6-13.6,21.6-37.9,24.2-53.4
		c1.7-10,2-14,2-26.6s-0.3-16.6-2-26.6c-2.4-14.3-12.3-36.8-22.1-50.5c-6.6-9.2-18.8-21.7-28.7-29.4c-13.6-10.6-37.9-21.6-53.4-24.2
		c-10-1.7-14-2-26.6-2c-12.7,0-16.6,0.3-26.6,2c-15.5,2.6-39.8,13.6-53.4,24.2c-8.8,6.8-19.7,17.7-26.5,26.5
		c-10.6,13.6-21.6,37.9-24.2,53.4c-1.7,10-2,14-2,26.6s0.3,16.6,2,26.6c2.4,14.2,12.3,36.8,22.1,50.5c6.6,9.2,18.8,21.7,28.6,29.4
		c11.3,8.8,30.8,18.3,46.5,22.7c3.8,1.1,12.1,2.4,18.1,3c2.1,0.2,4.5,0.4,5.2,0.5C1813,1134.1,1832.5,1133.7,1836.8,1133.2z"/>
</g>
<path d="M176,896.3c0,0,0,0.6,0,1.4v1.4h1.4h1.4v-1.4v-1.4h-1.4C176.6,896.3,176,896.3,176,896.3z"/>
<path d="M180.6,897.7v1.4l1.4,0l1.4,0l0-1.3c0-0.7,0-1.3,0-1.4l0-0.1H182h-1.4V897.7L180.6,897.7z"/>
<path d="M185.3,896.3c0,0,0,0.6,0,1.4v1.4h1.4h1.4l0-1.4l0-1.4l-1.4,0C185.9,896.3,185.3,896.3,185.3,896.3z"/>
<path d="M176,902.4l0,1.4l1.4,0l1.4,0v-1.4V901h-1.4H176L176,902.4z"/>
<path d="M180.6,902.4v1.4l1.4,0l1.4,0v-1.4V901l-1.4,0l-1.4,0V902.4L180.6,902.4z"/>
<path d="M185.3,902.4v1.4h1.4h1.4v-1.4V901h-1.4h-1.4V902.4z"/>
</svg>
