<?xml version="1.0" encoding="utf-8"?>
<!DOCTYPE svg PUBLIC "-//W3C//DTD SVG 1.1//EN" "http://www.w3.org/Graphics/SVG/1.1/DTD/svg11.dtd">
<svg version="1.1" xmlns="http://www.w3.org/2000/svg" xmlns:xlink="http://www.w3.org/1999/xlink" x="0px" y="0px"
	 width="31.7px" height="31px" viewBox="306.3 1004.4 31.7 31" enable-background="new 306.3 1004.4 31.7 31" xml:space="preserve">
<g transform="translate(0.000000,1200.000000) scale(0.100000,-0.100000)">
	<path d="M3106.1,1952.9c-4-1.5-5.1-2-7.6-3.6c-5.2-3.4-8.3-7.8-10.5-14.7l-0.8-2.7l-10.9-131.4c-9.8-117.8-10.9-131.5-10.7-133.2
		c0.7-4.5,2.9-8.6,6.5-12.3c3.8-3.9,8.1-6.1,12.8-6.8c1.6-0.2,38.4-0.3,138.4-0.2c131,0.1,136.3,0.1,137.9,0.6
		c3.9,1.2,7.1,3.1,10.1,6c4,3.9,6.6,8.8,7,13.5c0.1,1.1-3.4,44.1-10.8,133c-10.2,122.4-11,131.5-11.7,133.8
		c-2.9,10-8.8,15.6-19.3,18.5l-2,0.5l-112.8,0h-112.8L3106.1,1952.9z M3148.8,1937c13.5-11.3,28.8-19.2,45.4-23.4
		c13.9-3.5,27.9-4.3,42-2.5c21.7,2.8,41.5,11.5,58.7,25.9l2.7,2.2h17.9h17.9l2.4-1.2c2.9-1.4,4.3-2.8,5.4-5.6l0.8-1.9l10.9-130.7
		c10.8-130.4,10.9-130.7,10.4-131.8c-0.7-1.5-3.2-4.1-4.7-4.9l-1.3-0.6h-135.4h-135.4l-1.3,0.6c-1.7,0.8-3.9,3.1-4.6,4.7l-0.5,1.2
		l10.9,130.6l10.9,130.6l1.1,2.3c1.3,2.8,2.5,4,5.6,5.5l2.4,1.2h17.7h17.7L3148.8,1937z M3272.3,1938.7c-0.4-0.3-5.9-3.3-8.3-4.4
		c-7.9-3.7-16-6.5-21.9-7.6c-12.3-2.3-25.7-2.4-38.3-0.4c-5.2,0.9-10.4,2.4-17.2,5c-3.4,1.3-12.3,5.7-14.4,7l-1.1,0.7l50.7,0
		C3251.2,1939,3272.4,1938.9,3272.3,1938.7z"/>
	<path d="M3139.3,1786.3v-50.9l10.9-10.9l10.9-10.9h61.9h61.9l10.9,10.9l10.9,10.9v50.9v50.9l-10.9-0.1l-10.9-0.1l-0.1-43.7
		l-0.1-43.7l-7.1-7.1l-7.2-7.2H3223h-47.5l-7.2,7.2l-7.1,7.1v43.7v43.7h-10.9h-10.9C3139.3,1837.2,3139.3,1786.3,3139.3,1786.3z"/>
	<path d="M3175.8,1815.4c-0.1-0.1-0.2-5-0.2-10.9v-10.8h10.9h10.9v10.9v10.9h-10.8C3180.8,1815.6,3175.9,1815.5,3175.8,1815.4z"/>
	<path d="M3212.2,1804.7v-10.9l10.9,0.1l10.9,0.1l0.1,10.3c0,5.7,0,10.5-0.1,10.9l-0.1,0.6H3223h-10.8V1804.7L3212.2,1804.7z"/>
	<path d="M3248.7,1815.4c-0.1-0.1-0.2-5-0.2-10.9v-10.8h10.9h10.9l-0.1,10.9l-0.1,10.9l-10.7,0.1
		C3253.7,1815.6,3248.8,1815.5,3248.7,1815.4z"/>
	<path d="M3175.7,1768.2l0.1-10.9l10.9-0.1l10.9-0.1v10.9v10.9h-10.9h-10.9L3175.7,1768.2z"/>
	<path d="M3212.2,1768.1v-10.9l10.9,0.1l10.9,0.1v10.8v10.8l-10.9,0.1l-10.9,0.1V1768.1z"/>
	<path d="M3248.5,1768.1v-10.9h10.9h10.9v10.9v10.9h-10.9h-10.9V1768.1z"/>
</g>
</svg>
