<?xml version="1.0" encoding="utf-8"?>
<!DOCTYPE svg PUBLIC "-//W3C//DTD SVG 1.1//EN" "http://www.w3.org/Graphics/SVG/1.1/DTD/svg11.dtd">
<svg version="1.1" xmlns="http://www.w3.org/2000/svg" xmlns:xlink="http://www.w3.org/1999/xlink" x="0px" y="0px"
	 width="32px" height="29.6px" viewBox="156 873.9 32 29.6" enable-background="new 156 873.9 32 29.6" xml:space="preserve">
<g transform="translate(0.000000,1000.000000) scale(0.100000,-0.100000)">
	<path d="M1561.1,1113.3V966.4h159h159v5.8v5.8h-3.5c-72.6,0.1-302,0.8-302.1,0.9c-0.1,0.1-0.2,63.4-0.3,140.7l-0.1,140.5h-6h-6
		V1113.3z"/>
	<path d="M1671.3,1255.7c-0.1-2.4-0.2-60.2-0.2-128.5v-124.2h30.7h30.7v122.1c0,67.1-0.1,124.9-0.2,128.5l-0.2,6.4h-30.2h-30.2
		L1671.3,1255.7z"/>
	<path d="M1597.8,1094.9v-91.8h30.5h30.5v91.8v91.8h-30.5h-30.5V1094.9z"/>
	<path d="M1744.7,1113.2c-0.1-0.1-0.2-24.9-0.2-55.2v-54.9h30.7h30.7v55.2v55.2h-30.4C1758.6,1113.4,1744.8,1113.3,1744.7,1113.2z"
		/>
	<path d="M1817.9,1036.9c0.1-1.6,0.2-9.8,0.2-18.3v-15.5h30.5h30.5v18.3v18.3h-30.7h-30.7L1817.9,1036.9z"/>
</g>
</svg>
