<?xml version="1.0" encoding="utf-8"?>
<!-- Generator: Adobe Illustrator 18.0.0, SVG Export Plug-In . SVG Version: 6.00 Build 0)  -->
<!DOCTYPE svg PUBLIC "-//W3C//DTD SVG 1.1//EN" "http://www.w3.org/Graphics/SVG/1.1/DTD/svg11.dtd">
<svg version="1.1" xmlns="http://www.w3.org/2000/svg" xmlns:xlink="http://www.w3.org/1999/xlink" x="0px" y="0px"
	 width="61px" height="65px" viewBox="-2498.8 1779.7 29.6 32" enable-background="new -2498.8 1779.7 29.6 32"
	 xml:space="preserve">
<g transform="translate(0.000000,756.000000) scale(0.100000,-0.100000)">
	<path fill="#747576" d="M-24948.3-10239c-31.5,0-36.9-5.7-36.9-36.8c0-31.1,0-202.6,0-229.1s10.3-36.8,36.9-36.8
		c26.6,0,125.8-0.3,125.8-0.3l-2.3,2.6c-1.2,1.4-3.2,3.8-4.3,5.3l-2.1,2.7c0,0-90.6,0.1-117,0.1c-26.4,0-26.4,14.7-26.4,26.4
		c0,11.7,0,204,0,229.1s1.2,26.4,26.4,26.4c25.3,0,91.8,0,97,0c6.7,0,13.2-2.9,13.2-8.8c0-5.9,0-33.3,0-33.3s0-17.4,0-22.3
		c0-4.9,3.8-8.8,8.8-8.8c5,0,51.1,0,56,0c4.8,0,8.8-6.2,8.8-13.2s0-66,0-66l10.6-0.7c0,0,0,41.4,0,58.2s-1.5,20.6-1.5,20.6
		c-6.1,12.1-44.3,52.5-69.8,73.7c-6.1,5.1-12.2,11-21.9,11C-24856.8-10239-24916.9-10239-24948.3-10239z"/>
	<path fill="#747576" d="M-24937.2-10291.3c-2.7,0-4.4-1.7-4.4-4.4c0-2.7,0-37.2,0-39.7c0-2.6,1.7-4.4,4.4-4.4c2.7,0,47.6,0,50.3,0
		c2.7,0,4.4,1.4,4.4,4.4c0,3,0,36.7,0,39.7c0,3.1-1.8,4.4-4.4,4.4C-24889.5-10291.3-24934.4-10291.3-24937.2-10291.3z
		 M-24892.8-10329.5h-38.3v27.8h38.3V-10329.5z"/>
	<path fill="#747576" d="M-24937.2-10361.4c-2.7,0-4.4-1.8-4.4-4.4s0-111.3,0-113.7s1.9-4.4,4.4-4.4c2.6,0,90.2-0.2,90.2-0.2
		l0.7,12.3h-83.1v24.2h87.7l0.3-5.9c0,0,6.1,12.7,9.3,17.1l2.9,4v21.8h13.7v-8.3c0,0,8.1,5.6,9.6,6.5l2.6,1.2c0,0,0,42.6,0,45.4
		c0,2.8-1.8,4.4-4.4,4.4C-24810.5-10361.4-24934.5-10361.4-24937.2-10361.4z M-24841.7-10398.3h-87.7v24.7h87.7V-10398.3z
		 M-24815.7-10398.3h-13.7v24.7h13.7V-10398.3z M-24841.7-10435.3h-87.7v24.7h87.7V-10435.3z"/>
	<path fill="#F26622" d="M-24771.5-10412.8c-27.4-2.2-51.6-21-60.6-47c-11.6-33.4,2.7-69.7,34.1-86.2c28.5-15,64.2-8.4,85.6,15.8
		c28.3,32,22,81.6-13.5,105.6c-7.4,5-16.8,9-25.5,10.8c-3.2,0.6-12.9,1.6-15,1.5C-24767-10412.4-24769.2-10412.6-24771.5-10412.8z
		 M-24782.4-10451.1c2.8-1.1,6-4.2,7.4-7.3c3-6.7,2.8-19.2-0.3-25.3c-1.5-3-2.9-4.5-5.6-6c-2.2-1.2-2.6-1.3-7-1.3
		c-4.3,0-4.8,0.1-7,1.3c-5.6,3-8,9-8,19.2c0,11.3,3.3,17.8,10.1,19.9C-24790.5-10450-24784.9-10450.2-24782.4-10451.1z
		 M-24743.7-10451.9c-4.9-9.5-34.3-64.4-34.6-64.6c-0.3-0.2-10.1,0-10,0.6c0.1,0.4,34.2,64.7,34.2,64.7
		S-24743.4-10451.2-24743.7-10451.9z M-24737.4-10477.7c5.6-2.9,8.3-9.1,8.2-19.3c0-8.4-1.8-13.7-5.7-17.1c-2.5-2.2-5.4-3.1-9.4-3.1
		c-7.1,0-11.9,4.1-14,11.9c-0.5,2-0.7,4.5-0.7,8.8c0,8.8,1.7,14.1,5.6,17.5c2.5,2.2,5,2.8,9.7,2.7
		C-24740.3-10476.5-24739.2-10476.8-24737.4-10477.7z"/>
	<path fill="#F26622" d="M-24790.1-10461.1c-1.3-1.7-1.6-3.6-1.6-10.1c0-8.2,1.2-10.9,4.5-10.3c2.3,0.4,3.7,7.8,2.9,14.5
		c-0.6,4.8-1.5,6.7-3.5,6.9C-24788.8-10460-24789.4-10460.2-24790.1-10461.1z"/>
	<path fill="#F26622" d="M-24746.5-10487.4c-1.1-1.9-1.5-5-1.2-11.5c0.2-7.2,1.3-9.3,4.5-8.5c1.8,0.4,2.6,3,2.8,8.9
		c0.3,8.4-1,12.6-3.9,12.6C-24745.3-10486-24745.8-10486.3-24746.5-10487.4z"/>
</g>
</svg>
