<?xml version="1.0" encoding="utf-8"?>
<!-- Generator: Adobe Illustrator 18.0.0, SVG Export Plug-In . SVG Version: 6.00 Build 0)  -->
<!DOCTYPE svg PUBLIC "-//W3C//DTD SVG 1.1//EN" "http://www.w3.org/Graphics/SVG/1.1/DTD/svg11.dtd">
<svg version="1.1" xmlns="http://www.w3.org/2000/svg" xmlns:xlink="http://www.w3.org/1999/xlink" x="0px" y="0px"
	 width="920px" height="920px" viewBox="-258 392.9 920 920" enable-background="new -258 392.9 920 920" xml:space="preserve">
<g transform="translate(0.000000,865.000000) scale(0.100000,-0.100000)">
	<path d="M1875,4171.1c-144-27-266-85-371-174l-65-56l-1565-2705c-861-1488-1734-2997-1941-3353c-394-682-420-733-449-900
		c-19-109-14-279,10-372c59-220,222-383,436-436c46-12,725-14,4105-14h4050l80,27c217,74,353,222,401,434c23,103,15,305-16,419
		c-34,126-85,222-452,855c-515,888-2486,4294-3341,5774c-151,261-165,282-225,332C2351,4151.1,2104,4214.1,1875,4171.1z
		 M2231,1974.1c139-69,237-202,259-353c13-92,13-2182,0-2284c-20-155-118-290-259-358c-130-63-297-57-420,14
		c-100,58-173,148-210,260c-21,62-21,75-21,1221c0,1028,2,1164,16,1213c41,141,145,251,286,305c54,21,78,24,169,21
		C2150,2011.1,2161,2009.1,2231,1974.1z M2190-1714.9c205-71,337-293,302-507c-45-270-307-444-567-377c-158,42-288,172-330,330
		c-55,212,49,437,248,534C1951-1681.9,2074-1674.9,2190-1714.9z"/>
</g>
</svg>
