<?xml version="1.0" standalone="no"?>
<!DOCTYPE svg PUBLIC "-//W3C//DTD SVG 20010904//EN"
 "http://www.w3.org/TR/2001/REC-SVG-20010904/DTD/svg10.dtd">
<svg version="1.0" xmlns="http://www.w3.org/2000/svg"
 width="18px" height="18px" viewBox="0 0 1500.000000 1500.000000"
 preserveAspectRatio="xMidYMid meet">
<metadata>
Created by potrace 1.11, written by Peter Selinger 2001-2013
</metadata>
<g transform="translate(0.000000,1500.000000) scale(0.100000,-0.100000)"
fill="#000000" stroke="none">
<path d="M1827 12484 c-208 -37 -383 -129 -532 -279 -129 -129 -214 -275 -264
-454 l-26 -96 0 -3650 0 -3650 22 -87 c110 -429 460 -728 898 -765 l75 -6 0
-51 c1 -244 80 -565 200 -815 106 -219 233 -393 411 -566 168 -162 316 -266
521 -365 696 -336 1525 -240 2128 247 89 72 257 243 321 328 184 240 321 540
378 825 23 115 41 265 41 348 l0 52 1500 0 1500 0 0 -52 c1 -246 80 -567 200
-816 99 -205 203 -353 365 -521 173 -178 347 -305 566 -411 697 -336 1526
-240 2129 247 89 72 257 243 321 328 184 240 321 540 378 825 23 115 41 265
41 348 l0 52 643 0 c726 0 706 -2 782 75 70 70 75 96 75 425 0 329 -5 355 -75
425 -62 62 -110 75 -282 75 l-143 0 0 1773 c0 1770 0 1773 -21 1856 -87 345
-473 974 -944 1542 -153 183 -494 528 -618 624 -119 92 -237 161 -315 185 -62
19 -96 20 -1083 20 l-1018 0 -4 578 c-3 556 -4 580 -25 660 -89 338 -334 602
-659 711 -161 54 60 51 -3822 50 -3031 -1 -3598 -3 -3664 -15z m7173 -4234 l0
-3250 -1837 0 -1838 0 -70 57 c-294 238 -673 393 -1055 433 -512 53 -1052
-108 -1455 -433 l-70 -57 -337 0 -338 0 0 3250 0 3250 3500 0 3500 0 0 -3250z
m2612 1172 c259 -188 548 -454 710 -656 85 -105 232 -324 310 -461 111 -196
274 -545 342 -732 l26 -73 -1500 0 -1500 0 0 1000 0 1000 753 0 752 0 107 -78z
m-7447 -4937 c212 -37 386 -126 536 -275 131 -129 225 -295 271 -477 33 -131
31 -351 -4 -484 -96 -359 -373 -630 -738 -722 -115 -29 -329 -30 -445 -3 -370
86 -655 360 -752 723 -23 86 -26 117 -26 253 0 135 3 167 26 252 134 502 627
821 1132 733z m7000 0 c212 -37 386 -126 536 -275 131 -129 225 -295 271 -477
33 -131 31 -351 -4 -484 -47 -174 -132 -323 -258 -450 -389 -395 -1023 -397
-1415 -4 -130 129 -215 277 -263 454 -22 84 -25 116 -25 251 0 135 3 167 25
251 48 177 133 325 263 454 231 231 553 335 870 280z" fill="#ffffff" />
</g>
</svg>
