<?xml version="1.0" standalone="no"?>
<!DOCTYPE svg PUBLIC "-//W3C//DTD SVG 20010904//EN"
 "http://www.w3.org/TR/2001/REC-SVG-20010904/DTD/svg10.dtd">
<svg version="1.0" xmlns="http://www.w3.org/2000/svg"
 width="450.000000pt" height="500.000000pt" viewBox="0 0 450.000000 500.000000"
 preserveAspectRatio="xMidYMid meet">
<metadata>
Created by potrace 1.11, written by Peter Selinger 2001-2013
</metadata>
<g transform="translate(0.000000,500.000000) scale(0.100000,-0.100000)"
fill="#000000" stroke="none">
<path fill="#f16e68" d="M2175 4723 c-158 -82 -569 -251 -770 -316 -254 -82 -446 -124 -860
-188 -143 -22 -268 -42 -277 -45 -23 -7 -23 -39 -3 -489 19 -425 48 -770 75
-900 76 -366 210 -764 339 -1010 156 -298 398 -630 622 -854 112 -112 445
-390 559 -467 76 -51 272 -160 330 -184 l56 -22 64 26 c325 132 861 572 1140
934 344 448 530 834 663 1383 80 327 97 503 133 1406 l7 172 -24 5 c-58 13
-188 36 -234 41 -165 21 -445 72 -600 110 -321 79 -629 192 -1029 379 -54 25
-108 46 -120 46 -11 -1 -43 -13 -71 -27z m425 -663 c280 -111 674 -222 1014
-284 l119 -22 -2 -104 c-3 -204 -33 -598 -57 -760 -40 -261 -154 -600 -300
-892 -50 -99 -177 -298 -273 -428 -164 -222 -586 -613 -785 -728 l-69 -40 -61
36 c-98 57 -389 296 -531 437 -381 378 -646 859 -794 1438 -39 152 -48 218
-66 452 -17 227 -35 578 -30 584 2 2 59 14 127 26 465 88 870 213 1271 393
l88 39 102 -45 c56 -24 167 -70 247 -102z"/>
<path fill="#f16e68" d="M1618 3342 c-142 -142 -152 -113 139 -404 l238 -238 -238 -238 c-291
-291 -281 -262 -139 -404 142 -142 113 -152 404 139 l238 238 238 -238 c291
-291 262 -281 404 -139 142 142 152 113 -139 404 l-238 238 238 238 c291 291
281 262 139 404 -142 142 -113 152 -404 -139 l-238 -238 -238 238 c-291 291
-262 281 -404 139z"/>
</g>
</svg>
