<?xml version="1.0" standalone="no"?>
<!DOCTYPE svg PUBLIC "-//W3C//DTD SVG 20010904//EN"
 "http://www.w3.org/TR/2001/REC-SVG-20010904/DTD/svg10.dtd">
<svg version="1.0" xmlns="http://www.w3.org/2000/svg"
 width="450.000000pt" height="500.000000pt" viewBox="0 0 450.000000 500.000000"
 preserveAspectRatio="xMidYMid meet">
<metadata>
Created by potrace 1.11, written by Peter Selinger 2001-2013
</metadata>
<g transform="translate(0.000000,500.000000) scale(0.100000,-0.100000)"
fill="#000000" stroke="none">
<path fill="#f7ac01" d="M2175 4723 c-158 -82 -569 -251 -770 -316 -254 -82 -446 -124 -860
-188 -143 -22 -268 -42 -277 -45 -23 -7 -23 -39 -3 -489 19 -425 48 -770 75
-900 76 -366 210 -764 339 -1010 156 -298 398 -630 622 -854 112 -112 445
-390 559 -467 76 -51 272 -160 330 -184 l56 -22 64 26 c325 132 861 572 1140
934 344 448 530 834 663 1383 80 327 97 503 133 1406 l7 172 -24 5 c-58 13
-188 36 -234 41 -165 21 -445 72 -600 110 -321 79 -629 192 -1029 379 -54 25
-108 46 -120 46 -11 -1 -43 -13 -71 -27z m425 -663 c280 -111 674 -222 1014
-284 l119 -22 -2 -104 c-3 -204 -33 -598 -57 -760 -40 -261 -154 -600 -300
-892 -50 -99 -177 -298 -273 -428 -164 -222 -586 -613 -785 -728 l-69 -40 -61
36 c-98 57 -389 296 -531 437 -381 378 -646 859 -794 1438 -39 152 -48 218
-66 452 -17 227 -35 578 -30 584 2 2 59 14 127 26 465 88 870 213 1271 393
l88 39 102 -45 c56 -24 167 -70 247 -102z"/>
<path fill="#f7ac01" d="M2150 3389 c-123 -11 -260 -36 -351 -65 -77 -24 -79 -26 -79 -57 0
-18 -7 -124 -15 -236 -8 -112 -14 -206 -12 -207 5 -5 248 -34 282 -34 l31 0
37 126 c20 70 43 135 52 144 8 9 33 22 54 28 98 30 193 0 246 -76 28 -40 30
-50 30 -131 0 -77 -3 -93 -32 -152 -41 -84 -146 -185 -307 -299 -64 -45 -116
-88 -116 -94 0 -32 41 -169 68 -227 50 -107 40 -103 164 -84 58 8 129 22 158
31 l51 15 -7 95 c-8 115 -9 114 122 183 290 153 425 302 456 504 21 139 -13
261 -98 356 -137 153 -381 213 -734 180z"/>
<path fill="#f7ac01" d="M2140 1829 c-94 -42 -144 -117 -145 -215 0 -50 5 -69 30 -109 98
-157 369 -148 453 15 20 38 23 56 19 113 -6 92 -42 150 -116 189 -68 36 -171
39 -241 7z"/>
</g>
</svg>
