<?xml version="1.0" standalone="no"?>
<!DOCTYPE svg PUBLIC "-//W3C//DTD SVG 1.1//EN" "http://www.w3.org/Graphics/SVG/1.1/DTD/svg11.dtd" >
<svg xmlns="http://www.w3.org/2000/svg">
<metadata>Generated by IcoMoon</metadata>
<defs>
<font id="xcartskin" horiz-adv-x="1024">
<font-face units-per-em="1024" ascent="819.8005865102639" descent="-204.19941348973606" />
<missing-glyph horiz-adv-x="1024" />
<glyph unicode="&#x20;" horiz-adv-x="512.5004887585533" d="" />
<glyph unicode="&#xe900;" glyph-name="chevron-up" d="M1002.151 131.65l-447.67 447.67c-11.5 11.427-26.528 17.213-41.553 17.213-14.947 0-29.973-5.789-41.397-17.139l-448.526-447.042c-22.999-22.85-22.999-60.094-0.156-83.022s60.014-22.926 82.946-0.076l364.647 347.824 86.072-1.565 362.611-346.803c22.999-22.926 60.094-22.926 83.022 0 22.85 22.926 22.85 60.014 0 82.946z" />
<glyph unicode="&#xe901;" glyph-name="bag" d="M819.2 614.4h-76.8c-12.8 121.6-115.2 217.6-236.8 217.6s-224-96-230.4-217.6h-70.4c-44.8 0-76.8-32-76.8-76.8v-646.4c0-51.2 32-83.2 76.8-83.2h608c57.6 0 83.2 32 83.2 83.2v640c0 51.2-32 83.2-76.8 83.2zM505.6 736c70.4 0 128-51.2 134.4-121.6h-268.8c6.4 70.4 64 121.6 134.4 121.6zM224-96v614.4h51.2v-51.2h96v51.2h275.2v-51.2h96v51.2h51.2v-614.4h-569.6z" />
<glyph unicode="&#xe902;" glyph-name="indicator" horiz-adv-x="871" d="M829.386 43.123c0-97.003-78.636-175.639-175.639-175.639s-175.639 78.636-175.639 175.639c0 97.003 78.636 175.639 175.639 175.639s175.639-78.636 175.639-175.639z" />
<glyph unicode="&#xe903;" glyph-name="mail" d="M896.876 647.487h-768.751c-70.757 0-128.125-57.4-128.125-128.125v-416.407c0-70.757 57.368-128.125 128.125-128.125h768.751c70.757 0 128.125 57.368 128.125 128.125v416.407c0 70.725-57.368 128.125-128.125 128.125zM64.066 479.325l224.187-168.164-224.187-168.164v336.327zM960.935 102.958c0-35.363-28.761-64.060-64.060-64.060h-768.751c-35.331 0-64.060 28.698-64.060 64.060l250.869 188.186 139.913-104.967c17.073-12.743 37.348-19.219 57.656-19.219 20.276 0 40.552 6.437 57.624 19.219l139.945 104.967 250.869-188.186zM960.935 142.994l-224.219 168.164 224.219 168.164v-336.327zM550.906 211.796c-11.179-8.392-24.44-12.813-38.406-12.813s-27.259 4.456-38.438 12.813l-410.004 307.564c0 35.331 28.735 64.060 64.060 64.060h768.751c35.298 0 64.060-28.735 64.060-64.060l-410.036-307.564z" />
<glyph unicode="&#xe904;" glyph-name="zoom" d="M589.876 467.34h-197.896v197.896c0 9.869-8.013 17.877-17.877 17.877s-17.877-8.013-17.877-17.877v-197.896h-197.825c-9.893 0-17.877-8.013-17.877-17.877s7.989-17.877 17.877-17.877h197.825v-197.896c0-9.869 8.013-17.877 17.877-17.877s17.877 8.013 17.877 17.877v197.896h197.896c9.869 0 17.877 8.013 17.877 17.877s-8.013 17.877-17.877 17.877v0zM1006.932-164.487l-359.394 359.394c62.287 66.864 100.76 156.206 100.76 254.558 0 206.335-167.862 374.196-374.196 374.196-206.287 0-374.101-167.862-374.101-374.196 0-206.287 167.814-374.173 374.101-374.173 95.111 0 181.783 35.97 247.855 94.633l359.704-359.704c3.48-3.48 8.055-5.22 12.633-5.22s9.159 1.74 12.633 5.22c6.981 6.981 6.981 18.307 0 25.292v0zM374.101 111.045c-186.55 0-338.346 151.843-338.346 338.412 0 186.621 151.795 338.437 338.346 338.437 186.598 0 338.437-151.819 338.437-338.437 0-186.574-151.843-338.412-338.437-338.412v0z" />
<glyph unicode="&#xe905;" glyph-name="power" horiz-adv-x="957" d="M814.87 613.725l-48.068 48.068c-26.516 26.585-69.557 26.585-96.142 0-26.516-26.516-26.516-69.557 0-96.142l48.068-48.068c132.792-132.792 132.792-347.992 0-480.78-132.721-132.721-347.992-132.721-480.78 0-132.721 132.792-132.721 347.992 0 480.78l48.068 48.068c26.585 26.585 26.585 69.626 0 96.142-26.516 26.585-69.557 26.585-96.142 0l-48.068-48.068c-185.897-185.827-185.897-487.243 0-673.056 185.897-185.897 487.243-185.897 673.056 0 185.897 185.827 185.897 487.243 0 673.056v0zM478.367 413.145c37.541 0 67.986 30.462 67.986 67.986v271.975c0 37.604-30.462 67.986-67.986 67.986-37.604 0-67.986-30.397-67.986-67.986v-271.975c0-37.541 30.397-67.986 67.986-67.986v0z" />
<glyph unicode="&#xe906;" glyph-name="person" horiz-adv-x="957" d="M783.375 232.507c22.68 54.872 36.627 115.757 36.627 181.152 0 226.388-152.994 409.997-341.667 409.997-188.731 0-341.667-183.612-341.667-409.997 0-65.395 13.874-126.28 36.559-181.152-105.029-87.74-173.225-217.984-173.225-365.515 0-37.794 30.545-68.402 68.334-68.402 37.722 0 68.334 30.613 68.334 68.402 0 98.196 42.025 186.138 108.379 248.461 61.155-68.88 142.811-111.862 233.29-111.862 90.405 0 172.063 42.982 233.222 111.862 66.352-62.32 108.451-150.265 108.451-248.461 0-37.794 30.545-68.402 68.334-68.402 37.722 0 68.334 30.613 68.334 68.402 0 147.532-68.264 277.775-173.296 365.515v0zM478.339 140.256c-113.231 0-205 122.386-205 273.402 0 150.948 91.772 273.265 205 273.265s205-122.316 205-273.265c0-151.016-91.772-273.402-205-273.402v0z" />
<glyph unicode="&#xe907;" glyph-name="menu" d="M0 604.012c0 26.958 19.562 48.807 44.704 48.807h935.594c24.687 0 44.704-21.663 44.704-48.807 0-26.958-19.562-48.807-44.704-48.807h-935.594c-24.687 0-44.704 21.663-44.704 48.807zM0 311.158c0 26.958 20.267 48.807 44.563 48.807h668.478c24.61 0 44.563-21.663 44.563-48.807 0-26.958-20.267-48.807-44.563-48.807h-668.478c-24.61 0-44.563 21.663-44.563 48.807zM0 18.304c0 26.958 19.562 48.807 44.704 48.807h935.594c24.687 0 44.704-21.663 44.704-48.807 0-26.958-19.562-48.807-44.704-48.807h-935.594c-24.687 0-44.704 21.663-44.704 48.807z" />
<glyph unicode="&#xe908;" glyph-name="wishlist" horiz-adv-x="1153" d="M576.563 692.69c-57.656 79.718-149.906 130.972-253.688 130.972-178.735 0-322.875-142.361-322.875-318.889 0-250.556 576.563-706.112 576.563-706.112s576.563 455.556 576.563 706.112c0 176.528-144.141 318.889-322.875 318.889-103.781 0-196.031-51.25-253.688-130.972z" />
<glyph unicode="&#xe909;" glyph-name="star" horiz-adv-x="1104" d="M551.924-4.227l-324.413-170.554 61.958 361.239-262.455 255.831 362.705 52.7 162.202 328.666 162.202-328.666 362.705-52.7-262.455-255.831 61.958-361.239z" />
<glyph unicode="&#xe90a;" glyph-name="trash" horiz-adv-x="833" d="M300.017 823.659c-40.546 0-73.351-34.127-73.351-75.14v-56.917h-193.857c-18.224 0-32.808-15.365-32.808-33.327s14.585-33.327 32.808-33.327h43.038l23.827-688.493c0-75.594 60.074-137.799 134.228-137.799h365.010c74.136 0 134.228 62.087 134.228 137.174l23.827 689.117h43.038c18.224 0 32.808 15.339 32.808 33.327s-14.584 33.327-32.808 33.327h-177.515v56.917c0 41.020-32.884 75.14-73.476 75.14h-248.996zM300.017 790.583h248.996c10.961 0 12.659-13.412 19.959-20.844-7.328 7.284-8.91 20.345-19.959 20.345h-248.996c-11.026 0-12.529-13.077-19.834-20.345 7.286 7.411 8.933 20.844 19.834 20.844zM300.017 757.007h248.996c4.075 0 7.735-3.468 7.735-8.487v-56.917h-264.34v56.917c0 5.054 3.609 8.487 7.609 8.487zM32.808 658.526h767.22c-0.191 0-0.255 0.319-0.255-0.249s0.056-0.249 0.255-0.249h-767.214c0.128 0 0.255-0.345 0.255 0.249s-0.128 0.249-0.255 0.249zM141.588 624.95h549.512l-23.577-688.617-0.128 0.128c0-39.62-30.827-71.145-68.487-71.145h-365.010c-37.66 0-68.487 31.417-68.487 71.77v0.249l-23.826 687.62zM416.032 523.223c-18.197 0-32.933-15.463-32.933-33.451v-489.783c0-17.987 14.708-33.327 32.933-33.327s32.808 15.339 32.808 33.327v489.783c0 17.989-14.611 33.451-32.808 33.451zM291.535 446.335c-18.224 0-32.933-15.464-32.933-33.451v-335.884c0-17.988 14.708-33.451 32.933-33.451s32.808 15.463 32.808 33.451v335.884c0 17.989-14.584 33.451-32.808 33.451zM542.526 446.335c-18.224 0-32.933-15.464-32.933-33.451v-335.884c0-17.988 14.709-33.451 32.933-33.451s32.808 15.464 32.808 33.451v335.884c0 17.988-14.584 33.451-32.808 33.451zM162.171-136.936c18.381-18.967 43.697-30.83 71.73-30.83h365.010c28.015 0 53.357 11.726 71.73 30.58-18.367-19.083-43.712-31.079-71.73-31.079h-365.010c-28.11 0-53.349 12.086-71.73 31.33z" />
<glyph unicode="&#xe90b;" glyph-name="list-view" d="M0 823.659h205v-205h-205v205zM366.925 823.659h658.062v-205h-658.062v205zM366.925 413.65h658.062v-205h-658.062v205zM0 413.65h205v-205h-205v205zM366.925 3.658h658.062v-205h-658.062v205zM0 3.658h205v-205h-205v205z" />
<glyph unicode="&#xe90c;" glyph-name="grid-view" d="M0 823.659h205v-205h-205v205zM820.001 823.659h205v-205h-205v205zM410.008 823.659h205v-205h-205v205zM820.001 413.65h205v-205h-205v205zM410.008 413.65h205v-205h-205v205zM0 413.65h205v-205h-205v205zM820.001 3.658h205v-205h-205v205zM410.008 3.658h205v-205h-205v205zM0 3.658h205v-205h-205v205z" />
<glyph unicode="&#xe90d;" glyph-name="table-view" d="M0 823.659h1024.997v-205h-1024.997v205zM0 413.65h1024.997v-205h-1024.997v205zM0 3.658h1024.997v-205h-1024.997v205z" />
<glyph unicode="&#xe90e;" glyph-name="filter-icon" horiz-adv-x="1127" d="M564.854 714.204c11.859 0 21.482 9.624 21.482 21.482v68.232c0 11.859-9.624 21.482-21.482 21.482s-21.482-9.624-21.482-21.482v-68.232c0-11.859 9.624-21.482 21.482-21.482v0zM140.050 163.934c-11.887 0-21.482-9.624-21.482-21.482v-324.057c0-11.859 9.595-21.482 21.482-21.482 11.859 0 21.482 9.624 21.482 21.482v324.057c0 11.859-9.624 21.482-21.482 21.482v0zM989.653 238.618c11.859 0 21.482 9.624 21.482 21.482v543.818c0 11.859-9.624 21.482-21.482 21.482s-21.482-9.624-21.482-21.482v-543.818c0-11.859 9.624-21.482 21.482-21.482v0zM140.050 405.787c11.859 0 21.482 9.624 21.482 21.482v376.648c0 11.859-9.624 21.482-21.482 21.482-11.887 0-21.482-9.624-21.482-21.482v-376.648c0-11.859 9.595-21.482 21.482-21.482v0zM251.682 361.79h-225.547c-11.859 0-21.506-9.624-21.506-21.482v-110.713c0-11.859 9.648-21.482 21.506-21.482h225.547c11.887 0 21.506 9.624 21.506 21.482v110.713c0 11.859-9.624 21.482-21.506 21.482v0zM47.589 318.823h182.638v-67.745h-182.638v67.745zM989.653-2.828c-11.859 0-21.482-9.624-21.482-21.482v-157.288c0-11.859 9.624-21.482 21.482-21.482s21.482 9.624 21.482 21.482v157.288c0 11.859-9.624 21.482-21.482 21.482v0zM1100.99 194.533h-225.58c-11.887 0-21.482-9.624-21.482-21.482v-110.713c0-11.859 9.595-21.482 21.482-21.482h225.58c11.831 0 21.482 9.624 21.482 21.482v110.713c0 11.859-9.648 21.482-21.482 21.482v0zM896.901 151.567h182.609v-67.745h-182.609v67.745zM676.302 671.442h-225.518c-11.887 0-21.482-9.624-21.482-21.482v-110.74c0-11.859 9.595-21.482 21.482-21.482h225.518c11.859 0 21.482 9.624 21.482 21.482v110.74c0 11.859-9.624 21.482-21.482 21.482v0zM472.275 628.471h182.559v-67.745h-182.559v67.745zM564.854 475.166c-11.859 0-21.482-9.624-21.482-21.482v-635.28c0-11.859 9.624-21.482 21.482-21.482s21.482 9.624 21.482 21.482v635.28c0 11.859-9.624 21.482-21.482 21.482v0z" />
<glyph unicode="&#xe90f;" glyph-name="chevron-down" d="M22.85 490.667l447.67-447.67c11.5-11.427 26.528-17.213 41.553-17.213 14.947 0 29.973 5.789 41.397 17.139l448.526 447.042c22.999 22.85 22.999 60.094 0.156 83.022s-60.014 22.926-82.946 0.076l-364.647-347.824-86.072 1.565-362.611 346.803c-22.999 22.926-60.094 22.926-83.022 0-22.85-22.926-22.85-60.014 0-82.946z" />
<glyph unicode="&#xe910;" glyph-name="chevron-right" d="M334.368-174.743l444.248 444.248c11.343 11.413 17.077 26.324 17.077 41.238 0 14.832-5.744 29.745-17.006 41.078l-443.618 445.093c-22.675 22.822-59.639 22.822-82.389 0.15s-22.748-59.555-0.073-82.312l345.159-361.861-1.552-85.416-344.152-359.838c-22.748-22.822-22.748-59.639 0-82.389 22.748-22.675 59.555-22.675 82.312 0z" />
<glyph unicode="&#xe911;" glyph-name="chevron-left" d="M690.633 797.060l-444.248-444.248c-11.343-11.413-17.077-26.324-17.077-41.238 0-14.832 5.744-29.745 17.006-41.078l443.618-445.093c22.675-22.822 59.639-22.822 82.389-0.15s22.748 59.555 0.073 82.312l-345.159 361.861 1.552 85.416 344.152 359.838c22.748 22.822 22.748 59.639 0 82.389-22.748 22.675-59.555 22.675-82.312 0z" />
<glyph unicode="&#xe912;" glyph-name="compare" d="M337.21-170.44c265.649-96.688 560.19 40.658 656.878 306.307s-40.658 560.19-306.307 656.878c-265.649 96.688-560.19-40.658-656.878-306.307s40.658-560.19 306.307-656.878zM505.56 314.623c-235.835 85.838-239.575 90.317-438.003 162.541 85.838 235.835 372.032 372.485 607.868 286.648s374.026-379.739 288.19-615.574c-241.882 88.038-222.216 80.552-458.051 166.385z" />
<glyph unicode="&#xe913;" glyph-name="search" d="M1004.8-76.8l-300.8 294.4c44.8 64 70.4 140.8 70.4 230.4 6.4 211.2-172.8 384-384 384-217.6 0-390.4-172.8-390.4-384s172.8-390.4 390.4-390.4c83.2 0 153.6 25.6 224 70.4l300.8-300.8c6.4-6.4 25.6-19.2 44.8-19.2s32 6.4 44.8 19.2c25.6 25.6 25.6 70.4 0 96zM390.4 160c-160 0-294.4 128-294.4 288s134.4 288 294.4 288 288-128 288-288c0-160-128-288-288-288z" />
<glyph unicode="&#xe914;" glyph-name="settings-fill" horiz-adv-x="897" d="M448.438 439.283c-70.789 0-128.125-57.336-128.125-128.125 0-70.731 57.336-128.067 128.125-128.067 70.731 0 128.125 57.336 128.125 128.067 0 70.789-57.4 128.125-128.125 128.125v0zM834.415 228.514l0.256 0.384-9.544 5.709c4.997 24.725 7.688 50.353 7.688 76.555 0 26.27-2.691 51.891-7.688 76.619l9.544 5.709-0.256 0.448c37.284 22.358 62.468 62.781 62.468 109.419 0 70.789-57.4 128.125-128.125 128.125-24.149 0-46.439-7.054-65.664-18.642l-0.256 0.448-11.147-6.727c-34.148 28.123-72.653 50.417-115.12 65.472v23.511c0 70.789-57.4 128.125-128.125 128.125-70.789 0-128.125-57.336-128.125-128.125v-23.511c-42.473-15.055-81.039-37.348-115.12-65.472l-11.147 6.727-0.256-0.448c-19.219 11.595-41.577 18.642-65.664 18.642-70.789 0-128.125-57.336-128.125-128.125 0-46.632 25.177-87.065 62.468-109.419l-0.256-0.448 9.544-5.709c-4.997-24.725-7.688-50.353-7.688-76.619 0-26.202 2.691-51.82 7.688-76.555l-9.544-5.709 0.256-0.384c-37.284-22.419-62.468-62.852-62.468-109.54 0-70.731 57.336-128.125 128.125-128.125 24.088 0 46.439 7.111 65.664 18.706l0.256-0.448 11.147 6.727c34.081-28.123 72.653-50.417 115.12-65.472v-23.572c0-70.731 57.336-128.125 128.125-128.125 70.731 0 128.125 57.4 128.125 128.125v23.572c42.473 15.055 80.975 37.348 115.12 65.472l11.147-6.727 0.256 0.448c19.219-11.595 41.513-18.706 65.664-18.706 70.731 0 128.125 57.4 128.125 128.125 0 46.702-25.177 87.125-62.468 109.54v0zM448.438 54.908c-141.518 0-256.25 114.736-256.25 256.25s114.736 256.25 256.25 256.25c141.518 0 256.25-114.736 256.25-256.25s-114.736-256.25-256.25-256.25v0z" />
<glyph unicode="&#xe915;" glyph-name="settings" d="M475.13 823.659c-35.301 0-64.297-29.082-64.297-64.382v-63.554c-0.030-0.128-0.045-0.32-0.274-0.577-0.624-0.788-1.708-1.339-1.377-1.236l-0.892-0.256-94.283-38.948c0.265 0.128-0.054-0.009-0.791 0.064-0.532 0.064-0.934 0.32-1.086 0.448l-44.764 44.804c-24.96 24.794-65.889 24.786-90.841-0.064l-52.854-52.823c-12.111-12.043-18.938-28.497-18.938-45.576 0-17.052 6.794-33.483 18.91-45.496l44.889-44.906c0.067-0.128 0.132-0.128 0.166-0.448 0.106-0.916-0.237-2.024-0.125-1.813l-0.456-0.859-38.699-94.356c0.059 0.192-0.085-0.064-0.617-0.513-0.374-0.256-0.753-0.384-0.885-0.384h-63.641c-35.303-0.001-64.276-29.086-64.276-64.36v-74.678c0-35.259 28.971-64.336 64.274-64.336h63.621c0.134-0.031 0.293-0.043 0.584-0.256 0.794-0.641 1.374-1.736 1.277-1.422l0.255-0.814 38.854-94.211c0.018-0.055 0.136-0.384 0.079-0.795-0.052-0.384-0.205-0.577-0.265-0.66l-45.006-44.977c-12.136-12.068-18.938-28.549-18.938-45.637 0-17.138 6.853-33.541 18.91-45.494l53.063-53.125c25.061-24.477 65.791-24.445 90.712 0.32l45.69 45.726c0.244-0.128 0.262-0.128 1.831-0.923l0.768-0.384 94.138-38.619c-0.060 0.014 0.259-0.128 0.605-0.641 0.277-0.384 0.354-0.769 0.385-0.891v-63.576c0-35.311 29.006-64.379 64.297-64.379h74.623c35.342 0 64.483 29.018 64.483 64.379v65.025c0-4.119 1.863 0.448 1.392 0.32l0.898 0.256 94.456 38.917c-0.32-0.128 0.021-0.009 0.821-0.128 0.551-0.064 0.957-0.384 1.122-0.448l44.547-44.7c24.946-24.942 66.010-24.949 90.994-0.011l0.015 0.015 52.64 52.788c12.092 11.992 18.983 28.425 18.983 45.567 0 17.093-6.792 33.572-18.936 45.612l-44.764 44.692c-0.069 0.128-0.142 0.192-0.172 0.448-0.102 0.967 0.25 2.159 0.172 2.012l0.454 0.865 38.604 94.127c0.012 0.012 0.193 0.384 0.583 0.647 0.352 0.256 0.737 0.32 0.844 0.384h63.769c35.301 0 64.345 29.038 64.345 64.335v74.679c0 35.309-29.043 64.359-64.345 64.359v-0.008l-0.751 0.448-0.003-1.499c-7.952 0.064 0.326-1.179 0.326-1.179l0.422 2.216h-65.034c4.37 0-0.454 1.864-0.384 1.64l-0.268 0.878-38.872 94.244c0.007-0.003-0.12 0.384-0.048 0.878 0.057 0.384 0.238 0.647 0.307 0.756l44.752 44.788c12.18 12.046 18.998 28.513 18.998 45.56 0 17.079-6.81 33.51-18.892 45.522l-52.908 53.085c-24.913 24.625-65.695 24.65-90.747-0.064l-0.057-0.055-45.84-45.996c0.223 0.192 2.704-1.223-1.78 1.083l-0.747 0.384-93.919 38.542c-0.036 0.015-0.36 0.192-0.61 0.513-0.253 0.32-0.342 0.756-0.372 0.859v63.869c0 35.348-29.128 64.382-64.483 64.382h-74.623zM484.826 749.687h55.424v-55.449c0-32.433 20.665-61.3 50.988-70.063l-1.999 0.699 89.273-36.638-1.989 0.948c28.49-15.636 64.322-10.481 87.343 12.435l0.025 0.026 39.091 39.207 39.124-39.255-39.045-39.080c-23.002-22.933-28.653-58.051-13.222-85.618l-1.017 2.101 36.804-89.306-0.684 1.941c9.162-31.187 38.204-52.803 70.681-52.803h55.365v-55.408h-55.363c-32.46 0-61.281-20.779-70.094-51.098l0.684 1.96-36.59-89.237 0.948 1.986c-15.54-28.349-10.582-64.087 12.264-87.162l0.042-0.041 39.231-39.149-39.134-39.195-39.127 39.217c-13.788 13.786-32.846 20.962-52.642 20.962-12.178 0-23.23-2.223-33.204-7.916l2.246 1.102-89.342-36.817 1.897 0.673c-31.068-9.208-52.555-38.214-52.555-70.635v-55.426h-55.426v55.426c0 32.473-20.882 61.287-51.265 70.066l1.994-0.699-89.179 36.567 2.012-0.961c-10.572 5.817-22.513 8.624-34.678 8.624-19.764 0-38.8-7.204-52.568-21.004l-39.231-39.225-39.177 39.227 39.191 39.146c22.906 22.936 28.508 57.953 13.268 85.536l0.964-2.005-36.822 89.328 0.658-1.852c-9.279 31.025-38.186 52.599-70.587 52.599h-55.411v55.416h55.411c32.411 0 61.132 20.844 70.028 51.103l-0.666-1.896 36.544 89.237-0.971-2.031c15.686 28.47 10.525 64.343-12.524 87.269l-39.073 39.050 39.241 39.2 39.175-39.149c13.793-13.789 32.847-21.029 52.662-21.029 12.133 0 23.147 2.236 33.089 7.929l-2.254-1.108 89.247 36.868-1.95-0.686c31.196 9.174 52.877 38.173 52.877 70.645v55.449zM512.489 467.045c-85.777 0-155.89-70.105-155.89-155.893s70.115-155.87 155.89-155.87c85.752 0 155.839 70.088 155.839 155.87s-70.084 155.893-155.839 155.893zM512.489 393.062c45.276 0 81.859-36.56 81.859-81.908s-36.574-81.893-81.859-81.893c-45.336 0-81.905 36.537-81.905 81.893s36.568 81.908 81.905 81.908z" />
<glyph unicode="&#xe916;" glyph-name="ok_mark" horiz-adv-x="1261" d="M1234.474 805.61c-23.354 19.835-58.86 15.982-77.747-8.969l-526.214-690.034c-0.838-1.142-1.598-2.482-2.437-3.799l-132.127-174.751-396.965 382.317c-22.305 21.463-57.713 19.657-78.034-3.952h-0.143c-20.271-23.641-18.532-61.328 3.872-82.818l407.999-392.962c17.758-16.905 40.959-26.594 64.846-26.592 2.328 0 4.77 0.089 7.45 0.304 26.468 2.149 51.124 16.211 67.859 37.991l0.143 0.15 144.609 191.151 0.43 0.749c0.15 0.222 0.28 0.528 0.43 0.749l0.143 0.15 524.203 687.75c18.95 24.851 15.169 62.309-8.179 82.361l-18.078-23.702 17.945 23.856zM506.555-82.122c0.070-0.065 0.222-0.092 0.287-0.15v-0.15l-0.287 0.304z" />
<glyph unicode="&#xe917;" glyph-name="pencil" d="M955.199 763.798c-34.132 32.698-71.747 49.308-112.028 49.308-62.837 0-108.65-40.59-121.251-52.993-17.63-17.419-619.818-619.818-619.818-619.818-3.898-3.998-6.761-8.808-8.302-14.243-13.427-50.327-81.488-272.958-82.107-275.315-3.485-11.38-0.415-23.882 7.995-32.185 6.048-6.048 14.145-9.333 22.345-9.333 3.286 0 6.56 0.513 9.738 1.538 2.255 0.714 232.163 75.030 269.986 86.305 5.027 1.538 9.532 4.196 13.223 7.898 23.882 23.575 585.481 579.023 622.789 617.461 38.54 39.77 57.7 81.077 56.99 123-0.714 41.41-20.807 81.18-59.552 118.389zM712.068 659.761c15.888-3.793 53.402-16.298 92.045-55.248 38.948-39.36 49.405-84.154 51.355-94.201-123.204-122.59-406.925-403.236-518.65-513.731-10.243 24.088-26.65 52.993-53.71 80.155-32.8 33.005-66.113 51.653-91.84 62.115 110.593 110.7 399.443 399.643 520.803 520.906zM148.727 86.075c17.22-4.613 52.89-17.725 89.482-54.632 28.085-28.393 41.308-59.552 47.252-78.625-43.357-13.838-138.682-46.744-199.461-66.42 17.945 59.245 48.171 151.188 62.73 199.67zM912.353 567.308c-1.333-1.333-3.382-3.485-5.945-6.048-9.945 25.523-27.265 58.218-57.298 88.56-30.852 31.057-61.91 49.2-87.017 59.967 2.149 2.149 3.898 3.898 4.51 4.51 3.585 3.585 36.085 34.65 76.672 34.65 23.37 0 46.227-10.66 68.163-31.673 25.932-24.805 39.261-49.405 39.77-72.98 0.415-24.088-12.71-49.92-38.848-76.97z" />
<glyph unicode="&#xe918;" glyph-name="phone" d="M768.751 845.013h-512.5c-53.108 0-96.094-43.018-96.094-96.094v-832.813c0-53.108 43.018-96.094 96.094-96.094h512.5c53.044 0 96.094 43.050 96.094 96.094v832.813c0 53.108-43.050 96.094-96.094 96.094zM800.782-83.894c0-17.649-14.382-32.031-32.031-32.031h-512.5c-17.681 0-32.031 14.318-32.031 32.031v64.191h576.563v-64.191zM800.782 12.328h-576.563v640.497h576.563v-640.497zM800.782 684.856h-576.563v64.063c0 17.681 14.35 32.031 32.031 32.031h512.5c17.649 0 32.031-14.35 32.031-32.031v-64.063zM576.563 732.903c0-8.841-7.207-16.016-16.016-16.016h-96.094c-8.873 0-16.016 7.175-16.016 16.016v0c0 8.873 7.143 16.016 16.016 16.016h96.094c8.809 0 16.016-7.143 16.016-16.016v0zM544.532-67.751c0-8.809-7.207-16.016-16.016-16.016h-32.031c-8.841 0-16.016 7.207-16.016 16.016v0c0 8.873 7.175 16.016 16.016 16.016h32.031c8.809 0 16.016-7.143 16.016-16.016v0z" />
<glyph unicode="&#xe919;" glyph-name="location" d="M512.565 276.586c105.992 0 192.188 86.228 192.188 192.188s-86.196 192.188-192.188 192.188c-105.992 0-192.188-86.196-192.188-192.188s86.196-192.188 192.188-192.188zM512.565 628.93c88.342 0 160.156-71.814 160.156-160.156s-71.814-160.156-160.156-160.156c-88.342 0-160.156 71.814-160.156 160.156s71.814 160.156 160.156 160.156zM512.5 845.013c-211.983 0-384.375-170.278-384.375-384.407 0-224.219 192.22-453.595 332.357-614.808 0.513-0.641 22.998-25.785 50.802-25.785 0.064 0 2.338 0 2.466 0 27.771 0 50.289 25.145 50.802 25.785 140.201 161.213 332.389 390.557 332.389 614.808 0 214.129-172.424 384.407-384.439 384.407zM516.248-112.178c-0.673-0.641-2.627-2.050-4.324-3.139-0.32 0.865-2.691 2.755-4.132 4.26-117.395 135.076-315.604 363.043-315.604 571.662 0 176.62 143.724 320.345 320.313 320.345 176.685 0 320.377-143.724 320.377-320.377 0-208.588-198.21-436.554-316.629-572.751z" />
<glyph unicode="&#xe91a;" glyph-name="minus" d="M128.125 353.867h768.751q17.684 0 30.196-12.512t12.512-30.196-12.512-30.196-30.196-12.512h-768.751q-17.684 0-30.196 12.512t-12.512 30.196 12.512 30.196 30.196 12.512z" />
<glyph unicode="&#xe91b;" glyph-name="plus" d="M512.5 759.597q18.569 0 31.707-13.138t13.138-31.707v-358.748h358.748q18.569 0 31.707-13.138t13.138-31.707-13.138-31.707-31.707-13.138h-358.748v-358.748q0-18.569-13.138-31.707t-31.707-13.138-31.707 13.138-13.138 31.707v358.748h-358.748q-18.569 0-31.707 13.138t-13.138 31.707 13.138 31.707 31.707 13.138h358.748v358.748q0 18.569 13.138 31.707t31.707 13.138z" />
<glyph unicode="&#xe91c;" glyph-name="cross" d="M886.2 738.24q22.939 0 38.161-15.222t15.222-38.161q0-22.522-15.432-37.954l-336.163-335.745 336.163-335.745q15.432-15.432 15.432-37.954 0-22.939-15.222-38.161t-38.161-15.222q-22.522 0-37.954 15.432l-335.745 336.163-335.745-336.163q-15.432-15.432-37.954-15.432-22.939 0-38.161 15.222t-15.222 38.161q0 22.522 15.432 37.954l336.163 335.745-336.163 335.745q-15.432 15.432-15.432 37.954 0 22.939 15.222 38.161t38.161 15.222q22.522 0 37.954-15.432l335.745-336.163 335.745 336.163q15.432 15.432 37.954 15.432z" />
<glyph unicode="&#xe91d;" glyph-name="orders" horiz-adv-x="1261" d="M1182.693 508.274h-187.811l-135.931 271.861-0.71-0.394c-12.931 25.783-38.95 43.917-69.779 43.917-43.524 0-78.846-35.244-78.846-78.846 0-12.694 3.706-24.206 9.067-34.85l-0.789-0.394 100.686-201.295h-375.624l100.608 201.295-0.71 0.394c5.361 10.644 9.067 22.156 9.067 34.85 0 43.602-35.323 78.846-78.846 78.846-30.829 0-56.849-18.135-69.779-43.917l-0.71 0.394-135.931-271.861h-187.811c-43.524 0-78.846-35.244-78.846-78.846 0-43.524 35.323-78.846 78.846-78.846h19.317l141.371-494.681 1.261 0.315c9.461-32.958 38.556-57.558 74.589-57.558h630.77c35.954 0 65.049 24.6 74.51 57.558l1.261-0.315 141.371 494.681h19.396c43.524 0 78.846 35.323 78.846 78.846 0 43.602-35.323 78.846-78.846 78.846v0zM886.705-43.65h-511.87l-112.592 394.231h737.055l-112.592-394.231z" />
<glyph unicode="&#xe91e;" glyph-name="account" d="M800 531.2c0 166.4-128 300.8-294.4 300.8s-294.4-134.4-294.4-300.8 128-300.8 294.4-300.8c57.6 0 96 12.8 140.8 38.4 147.2-83.2 249.6-185.6 268.8-364.8h-819.2c0 12.8 6.4 160 147.2 294.4 12.8 19.2 12.8 57.6-6.4 70.4s-51.2 0-64-19.2c-108.8-102.4-172.8-249.6-172.8-403.2 0-19.2 19.2-38.4 38.4-38.4h947.2c19.2 0 38.4 19.2 38.4 38.4 0 211.2-115.2 396.8-294.4 480 38.4 51.2 70.4 121.6 70.4 204.8zM307.2 531.2c0 115.2 89.6 204.8 198.4 204.8s198.4-89.6 198.4-204.8-89.6-204.8-198.4-204.8-198.4 96-198.4 204.8v0z" />
<glyph unicode="&#xe91f;" glyph-name="logout" horiz-adv-x="896" d="M639.029 331.103c0.466 9.826-4.301 20.678-14.65 31.028l-232.993 232.993c-24.687 24.687-65.138 24.615-90.131-0.379-25.168-25.168-25.18-65.329-0.417-90.092l120.653-120.653h-357.367c-35.554 0-64.123-28.654-64.123-64 0-35.593 28.522-64 63.705-64h357.785l-109.672-109.672c-24.763-24.763-24.75-64.925 0.417-90.092 24.994-24.994 65.711-24.799 90.588 0.078l221.098 221.098c10.643 10.643 15.649 22.269 15.367 33.086 0.469 3.1 0.712 6.273 0.712 9.502 0 3.781-0.333 7.491-0.971 11.103zM832 832c35.346 0 64-28.456 64-64.056v-895.888c0-35.377-28.407-64.056-64-64.056-35.346 0-64 28.456-64 64.056v895.888c0 35.377 28.407 64.056 64 64.056zM384-128c0 35.346 28.994 64 63.81 64h384.38c35.241 0 63.81-28.407 63.81-64 0-35.346-28.994-64-63.81-64h-384.38c-35.241 0-63.81 28.407-63.81 64zM384 768c0 35.346 28.994 64 63.81 64h384.38c35.241 0 63.81-28.407 63.81-64 0-35.346-28.994-64-63.81-64h-384.38c-35.241 0-63.81 28.407-63.81 64z" />
<glyph unicode="&#xe920;" glyph-name="my-account-profile" horiz-adv-x="1170" d="M0 758.356v-876.713c0-40.733 32.776-73.644 73.207-73.644h1023.872c40.685 0 73.207 32.971 73.207 73.644v876.713c0 40.733-32.776 73.644-73.207 73.644h-1023.872c-40.685 0-73.207-32.971-73.207-73.644zM109.714 722.286h950.857v-804.571h-950.857v804.571zM512 502.714c0 20.277 16.668 36.714 35.914 36.714h367.030c19.834 0 35.914-16.923 35.914-36.714v-14.343c0-20.277-16.668-36.714-35.914-36.714h-367.030c-19.834 0-35.914 16.923-35.914 36.714v14.343zM512 327.171c0 20.277 16.668 36.714 35.914 36.714h367.030c19.834 0 35.914-16.923 35.914-36.714v-14.343c0-20.277-16.668-36.714-35.914-36.714h-367.030c-19.834 0-35.914 16.923-35.914 36.714v14.343zM512 151.628c0 20.277 16.668 36.714 35.914 36.714h367.030c19.834 0 35.914-16.923 35.914-36.714v-14.343c0-20.277-16.668-36.714-35.914-36.714h-367.030c-19.834 0-35.914 16.923-35.914 36.714v14.343zM219.429 466.362c0 40.354 32.377 73.067 73.067 73.067h73.295c40.354 0 73.067-32.377 73.067-73.067v-73.295c0-40.354-32.377-73.067-73.067-73.067h-73.295c-40.354 0-73.067 32.377-73.067 73.067v73.295z" />
</font>
</defs>
</svg>
