<?xml version="1.0" encoding="utf-8"?>
<!-- Generator: Adobe Illustrator 17.0.0, SVG Export Plug-In . SVG Version: 6.00 Build 0)  -->
<!DOCTYPE svg PUBLIC "-//W3C//DTD SVG 1.1//EN" "http://www.w3.org/Graphics/SVG/1.1/DTD/svg11.dtd" [
	<!ENTITY ns_extend "http://ns.adobe.com/Extensibility/1.0/">
	<!ENTITY ns_ai "http://ns.adobe.com/AdobeIllustrator/10.0/">
	<!ENTITY ns_graphs "http://ns.adobe.com/Graphs/1.0/">
	<!ENTITY ns_vars "http://ns.adobe.com/Variables/1.0/">
	<!ENTITY ns_imrep "http://ns.adobe.com/ImageReplacement/1.0/">
	<!ENTITY ns_sfw "http://ns.adobe.com/SaveForWeb/1.0/">
	<!ENTITY ns_custom "http://ns.adobe.com/GenericCustomNamespace/1.0/">
	<!ENTITY ns_adobe_xpath "http://ns.adobe.com/XPath/1.0/">
]>
<svg version="1.1" xmlns:x="&ns_extend;" xmlns:i="&ns_ai;" xmlns:graph="&ns_graphs;"
	 xmlns="http://www.w3.org/2000/svg" xmlns:xlink="http://www.w3.org/1999/xlink" x="0px" y="0px" width="615px" height="540px"
	 viewBox="0 0 615 540" enable-background="new 0 0 615 540" xml:space="preserve">
<metadata>Created by potrace 1.11, written by Peter Selinger 2001-2013<sfw  xmlns="&ns_sfw;">
	<slices></slices>
	<sliceSourceBounds  width="585.119" height="510.805" y="164.3" x="4.986" bottomLeftOrigin="true"></sliceSourceBounds>
</sfw>
</metadata>
<g>
	<g transform="translate(0.000000,540.000000) scale(0.100000,-0.100000)">
		<path fill="#9999A1" d="M4556,5239c-481-66-887-402-1040-861c-47-139-61-232-61-403c0-116,5-184,18-245c109-515,492-898,1007-1007
			c118-24,372-24,490,0c515,109,898,492,1007,1007c24,118,24,372,0,490c-109,513-494,900-1002,1005C4879,5245,4652,5253,4556,5239z
			 M4780,4710c0-35,3-40,28-46c100-21,186-72,231-138c28-40,77-164,68-172c-2-2-39-8-83-14c-43-6-93-13-111-15c-29-5-32-3-38,26
			c-7,31-69,109-86,109c-6,0-8-71-7-165l3-166l65-23c141-50,221-110,261-199c21-44,24-68,24-162c0-99-3-116-27-168
			c-15-32-39-73-54-90c-41-50-130-105-205-128l-69-21v-79v-79h-65h-65v78v79l-49,11c-159,36-270,150-310,316c-15,60-13,61,83,70
			c39,4,87,10,106,12c35,6,36,5,47-38c12-43,93-148,114-148c5,0,9,78,9,178v178l-54,17c-72,23-168,88-206,140c-55,75-72,139-68,252
			c3,83,8,108,30,150c44,85,142,162,228,180c69,13,70,14,70,56v39h65h65V4710z"/>
		<path fill="#9999A1" d="M4616,4450c-40-26-76-87-76-130c0-45,36-106,78-132l32-20v151c0,83-1,151-2,151
			C4646,4470,4632,4461,4616,4450z"/>
		<path fill="#9999A1" d="M4780,3710v-170l28,11c63,24,112,93,112,159c0,77-33,124-112,158l-28,12V3710z"/>
		<path fill="#9999A1" d="M2445,4625c-71-19-245-67-385-107l-255-74l-3-942l-2-942l-93,92c-128,128-251,197-353,198
			c-105,1-237-74-371-210l-83-83v811c0,549-3,812-10,812c-6,0-140-37-298-82l-287-82l-60-61c-103-103-95,33-95-1705s-8-1602,95-1705
			c60-60,61-61,160-83c55-12,577-90,1160-173l1059-151l1061,151c583,83,1105,161,1160,173c99,22,100,23,160,83c99,99,95,53,95,1059
			v848l-22-5c-41-10-182-36-230-42l-48-6v-824V751l-32-6c-29-5-2058-295-2065-295c-2,0-3,878-3,1951c0,1557,3,1950,13,1946
			c56-21,450-127,455-122c11,11,71,270,64,276c-10,10-381,114-490,139C2623,4666,2600,4665,2445,4625z"/>
	</g>
</g>
<g>
	<circle fill="#536BA6" cx="472.802" cy="142.698" r="127.302"/>
</g>
<g>
	<g>
		<path fill="#FFFFFF" d="M466.479,186.428v-36.826c-11.484-3.281-19.907-8.247-25.269-14.897
			c-5.361-6.649-8.042-14.722-8.042-24.214c0-9.609,3.032-17.68,9.097-24.214c6.064-6.533,14.136-10.297,24.214-11.294v-8.701
			h12.744v8.701c9.316,1.114,16.729,4.293,22.236,9.536c5.507,5.245,9.022,12.261,10.547,21.05l-22.236,2.9
			c-1.349-6.913-4.864-11.602-10.547-14.063v34.365c14.063,3.81,23.643,8.745,28.74,14.81s7.646,13.843,7.646,23.335
			c0,10.606-3.208,19.542-9.624,26.807c-6.416,7.266-15.337,11.72-26.763,13.359v16.436h-12.744v-15.996
			c-10.138-1.23-18.369-5.01-24.697-11.338s-10.371-15.263-12.129-26.807l22.939-2.461c0.937,4.688,2.694,8.731,5.273,12.129
			C460.443,182.444,463.314,184.905,466.479,186.428z M466.479,94.143c-3.458,1.173-6.211,3.164-8.262,5.977
			c-2.052,2.813-3.076,5.919-3.076,9.316c0,3.106,0.937,5.992,2.813,8.657c1.875,2.667,4.716,4.82,8.525,6.46V94.143z
			 M479.223,187.658c4.395-0.82,7.968-2.856,10.723-6.108c2.754-3.252,4.131-7.075,4.131-11.47c0-3.925-1.157-7.309-3.472-10.151
			c-2.315-2.841-6.108-5.023-11.382-6.548V187.658z"/>
	</g>
</g>
</svg>
