<?xml version="1.0" encoding="utf-8"?>
<!-- Generator: Adobe Illustrator 17.0.0, SVG Export Plug-In . SVG Version: 6.00 Build 0)  -->
<!DOCTYPE svg PUBLIC "-//W3C//DTD SVG 1.1//EN" "http://www.w3.org/Graphics/SVG/1.1/DTD/svg11.dtd" [
	<!ENTITY ns_extend "http://ns.adobe.com/Extensibility/1.0/">
	<!ENTITY ns_ai "http://ns.adobe.com/AdobeIllustrator/10.0/">
	<!ENTITY ns_graphs "http://ns.adobe.com/Graphs/1.0/">
	<!ENTITY ns_vars "http://ns.adobe.com/Variables/1.0/">
	<!ENTITY ns_imrep "http://ns.adobe.com/ImageReplacement/1.0/">
	<!ENTITY ns_sfw "http://ns.adobe.com/SaveForWeb/1.0/">
	<!ENTITY ns_custom "http://ns.adobe.com/GenericCustomNamespace/1.0/">
	<!ENTITY ns_adobe_xpath "http://ns.adobe.com/XPath/1.0/">
]>
<svg version="1.1" xmlns:x="&ns_extend;" xmlns:i="&ns_ai;" xmlns:graph="&ns_graphs;"
	 xmlns="http://www.w3.org/2000/svg" xmlns:xlink="http://www.w3.org/1999/xlink" x="0px" y="0px" width="615px" height="540px"
	 viewBox="0 0 615 540" enable-background="new 0 0 615 540" xml:space="preserve">
<metadata>Created by potrace 1.11, written by Peter Selinger 2001-2013<sfw  xmlns="&ns_sfw;">
	<slices></slices>
	<sliceSourceBounds  width="584.514" height="510.805" y="164.3" x="4.986" bottomLeftOrigin="true"></sliceSourceBounds>
</sfw>
</metadata>
<g transform="translate(0.000000,540.000000) scale(0.100000,-0.100000)">
	<path fill="#536BA6" d="M4556,5239c-481-66-887-402-1040-861c-47-139-61-232-61-403c0-116,5-184,18-245c109-515,492-898,1007-1007
		c118-24,372-24,490,0c515,109,898,492,1007,1007c24,118,24,372,0,490c-109,513-494,900-1002,1005C4879,5245,4652,5253,4556,5239z
		 M4780,4710c0-35,3-40,28-46c100-21,186-72,231-138c28-40,77-164,68-172c-2-2-39-8-83-14c-43-6-93-13-111-15c-29-5-32-3-38,26
		c-7,31-69,109-86,109c-6,0-8-71-7-165l3-166l65-23c141-50,221-110,261-199c21-44,24-68,24-162c0-99-3-116-27-168
		c-15-32-39-73-54-90c-41-50-130-105-205-128l-69-21v-79v-79h-65h-65v78v79l-49,11c-159,36-270,150-310,316c-15,60-13,61,83,70
		c39,4,87,10,106,12c35,6,36,5,47-38c12-43,93-148,114-148c5,0,9,78,9,178v178l-54,17c-72,23-168,88-206,140c-55,75-72,139-68,252
		c3,83,8,108,30,150c44,85,142,162,228,180c69,13,70,14,70,56v39h65h65V4710z"/>
	<path fill="#536BA6" d="M4616,4450c-40-26-76-87-76-130c0-45,36-106,78-132l32-20v151c0,83-1,151-2,151
		C4646,4470,4632,4461,4616,4450z"/>
	<path fill="#536BA6" d="M4780,3710v-170l28,11c63,24,112,93,112,159c0,77-33,124-112,158l-28,12V3710z"/>
	<path fill="#536BA6" d="M2445,4625c-71-19-245-67-385-107l-255-74l-3-942l-2-942l-93,92c-128,128-251,197-353,198
		c-105,1-237-74-371-210l-83-83v811c0,549-3,812-10,812c-6,0-140-37-298-82l-287-82l-60-61c-103-103-95,33-95-1705s-8-1602,95-1705
		c60-60,61-61,160-83c55-12,577-90,1160-173l1059-151l1061,151c583,83,1105,161,1160,173c99,22,100,23,160,83c99,99,95,53,95,1059
		v848l-22-5c-41-10-182-36-230-42l-48-6v-824V751l-32-6c-29-5-2058-295-2065-295c-2,0-3,878-3,1951c0,1557,3,1950,13,1946
		c56-21,450-127,455-122c11,11,71,270,64,276c-10,10-381,114-490,139C2623,4666,2600,4665,2445,4625z"/>
</g>
</svg>
