<?xml version="1.0" encoding="utf-8"?>
<!DOCTYPE svg PUBLIC "-//W3C//DTD SVG 1.1//EN" "http://www.w3.org/Graphics/SVG/1.1/DTD/svg11.dtd">
<svg version="1.1" xmlns="http://www.w3.org/2000/svg" xmlns:xlink="http://www.w3.org/1999/xlink" x="0px" y="0px"
	 width="20px" height="14px" viewBox="42 658.9 20 14" enable-background="new 42 658.9 20 14" xml:space="preserve">
<g transform="translate(0.000000,490.000000) scale(0.100000,-0.100000)">
	<path fill="#C0C0C0" d="M420-1758.9v-70h100h100v70v70H520H420V-1758.9z M610-1758.9v-60h-90h-90v60v60h90h90V-1758.9z"/>
	<path fill="#C0C0C0" d="M510-1733.9v-5h-5h-5v-5v-5h5h5v5v5h10h10v-10v-10h-10h-10v-5v-5h10h10v5v5h5h5v10v10h-5h-5v5v5h-10h-10
		V-1733.9z"/>
	<path fill="#C0C0C0" d="M510-1783.9v-5h5h5v5v5h-5h-5V-1783.9z"/>
</g>
</svg>
