<?xml version="1.0" encoding="utf-8"?>
<!DOCTYPE svg PUBLIC "-//W3C//DTD SVG 1.1//EN" "http://www.w3.org/Graphics/SVG/1.1/DTD/svg11.dtd">
<svg version="1.1" xmlns="http://www.w3.org/2000/svg" xmlns:xlink="http://www.w3.org/1999/xlink" x="0px" y="0px"
	 width="43px" height="49px" viewBox="0 0 43 49" enable-background="new 0 0 43 49" xml:space="preserve">
<path fill="#B0B0B0" d="M9,11.5l0,23.3H4L4,4h28.2V0H3C1.4,0,0,1.3,0,3l0,32.8c0,1.7,1.3,3,3,3h6L9,46c0,1.7,1.3,3,3,3h28
	c1.7,0,3-1.3,3-3V11.5c0-1.7-1.3-3-3-3H12C10.4,8.5,9,9.8,9,11.5z M13,45l0-6.2h5l0,3.8l6.9-5.3c0.3-0.2,0.3-0.7,0-1L18,31l0,3.8h-5
	l0-22.2h26L39,45H13z"/>
</svg>
