<?xml version="1.0" encoding="utf-8"?>
<!DOCTYPE svg PUBLIC "-//W3C//DTD SVG 1.1//EN" "http://www.w3.org/Graphics/SVG/1.1/DTD/svg11.dtd">
<svg version="1.1" xmlns="http://www.w3.org/2000/svg" xmlns:xlink="http://www.w3.org/1999/xlink" x="0px" y="0px"
	 width="20px" height="20px" viewBox="240 260 20 20" enable-background="new 240 260 20 20" xml:space="preserve">
<g transform="translate(0.000000,520.000000) scale(0.100000,-0.100000)">
	<path fill="#BCBCBC" d="M2414.9,2568.4c-6.2-1.2-11.5-6.7-12.7-13c-0.2-1.3-0.3-107.5,0.2-109.5c1.7-6.3,6.6-10.9,12.9-12.1
		c2.8-0.5,167.3-0.5,170.1,0c6.5,1.2,11.8,6.5,13,13.1c0.5,2.8,0.5,105.7,0,108.6c-1.2,6.5-6.5,11.8-13.1,13
		C2582.8,2569,2417.4,2568.9,2414.9,2568.4z M2576.3,2556.2c-0.2-0.2-74.3-66.6-74.3-66.6s-76.8,66.1-77.1,66.4
		C2424.4,2556.5,2576.5,2556.4,2576.3,2556.2z M2464.8,2505.4c0-0.1-50.7-51-50.7-51v94.9
		C2414.1,2549.2,2464.7,2505.5,2464.8,2505.4z M2586.5,2454.8l-49.7,49.7c0,0,49.5,44.4,49.6,44.4
		C2586.5,2548.8,2586.5,2454.8,2586.5,2454.8z M2486.7,2486.7c13.2-11.4,13.8-11.7,16.7-11c1.8,0.5,1.3,0.1,14,11.5
		c5.5,4.9,10.1,8.9,10.2,8.9c0.2,0,11.6-11.4,25.4-25.2l25.2-25.2h-155.5c0,0,51.6,51.6,51.6,51.6
		C2474.4,2497.3,2479.9,2492.5,2486.7,2486.7z"/>
</g>
</svg>
