<?xml version="1.0" encoding="utf-8"?>
<!-- Generator: Adobe Illustrator 18.0.0, SVG Export Plug-In . SVG Version: 6.00 Build 0)  -->
<!DOCTYPE svg PUBLIC "-//W3C//DTD SVG 1.1//EN" "http://www.w3.org/Graphics/SVG/1.1/DTD/svg11.dtd">
<svg version="1.1" xmlns="http://www.w3.org/2000/svg" xmlns:xlink="http://www.w3.org/1999/xlink" x="0px" y="0px"
	 width="25.9px" height="32px" viewBox="-236 826 25.9 32" enable-background="new -236 826 25.9 32" xml:space="preserve">
<g transform="translate(0.000000,682.000000) scale(0.100000,-0.100000)">
	<path fill="#2C5FA6" d="M-2341.5-1440.9c-9.7,0-15.7-6.4-15.7-15.7c0-9.3,0-212,0-222.9s5.5-16.1,15.7-16.1c10.2,0,32,0,32,0
		s0-38.8,0-47.8s5.5-15.7,15.8-15.7c10.3,0,63.7,0,63.7,0s53.6,0,63.7,0s16,6.2,16,15.7c0,9.5,0,47.7,0,47.7s21.9,0.1,31.8,0.1
		c9.9,0,15.6,6,15.6,15.8s0,111.3,0,111.3c0,112.4,0,101.3,0,111.8c0,10.5-5.4,15.7-15.6,15.7c-10.3,0-110.5,0.1-110.5,0.1
		C-2294.6-1440.9-2331.8-1440.9-2341.5-1440.9z M-2118.5-1534.8v-78.2H-2230h-111.5v78.2v78.2h111.5h111.5V-1534.8z M-2118.5-1653.8
		v-25.9h-31.9v7.9v7.9c0,0,0,0.1,7.7,0.1c3.9,0,7,2.6,7,8.2s-3.5,7.7-7,7.7c-7.1,0-7.6,0-7.6,0h-79.7h-79.5c0,0,0.8,0-5.6,0
		c-6.4,0-9.5-2.2-9.5-7.8s4.7-8.1,9.8-8.1c5.1,0,5.1-0.2,5.1-0.2v-7.9v-7.9h-15.9h-15.9v25.9v25.9h111.5h111.5V-1653.8z
		 M-2166.3-1703.6v-39.8h-63.7h-63.7v39.8v39.8h63.7h63.7V-1703.6z"/>
	<path fill="#2C5FA6" d="M-2309.5-1476.6c-11.9,0-15.1-3.7-15.1-14.9c0-11.1,0-33.7,0-44.8s3.8-14.9,15.1-14.9s149.3,0,159.2,0
		c11.5,0,14.7,3.5,14.7,14.9s0,33.8,0,44.8c0,11-3.5,14.9-14.7,14.9C-2160.2-1476.6-2298.2-1476.6-2309.5-1476.6z M-2150.3-1513.9
		v-22.4h-79.7h-79.7v22.4v22.4h79.7h79.7V-1513.9z"/>
	<path fill="#2C5FA6" d="M-2203-1573.2c-1.9,0-6.4-1.8-6.4-6.8c0-5,4-8.1,6.4-8.1c2.4,0,33.4,0,36.6,0s6.4,3.9,6.4,7.7
		s-3.5,7.2-6.4,7.2C-2169.3-1573.2-2201.1-1573.2-2203-1573.2z"/>
	<path fill="#2C5FA6" d="M-2277.8-1687.7c0-4.8,2.9-8,6.7-8s41.1,0,41.1,0s37.1,0,41.1,0c4,0,6.7,2.2,6.7,8s-3.1,8-6.7,8
		c-3.5,0-41.1,0-41.1,0s-37.4,0-41.1,0S-2277.8-1682.9-2277.8-1687.7z"/>
	<path fill="#2C5FA6" d="M-2277.8-1719.5c0-5.5,3.4-8,6.7-8c3.3,0,41.1,0,41.1,0s37.1,0,41.1,0c4,0,6.7,3.4,6.7,8c0,4.5-3.3,8-6.7,8
		c-3.4,0-41.1,0-41.1,0s-37.9,0-41.1,0C-2274.4-1711.6-2277.8-1714-2277.8-1719.5z"/>
	<ellipse fill="#2C5FA6" cx="-2142.9" cy="-1580.6" rx="0.7" ry="0.7"/>
</g>
</svg>
