<?xml version="1.0" encoding="utf-8"?>
<!-- Generator: Adobe Illustrator 18.0.0, SVG Export Plug-In . SVG Version: 6.00 Build 0)  -->
<!DOCTYPE svg PUBLIC "-//W3C//DTD SVG 1.1//EN" "http://www.w3.org/Graphics/SVG/1.1/DTD/svg11.dtd">
<svg version="1.1" xmlns="http://www.w3.org/2000/svg" xmlns:xlink="http://www.w3.org/1999/xlink" x="0px" y="0px"
	 width="32px" height="32px" viewBox="376 390 32 32" enable-background="new 376 390 32 32" xml:space="preserve">
<g transform="translate(0.000000,800.000000) scale(0.100000,-0.100000)">
	<path fill="#C1CCDA" d="M3909.8,4091.7c-0.6-0.9-11.2-20.7-23.5-44.1c-12.3-23.4-22.4-42.6-22.4-42.7c-0.2-0.2-5.2-1.2-50.3-10.3
		c-20.7-4.2-38.9-7.9-40.5-8.3c-5-1.2-8-4.2-9.2-9.3c-0.7-2.7-0.7-2.9,0.1-6c0.5-1.8,1.3-3.7,1.9-4.6c1.1-1.5,6.2-7.2,22.1-25.1
		c35-39.2,41.7-46.9,41.7-47.7c0-0.5-2.6-22.6-5.8-49.2l-5.8-48.3l0.7-2.9c1.2-5.1,4.2-8,9.5-9.3c2.7-0.7,3-0.7,5.8,0.1
		c2.1,0.6,14.5,6.5,44.4,21.2l41.4,20.4l41.4-20.4c29.9-14.7,42.2-20.6,44.4-21.2c2.9-0.8,3.1-0.8,5.8-0.1c5.3,1.2,8.3,4.2,9.5,9.3
		l0.7,2.9l-5.8,48.3c-3.2,26.6-5.8,48.7-5.8,49.2c0,0.8,6.7,8.5,41.7,47.7c16,17.9,21,23.6,22.1,25.1c0.6,0.9,1.5,2.8,1.9,4.6
		c0.8,3,0.8,3.2,0.1,6c-1.2,5-4.2,8-9.2,9.3c-1.5,0.4-20.8,4.3-42.7,8.7c-21.9,4.4-41.8,8.5-44,8.9l-4.1,0.8l-8.3,15.8
		c-29.2,55.7-36.6,69.7-37.6,71.1c-1.6,2.2-4.3,5.1-9.8,5.1C3914.9,4096.8,3911.4,4094,3909.8,4091.7z M3938.1,4022.6
		c9.8-18.8,18.5-35,19.2-35.9c2.1-2.9,4.3-4.2,8.6-5.2c2.1-0.5,19.4-4,38.3-7.8c18.9-3.8,34.8-7.1,35.2-7.2
		c0.8-0.3-35.4-40.8-35.4-40.8s-13.3-15.8-15.8-18.7c-2.5-2.9-4.3-6.2-3.5-12.6c0.8-6.4,4.3-35.4,4.3-35.4c2.6-22,4.7-40.2,4.6-40.6
		c0-0.5-8.4,3.5-33.9,16c-24.3,12-33.5,16.5-35.6,17c-2.9,0.8-5,0.8-7.9,0c-2.1-0.5-11.7-5-36-17c-25.5-12.6-33.9-16.5-33.9-16
		c-0.1,0.4,2,18.6,4.6,40.6c0,0,4.1,31.4,4.3,35.8c0.2,4.3-0.2,8.8-2.8,11.4c-1.8,1.8-16.5,19.6-16.5,19.6s-36.1,40.5-35.4,40.8
		c0.4,0.2,16.2,3.4,35.2,7.2c18.9,3.8,36.2,7.3,38.3,7.8c4.3,1,6.5,2.3,8.6,5.2c0.7,1,9.4,17.1,19.2,35.9
		c9.8,18.8,18,34.1,18.1,34.1S3928.3,4041.4,3938.1,4022.6z"/>
</g>
</svg>
