<?xml version="1.0" encoding="utf-8"?>
<!DOCTYPE svg PUBLIC "-//W3C//DTD SVG 1.1//EN" "http://www.w3.org/Graphics/SVG/1.1/DTD/svg11.dtd">
<svg version="1.1" xmlns="http://www.w3.org/2000/svg" xmlns:xlink="http://www.w3.org/1999/xlink" x="0px" y="0px"
	 width="20px" height="20px" viewBox="-5 15 20 20" enable-background="new -5 15 20 20" xml:space="preserve">
<g transform="translate(0.000000,452.000000) scale(0.100000,-0.100000)">
	<path fill="#5194C5" d="M47.8,4352.9c-0.6-0.3-21.7-16.9-43-34.1c-0.8-0.6-11.6-9.3-24.1-19.3c-23.9-19-24.1-19.3-24.1-22.6
		c0-2.5,1.6-4.8,4.1-5.8c2.3-1,3.9-0.2,10.4,5.1c3.3,2.6,6.4,5,6.4,5v-45.3c0,0,0-32.4,0-40.8c0-6.8,1.8-8.3,8.3-8.3
		c6.6,0,34.9,0,42,0s8.3,1,8.3,8.3c0,7.3,0,58.2,0,58.2h28.2c0,0,0-51.2,0-58.2c0-6.9,1.6-8.3,8.3-8.3c6.7,0,35,0,41.7,0
		c6.7,0,8.3,1.6,8.3,8.3c0,6.7-0.1,86.1,0,86.1c0.1,0,3.2-2.4,6.4-4.9c3.2-2.5,6.3-4.9,6.9-5.1c3.4-1.5,7.7,1.7,7.7,5.8
		c0,3.4,0.2,3.2-30.4,27.6c-15.9,12.7-29.6,23.6-30.4,24.3c-19.4,15.6-29.9,23.8-30.7,24.1C51,4353.3,48.9,4353.3,47.8,4352.9z
		 M111.1,4290.5v-91.1H75.4c0,0,0,51.2,0,58.2s-1.2,8.3-8.3,8.3s-27.4,0-34,0c-6.7,0-8.3-1.4-8.3-8.3c0-6.9,0-58.2,0-58.2H-11v91
		c0,0,61,48.6,61.2,48.5C50.3,4338.8,111.1,4290.5,111.1,4290.5z"/>
</g>
</svg>
