<?xml version="1.0" encoding="utf-8"?>
<!DOCTYPE svg PUBLIC "-//W3C//DTD SVG 1.1//EN" "http://www.w3.org/Graphics/SVG/1.1/DTD/svg11.dtd">
<svg version="1.1" xmlns="http://www.w3.org/2000/svg" xmlns:xlink="http://www.w3.org/1999/xlink" x="0px" y="0px"
	 width="30.4px" height="32px" viewBox="0 0 30.4 32" enable-background="new 0 0 30.4 32" xml:space="preserve">
<path fill="#78AFCC" d="M23.8,21.1c-0.1,0.1-0.2,0.2-0.3,0.3c-0.1,0.2-0.1,0.2-0.1,2v1.8h-1.8c-2,0-2,0-2.3,0.4
	c-0.1,0.2-0.1,0.3-0.1,0.9s0,0.7,0.1,0.8c0.2,0.3,0.3,0.4,2.3,0.4h1.8v1.8c0,2,0,2,0.4,2.3c0.2,0.1,0.2,0.1,0.9,0.1
	c0.7,0,0.7,0,0.9-0.1c0.3-0.2,0.4-0.3,0.4-2.3v-1.8h1.8c1.7,0,1.8,0,2-0.1c0.4-0.2,0.5-0.4,0.4-1.2c0-0.6,0-0.7-0.1-0.8
	c-0.2-0.3-0.3-0.4-2.3-0.4H26v-1.8c0-2,0-2-0.4-2.3C25.4,21,25.3,21,24.8,21C24.1,21,23.9,21,23.8,21.1z"/>
<g>
	<path fill="#C1CCDA" d="M6.6,0.3c-0.9,0.2-1.9,1.1-2.1,2c0,0.2-0.1,2.5-0.1,6.6v6.3h-2H0.3v6.4c0,6.2,0,6.4,0.1,6.8
		c0.2,0.6,0.4,1.1,0.9,1.5c0.5,0.5,0.9,0.7,1.5,0.9c0.4,0.1,0.6,0.1,6.8,0.1h6.4V30v-0.8H11H6.1V15.8V2.5l0.1-0.2
		C6.3,2.2,6.4,2.1,6.5,2c0.2-0.1,0.7-0.1,9.1-0.1h8.9L24.6,2c0.1,0.1,0.2,0.2,0.3,0.3C25,2.5,25,3,25,10v7.5h0.8h0.8V9.9
		c0-4.9,0-7.7-0.1-7.8c-0.1-0.6-0.7-1.4-1.3-1.7C24.6,0.1,6.7,0.3,6.6,0.3z M4.4,23.1v6.2H3.8c-0.5,0-0.6,0-0.9-0.2
		c-0.4-0.2-0.6-0.4-0.8-0.8L2.1,28v-5.5V17h1.3h1.1V23.1z"/>
	<path fill="#C1CCDA" d="M9.4,6.2V7H16h6.6V6.2V5.4H16H9.4V6.2z"/>
	<path fill="#C1CCDA" d="M9.4,18.5h4.4h4.4l0.5-0.2c0.3-0.1,0.7-0.3,1-0.4c0.5-0.1,0.6-0.2,1.8-0.2h1.3v-4.2V9.4h-6.6l-6.8,0v4.6
		L9.4,18.5z M20.9,14v2.9H16h-4.9V14v-2.9H16h4.9V14z"/>
	<path fill="#C1CCDA" d="M9.4,22.6h3.3H16v-0.4c0-0.4,0.2-1,0.2-1.2c0-0.1-0.2-0.1-3.5-0.1H9.4V22.6z"/>
	<path fill="#C1CCDA" d="M9.4,25.2V26h3.3H16v-0.8v-0.8h-3.3H9.4V25.2z"/>
</g>
</svg>
