<?xml version="1.0" encoding="utf-8"?>
<!DOCTYPE svg PUBLIC "-//W3C//DTD SVG 1.1//EN" "http://www.w3.org/Graphics/SVG/1.1/DTD/svg11.dtd">
<svg version="1.1" xmlns="http://www.w3.org/2000/svg" xmlns:xlink="http://www.w3.org/1999/xlink" x="0px" y="0px"
	 width="32px" height="32px" viewBox="-51 667.9 32 32" enable-background="new -51 667.9 32 32" xml:space="preserve">
<g>
	<path fill="#C1CCDA" d="M-46.7,668.1c-1.4,0.3-2.4,1-3.1,2.3c-0.4,0.7-0.6,1.4-0.8,2.5c-0.1,0.7-0.1,1-0.1,2.8c0,1.8,0,2.1,0.1,2.8
		c0.5,2.8,1.7,4.5,3.6,5c0.6,0.2,1.9,0.2,2.6,0c1.8-0.5,3-2,3.5-4.5c0.2-1.1,0.3-2,0.2-3.6c0-1.8-0.2-2.7-0.6-3.8
		c-0.3-1-0.7-1.6-1.4-2.3c-0.5-0.5-0.6-0.6-1.1-0.8C-44.6,668-45.7,667.9-46.7,668.1z M-44.8,670.2c0.9,0.4,1.5,1.6,1.7,3.4
		c0.1,1,0.1,3.3,0,4.3c-0.3,2.4-1.2,3.6-2.7,3.6c-1.4,0-2.2-1-2.6-3.4c-0.1-0.8-0.1-4.3,0-5.1c0.3-1.5,0.7-2.4,1.4-2.8
		C-46.3,670-45.4,669.9-44.8,670.2z"/>
	<path fill="#C1CCDA" d="M-39.4,680.8c-3.8,6.8-6.9,12.4-6.9,12.5c0,0,0.6,0,1.2,0l1.2,0l6.9-12.4c3.8-6.8,6.9-12.4,6.9-12.4
		c0,0-0.6,0-1.2,0h-1.2L-39.4,680.8z"/>
	<path fill="#C1CCDA" d="M-31.7,678.1c-1.9,0.4-3,1.6-3.6,3.9c-0.2,0.9-0.4,1.8-0.4,3.1c0,1.2,0,2.8,0.1,2.7c0,0,0.1-0.2,0.2-0.4
		c0.3-0.9,0.8-1.7,1.6-2.5c0.5-0.5,0.5-0.5,0.5-0.8c0-0.8,0.4-2.4,0.7-2.9c0.2-0.4,0.6-0.7,0.9-0.9c0.3-0.1,0.4-0.1,1-0.1
		c0.6,0,0.7,0,1,0.2c0.7,0.4,1.2,1.2,1.5,2.3l0.1,0.6h1.1h1.2l0-0.2c-0.2-1.2-0.7-2.4-1.3-3.2c-0.6-0.8-1.5-1.4-2.4-1.7
		C-30,678-31.1,678-31.7,678.1z"/>
</g>
<path fill="#78AFCC" d="M-26.5,687.3c-0.1,0.1-0.3,0.2-0.4,0.4C-27,687.9-27,688-27,690v2h-2.1c-2,0-2.1,0-2.3,0.1
	c-0.4,0.2-0.5,0.5-0.5,1.4c0,0.7,0,0.8,0.2,1c0.3,0.4,0.4,0.4,2.6,0.4h2v2c0,2.3,0,2.3,0.4,2.6c0.2,0.1,0.3,0.1,1,0.2
	c0.7,0,0.8,0,1-0.1c0.5-0.3,0.5-0.3,0.5-2.7v-2h2c1.9,0,2.1,0,2.3-0.1c0.4-0.2,0.5-0.5,0.5-1.3c0-0.8-0.1-1.1-0.5-1.3
	C-20,692-20,692-22,692h-2.1v-2c0-1.9,0-2.1-0.1-2.3c-0.2-0.4-0.5-0.5-1.3-0.5C-26.1,687.2-26.3,687.2-26.5,687.3z"/>
</svg>
