<?xml version="1.0" encoding="utf-8"?>
<!-- Generator: Adobe Illustrator 18.0.0, SVG Export Plug-In . SVG Version: 6.00 Build 0)  -->
<!DOCTYPE svg PUBLIC "-//W3C//DTD SVG 1.1//EN" "http://www.w3.org/Graphics/SVG/1.1/DTD/svg11.dtd">
<svg version="1.1" xmlns="http://www.w3.org/2000/svg" xmlns:xlink="http://www.w3.org/1999/xlink" x="0px" y="0px"
	 width="140px" height="62px" viewBox="-2078 1737.1 50 18.7" enable-background="new -2078 1737.1 50 18.7" xml:space="preserve">
<g transform="translate(0.000000,659.000000) scale(0.100000,-0.100000)">
	<path fill="#F26622" d="M-20520.5-10825.9c0-26.2,0.1-43.5,0.3-45.3c1.4-12,8.6-18.3,22.6-19.5l2.3-0.2v7.3v7.3l-1.7,0.5
		c-2.6,0.7-4.6,2.3-5.8,4.4l-1,1.8l-0.1,43.1l-0.1,43.1h-8.2h-8.2V-10825.9z"/>
	<path fill="#F26622" d="M-20755.9-10837.3c-11.5-27.5-21-50.3-21.1-50.6c-0.2-0.5,0.4-0.6,8.6-0.6h8.9l15.4,36.5
		c8.5,20,15.7,37.1,16,38c0.3,0.9,0.7,1.5,1,1.5c0.3-0.1,1.2-2,2.1-4.3c0.9-2.3,3.3-8,5.2-12.5l3.5-8.3l2.1,1.9
		c2.1,1.9,8.3,7.5,10.1,9l0.9,0.8l-8,19.2l-8,19.2l-7.9,0.1l-7.9,0.1L-20755.9-10837.3z"/>
	<path fill="#F26622" d="M-20575.3-10814.9c-10.6-0.8-20.8-7-26.8-16.3c-7.6-11.7-8.3-27.1-1.8-39.8c5.3-10.4,14.8-17.3,25.9-19
		c3.6-0.5,9.7-0.2,13.3,0.7c4.7,1.1,9.1,3.5,12.5,6.6c0.9,0.8,1.8,1.4,2,1.3c0.2-0.1,0.3-1.7,0.3-3.9v-3.7h8.1h8.1v36.4v36.4h-8.1
		h-8.1v-2.6c0-1.9-0.1-2.6-0.4-2.6c-0.3,0-1.6,0.8-3,1.7C-20558.9-10815.9-20566.9-10814.2-20575.3-10814.9z M-20563.5-10828.9
		c4.5-0.8,9.8-2.9,12.5-4.9l1-0.8v-15.5v-15.5l-1.3-1.9c-1.9-2.8-4.6-5.1-7.6-6.6c-3.9-1.9-6.1-2.4-10.8-2.4c-3.7,0-4.3,0.1-6.8,1
		c-5.8,2.1-10.2,6-12.9,11.6c-2,4.1-2.7,7-2.7,11.6c0,4.3,0.8,7.6,2.7,11.5c1.1,2.2,2,3.4,4.3,5.7c2.5,2.5,3.4,3.2,5.7,4.3
		c1.5,0.7,3.6,1.5,4.5,1.8C-20572.5-10828.3-20566.9-10828.3-20563.5-10828.9z"/>
	<path fill="#F26622" d="M-20456.4-10814.8c-3.3-0.3-5.9-0.8-8.7-1.8c-11.6-4.2-20.1-13.6-23.3-26c-1-3.8-1.4-11.6-0.8-15.9
		c1.6-10.7,7.5-20.3,16.1-26c5.3-3.6,10.5-5.2,17-5.5c8.9-0.4,16.8,2.2,22.2,7.2c1.1,1,2.1,1.7,2.3,1.6c0.2-0.1,0.3-1.7,0.3-3.9
		v-3.7l8.2,0.1l8.1,0.1l0.1,36.3l0.1,36.3h-8.2h-8.2v-2.6c0-1.5-0.1-2.6-0.3-2.6c-0.2,0-1.4,0.7-2.7,1.6c-1.3,0.9-3.5,2-4.8,2.6
		C-20443.6-10815.3-20450.6-10814.3-20456.4-10814.8z M-20442-10829.5c3.5-0.9,6-1.9,8.8-3.7l1.9-1.1v-15.7v-15.7l-1-1.6
		c-2.5-3.9-7.3-7.2-12.2-8.6c-3-0.8-9.5-0.8-12.1,0c-3.7,1.1-6.3,2.7-9.4,5.8c-2.5,2.5-3.2,3.4-4.5,6c-2.2,4.5-2.6,6.4-2.6,11.6
		c0,3.1,0.2,4.9,0.6,6.4c2.3,8.4,8.4,14.8,16.1,16.8C-20453.1-10828.1-20446.4-10828.3-20442-10829.5z"/>
	<path fill="#F26622" d="M-20366-10814.9c-6.1-0.5-12.2-3.5-16.6-8c-0.9-0.9-1.8-1.6-2-1.6c-0.3,0-0.4,1-0.4,4.2v4.2h-8.1h-8.1
		v-36.4v-36.4h8.1h8.1v25.5v25.5l2.5,2c2.6,2,5.8,3.8,8.9,4.9c2.3,0.8,7.3,1.6,10.3,1.6h2.3v7.4v7.4l-1,0
		C-20362.8-10814.6-20364.5-10814.7-20366-10814.9z"/>
	<path fill="#F26622" d="M-20323.7-10814.7c-16.7-1-30.2-12.9-33.6-29.8c-0.8-4-0.9-11.3-0.1-15.3c2.8-14.7,12.7-25.9,26.2-29.4
		c3.6-1,10-1.2,14-0.5c6.1,1.1,11.1,3.4,14.8,6.9c1.1,1,2.1,1.7,2.3,1.6c0.2-0.1,0.3-1.7,0.3-3.9v-3.7h8.1h8.1v36.4v36.4h-8.1h-8.1
		v-2.6c0-1.7-0.1-2.6-0.4-2.6c-0.2,0-1.4,0.7-2.7,1.6c-3.1,2.1-6.4,3.4-10.3,4.2C-20316.4-10814.9-20320.9-10814.6-20323.7-10814.7z
		 M-20310.5-10829.5c3.5-0.9,6.6-2.2,9-3.8l1.6-1.1v-15.6v-15.6l-1.1-1.7c-2.6-3.9-7.4-7.3-12.2-8.4c-8.3-2-15.7-0.1-21.4,5.4
		c-5,4.9-7.6,11.6-7.3,19c0.2,4.5,0.8,6.7,2.7,10.7c1.2,2.6,1.9,3.5,4.2,5.8c3.1,3.1,5.9,4.8,9.8,5.8
		C-20321.6-10828.1-20314.8-10828.3-20310.5-10829.5z"/>
	<path fill="#F26622" d="M-20688-10816.3c0-0.1,7.2-16.5,16.1-36.2l16.1-35.9l8.4,0.1l8.4,0.1l16.1,35.9c8.9,19.7,16.1,36,16.1,36.1
		c0,0.1-3.9,0.2-8.7,0.2l-8.8-0.1l-11.3-26.4c-8.6-20.2-11.4-26.4-11.8-26.3c-0.3,0.1-4.4,9.1-11.8,26.5l-11.3,26.4h-8.7
		C-20684.1-10816.1-20688-10816.2-20688-10816.3z"/>
	<path fill="#0FB3E3" d="M-20696.3-10832.6c-9.9-7.9-22.1-20.2-29.3-29.7c-0.7-0.9-1.4-1.7-1.5-1.7c-0.1,0-2,2.2-4.2,4.8l-4,4.8
		l-0.5-1c-0.3-0.6-1.3-2.9-2.2-5.1l-1.7-4.1l2.2-3.5c2.9-4.6,4.2-6.7,7.5-12.6l2.8-5l3.6,6.3c9.6,17,19,29.5,30.9,41.2l3.1,3
		l-1.1,2.6c-0.6,1.4-1.2,2.7-1.3,2.8C-20692.2-10829.5-20694.1-10830.8-20696.3-10832.6z"/>
	<path fill="#F26622" d="M-20695.4-10854.3c-4.7-5.3-9.1-11-8.9-11.5c0.1-0.3,2.3-5.5,4.8-11.5l4.7-11l8.9-0.1l8.9-0.1l-0.4,1
		c-6,14.3-14.6,34.9-14.9,35.4C-20692.7-10851.3-20692.8-10851.4-20695.4-10854.3z"/>
	<path fill="#919296" d="M-20719-10941.4v-13.7h1.3h1.3v3.3v3.3l1.1,1c0.6,0.6,1.2,1,1.3,1s1.9-2,4-4.4l3.8-4.4h1.9h1.9l-0.8,0.9
		c-0.5,0.5-2.7,2.9-4.9,5.4l-4.1,4.5l4.1,4l4.1,3.9h-2h-1.9l-3.9-4.2c-2.2-2.3-4.1-4.2-4.2-4.2c-0.2,0-0.3,3.8-0.3,8.6v8.6h-1.3
		h-1.3V-10941.4z"/>
	<path fill="#919296" d="M-20592.9-10939.8c0-11.5,0-12.3,0.6-13.3c0.7-1.2,1.9-1.9,3.7-2.2c1.1-0.2,1.2-0.2,1.2,0.6
		c0,0.5,0.1,1,0.2,1.3c0.1,0.4,0,0.5-0.5,0.5c-0.4,0-1.1,0.4-1.6,0.8l-0.9,0.8l-0.1,11.8l-0.1,11.8h-1.3h-1.3V-10939.8z"/>
	<path fill="#919296" d="M-20466.9-10939.8c0-11.5,0-12.3,0.6-13.3c0.7-1.2,1.9-1.9,3.7-2.2c1.1-0.2,1.2-0.2,1.2,0.6
		c0,0.5,0.1,1,0.2,1.3c0.1,0.4,0,0.5-0.5,0.5c-0.4,0-1.1,0.4-1.6,0.8l-0.9,0.8l-0.1,11.8l-0.1,11.8h-1.3h-1.3V-10939.8z"/>
	<path fill="#919296" d="M-20777.2-10942v-13.1h1.5h1.5v10.4c0,7.4,0.1,10.3,0.4,10.2c0.2-0.1,2.5-4.7,5.1-10.4l4.7-10.2h1.2h1.2
		l4.7,10.2c2.6,5.7,4.9,10.3,5.1,10.4c0.3,0.1,0.4-2.8,0.4-10.2v-10.4h1.5h1.5v13.1v13.1l-2-0.1l-2-0.1l-4.9-11
		c-2.7-6-5.1-11-5.3-11s-1.4,2.4-2.7,5.3c-1.3,2.9-3.6,7.9-4.9,11l-2.6,5.7l-2,0.1l-2,0.1V-10942z"/>
	<path fill="#919296" d="M-20534.4-10933.3v-3.1h-1.5h-1.5v-1.3v-1.3h1.4h1.4l0.1-5.9c0.1-5.6,0.2-6,0.9-7.4c1.1-1.9,3-2.9,5.5-2.9
		c2,0,3.5,0.4,3.5,0.9c0,0.2-0.1,0.7-0.3,1.1c-0.3,0.7-0.4,0.7-1.9,0.5c-1.2-0.3-1.8-0.2-2.8,0.2c-1.9,0.8-2.2,1.8-2.2,8.1v5.3h2.9
		h2.9v1.3v1.3h-2.9h-2.9v3.1v3.1h-1.5h-1.5V-10933.3z"/>
	<path fill="#919296" d="M-20390.9-10933.3v-3.1h-1.5h-1.5v-1.3v-1.3h1.4h1.4l0.1-5.9c0.1-5.6,0.2-6,0.9-7.4c1.1-1.9,3-2.9,5.5-2.9
		c2,0,3.5,0.4,3.5,0.9c0,0.2-0.1,0.7-0.3,1.1c-0.3,0.7-0.4,0.7-1.9,0.5c-1.2-0.3-1.8-0.2-2.8,0.2c-1.9,0.8-2.2,1.8-2.2,8.1v5.3h2.9
		h2.9v1.3v1.3h-2.9h-2.9v3.1v3.1h-1.5h-1.5V-10933.3z"/>
	<path fill="#919296" d="M-20738.8-10937.1c-4.2-2.2-6.1-6.9-4.7-11.8c1.7-5.7,8.5-8.3,13.2-5.1c1.6,1,1.8,1,1.8-0.2
		c0-0.9,0.1-1,1.5-1h1.5v9.4v9.4h-1.5c-1.2,0-1.5-0.1-1.5-0.6c0-0.8,0.1-0.8-2,0.2C-20733-10935.6-20736.1-10935.7-20738.8-10937.1z
		 M-20730-10939.4l1.5-0.7l0.1-4.8c0.1-4.5,0-4.8-0.6-5.8c-0.9-1.3-3-2.2-5-2.2c-4,0-6.9,3.1-6.9,7.2
		C-20740.9-10940-20735.3-10936.8-20730-10939.4z"/>
	<path fill="#919296" d="M-20682-10936.4c-0.5-0.2-1.6-0.8-2.3-1.3c-0.7-0.5-1.4-0.9-1.5-0.9c-0.1,0-0.2,0.5-0.2,1.1
		c0,1.1,0,1.1-1.3,1.1h-1.3v-9.4v-9.4h1.3h1.3v6.5c0,6.5,0,6.5,0.8,7.6c0.9,1.2,2.9,2.3,4.9,2.6c1.8,0.3,4-0.7,4.8-2.2
		c0.5-0.9,0.6-2,0.7-7.8l0.1-6.7h1.5h1.5l-0.1,6.9c-0.1,6.6-0.1,6.9-0.9,8.4c-0.5,0.9-1.4,2.1-2,2.6c-1.1,0.9-1.5,1-3.7,1.1
		C-20679.9-10936.1-20681.4-10936.2-20682-10936.4z"/>
	<path fill="#919296" d="M-20662.4-10937c-8.2-4.1-6.2-17.2,2.8-18.3c1.9-0.2,4.3,0.3,5.6,1.2c1.4,1,1.6,0.8,1.6-1.3
		c0-2.6-1-4.5-2.9-5.5c-1.3-0.7-1.8-0.7-4.2-0.6c-1.5,0.1-3.1,0.3-3.6,0.4c-0.8,0.2-0.9,0.1-1.1-0.8c-0.3-1.3,0-1.5,2.9-2
		c5.9-1,10.5,1.4,11.5,5.9c0.2,0.9,0.4,5.7,0.4,11.6v10h-1.4c-0.8,0-1.5-0.2-1.6-0.4c-0.1-0.3-0.6-0.2-1.7,0.2
		c-0.9,0.3-2.6,0.5-3.9,0.5C-20660-10936-20660.7-10936.2-20662.4-10937z M-20653.9-10939.1l1.5-0.5v-5.2c0-5.9-0.1-6.3-2.4-7.3
		c-3.6-1.6-7.9,0.1-9.5,3.8c-0.6,1.5-0.5,4.2,0.2,5.8C-20662.3-10938.9-20658.7-10937.6-20653.9-10939.1z"/>
	<path fill="#919296" d="M-20630.8-10936.4c-3.2-0.9-4.8-4.5-3.2-7c0.8-1.4,2.2-2.1,5.4-3.2c1.5-0.5,2.9-1.2,3.4-1.6
		c1-1.1,0.9-2.5-0.1-3.6c-1.1-1.1-3.8-1.4-6.5-0.6c-1,0.3-1.9,0.5-2.1,0.5c-0.4,0-1.1-2.2-0.7-2.4c0.6-0.4,4.5-1.1,5.8-1.1
		c2.3,0,4.5,0.8,5.8,2.1c1,1,1.1,1.4,1.2,3.2c0.1,1.9,0.1,2.1-0.9,3.2c-1.1,1.3-2.9,2.2-5.5,2.8c-2.2,0.5-3.6,1.7-3.6,2.9
		c0,1.2,1.2,2.4,2.7,2.7c0.9,0.2,4.1-0.3,5.7-0.9c0.4-0.1,0.6,0.1,0.8,1c0.4,1.3,0.5,1.2-1.8,1.9
		C-20626.1-10936-20629.3-10935.9-20630.8-10936.4z"/>
	<path fill="#919296" d="M-20613-10937.1c-4.2-2.2-6.1-6.9-4.7-11.8c1.7-5.7,8.5-8.3,13.2-5.1c1.6,1,1.8,1,1.8-0.2
		c0-0.9,0.1-1,1.5-1h1.5v9.4v9.4h-1.5c-1.2,0-1.5-0.1-1.5-0.6c0-0.8,0.1-0.8-2,0.2C-20607.3-10935.6-20610.3-10935.7-20613-10937.1z
		 M-20604.3-10939.4l1.5-0.7l0.1-4.8c0.1-4.5,0-4.8-0.6-5.8c-0.9-1.3-3-2.2-5-2.2c-4,0-6.9,3.1-6.9,7.2
		C-20615.2-10940-20609.6-10936.8-20604.3-10939.4z"/>
	<path fill="#919296" d="M-20577.6-10936.4c-3.7-1.3-6-4.9-6-9.2c0-2.8,0.4-4.2,1.7-5.9c2.3-3,6.2-4.3,10.5-3.6
		c1.2,0.2,2.6,0.5,3,0.7c0.7,0.3,0.8,0.5,0.5,1.4c-0.2,0.5-0.4,1-0.4,1.1c0,0-0.8-0.1-1.6-0.4c-2-0.6-5.4-0.6-6.9,0
		c-2.3,0.9-3.4,2.5-4.1,5.4l-0.2,0.9h7.3h7.3l-0.2,2.2c-0.3,3.1-1.6,5.4-3.6,6.7c-1.4,0.8-1.9,1-4,1
		C-20575.5-10936.1-20577-10936.2-20577.6-10936.4z M-20571.8-10939.2c1-0.6,1.9-1.9,2.3-3.4l0.2-0.9h-5.7c-3.1,0-5.7,0.1-5.7,0.2
		c0,0.5,1.3,2.7,2,3.3C-20576.8-10938.3-20573.9-10938-20571.8-10939.2z"/>
	<path fill="#919296" d="M-20558.8-10936.4c-3.2-0.9-4.8-4.5-3.2-7c0.8-1.4,2.2-2.1,5.4-3.2c1.5-0.5,2.9-1.2,3.4-1.6
		c1-1.1,0.9-2.5-0.1-3.6c-1.1-1.1-3.8-1.4-6.5-0.6c-1,0.3-1.9,0.5-2.1,0.5c-0.4,0-1.1-2.2-0.7-2.4c0.6-0.4,4.5-1.1,5.8-1.1
		c2.3,0,4.5,0.8,5.8,2.1c1,1,1.1,1.4,1.2,3.2c0.1,1.9,0.1,2.1-0.9,3.2c-1.1,1.3-2.9,2.2-5.5,2.8c-2.2,0.5-3.6,1.7-3.6,2.9
		c0,1.2,1.2,2.4,2.7,2.7c0.9,0.2,4.1-0.3,5.7-0.9c0.4-0.1,0.6,0.1,0.8,1c0.4,1.3,0.5,1.2-1.8,1.9
		C-20554.1-10936-20557.3-10935.9-20558.8-10936.4z"/>
	<path fill="#919296" d="M-20516.7-10937.1c-4.2-2.2-6.1-6.9-4.7-11.8c1.7-5.7,8.5-8.3,13.2-5.1c1.6,1,1.8,1,1.8-0.2
		c0-0.9,0.1-1,1.5-1h1.5v9.4v9.4h-1.5c-1.2,0-1.5-0.1-1.5-0.6c0-0.8,0.1-0.8-2,0.2C-20511-10935.6-20514-10935.7-20516.7-10937.1z
		 M-20507.9-10939.4l1.5-0.7l0.1-4.8c0.1-4.5,0-4.8-0.6-5.8c-0.9-1.3-3-2.2-5-2.2c-4,0-6.9,3.1-6.9,7.2
		C-20518.9-10940-20513.2-10936.8-20507.9-10939.4z"/>
	<path fill="#919296" d="M-20451.2-10936.4c-3.7-1.3-6-4.9-6-9.2c0-2.8,0.4-4.2,1.7-5.9c2.3-3,6.2-4.3,10.5-3.6
		c1.2,0.2,2.6,0.5,3,0.7c0.7,0.3,0.8,0.5,0.5,1.4c-0.2,0.5-0.4,1-0.4,1.1c0,0-0.8-0.1-1.6-0.4c-2-0.6-5.4-0.6-6.9,0
		c-2.3,0.9-3.4,2.5-4.1,5.4l-0.2,0.9h7.3h7.3l-0.2,2.2c-0.3,3.1-1.6,5.4-3.6,6.7c-1.4,0.8-1.9,1-4,1
		C-20449.1-10936.1-20450.7-10936.2-20451.2-10936.4z M-20445.4-10939.2c1-0.6,1.9-1.9,2.3-3.4l0.2-0.9h-5.7c-3.1,0-5.7,0.1-5.7,0.2
		c0,0.5,1.3,2.7,2,3.3C-20450.4-10938.3-20447.5-10938-20445.4-10939.2z"/>
	<path fill="#919296" d="M-20432.4-10936.4c-3.2-0.9-4.8-4.5-3.2-7c0.8-1.4,2.2-2.1,5.4-3.2c1.5-0.5,2.9-1.2,3.4-1.6
		c1-1.1,0.9-2.5-0.1-3.6c-1.1-1.1-3.8-1.4-6.5-0.6c-1,0.3-1.9,0.5-2.1,0.5c-0.4,0-1.1-2.2-0.7-2.4c0.6-0.4,4.5-1.1,5.9-1.1
		c2.3,0,4.5,0.8,5.8,2.1c1,1,1.1,1.4,1.2,3.2c0.1,1.9,0.1,2.1-0.9,3.2c-1.1,1.3-2.9,2.2-5.5,2.8c-2.2,0.5-3.6,1.7-3.6,2.9
		c0,1.2,1.2,2.4,2.7,2.7c0.9,0.2,4.1-0.3,5.7-0.9c0.4-0.1,0.6,0.1,0.8,1c0.4,1.3,0.5,1.2-1.8,1.9
		C-20427.7-10936-20430.9-10935.9-20432.4-10936.4z"/>
	<path fill="#919296" d="M-20415.2-10936.4c-3.2-0.9-4.8-4.5-3.2-7c0.8-1.4,2.2-2.1,5.4-3.2c1.5-0.5,2.9-1.2,3.4-1.6
		c1-1.1,0.9-2.5-0.1-3.6c-1.1-1.1-3.8-1.4-6.5-0.6c-1,0.3-1.9,0.5-2.1,0.5c-0.4,0-1.1-2.2-0.7-2.4c0.6-0.4,4.5-1.1,5.8-1.1
		c2.3,0,4.5,0.8,5.8,2.1c1,1,1.1,1.4,1.2,3.2c0.1,1.9,0.1,2.1-0.9,3.2c-1.1,1.3-2.9,2.2-5.5,2.8c-2.2,0.5-3.6,1.7-3.6,2.9
		c0,1.2,1.2,2.4,2.7,2.7c0.9,0.2,4.1-0.3,5.7-0.9c0.4-0.1,0.6,0.1,0.8,1c0.4,1.3,0.5,1.2-1.8,1.9
		C-20410.6-10936-20413.8-10935.9-20415.2-10936.4z"/>
	<path fill="#919296" d="M-20373.2-10937.1c-4.2-2.2-6.1-6.9-4.7-11.8c1.7-5.7,8.5-8.3,13.2-5.1c1.6,1,1.8,1,1.8-0.2
		c0-0.9,0.1-1,1.5-1h1.5v9.4v9.4h-1.5c-1.2,0-1.5-0.1-1.5-0.6c0-0.8,0.1-0.8-2,0.2
		C-20367.5-10935.6-20370.5-10935.7-20373.2-10937.1z M-20364.4-10939.4l1.5-0.7l0.1-4.8c0.1-4.5,0-4.8-0.6-5.8
		c-0.9-1.3-3-2.2-5-2.2c-4,0-6.9,3.1-6.9,7.2C-20375.4-10940-20369.7-10936.8-20364.4-10939.4z"/>
	<path fill="#919296" d="M-20315.8-10936.4c-0.5-0.2-1.6-0.8-2.3-1.3c-0.7-0.5-1.4-0.9-1.5-0.9c-0.1,0-0.2,0.5-0.2,1.1
		c0,1.1,0,1.1-1.3,1.1h-1.3v-9.4v-9.4h1.3h1.3v6.5c0,6.5,0,6.5,0.8,7.6c0.9,1.2,2.9,2.3,4.9,2.6c1.8,0.3,4-0.7,4.8-2.2
		c0.5-0.9,0.6-2,0.7-7.8l0.1-6.7h1.5h1.5l-0.1,6.9c-0.1,6.6-0.1,6.9-0.9,8.4c-0.5,0.9-1.4,2.1-2,2.6c-1.1,0.9-1.5,1-3.7,1.1
		C-20313.7-10936.1-20315.2-10936.2-20315.8-10936.4z"/>
	<path fill="#919296" d="M-20296.3-10937.1c-2.4-1.2-3.9-3-4.7-5.5c-1.8-6,1.8-12.1,7.6-12.8c1.9-0.2,4.3,0.3,5.6,1.2
		c1.4,1,1.6,0.8,1.6-1.3c0-2.6-1-4.5-2.9-5.5c-1.3-0.7-1.8-0.7-4.2-0.6c-1.5,0.1-3.1,0.3-3.6,0.4c-0.8,0.2-0.9,0.1-1.1-0.8
		c-0.3-1.3,0-1.5,2.9-2c5.9-1,10.5,1.4,11.5,5.9c0.2,0.9,0.4,5.7,0.4,11.6v10h-1.4c-0.8,0-1.5-0.2-1.6-0.4c-0.1-0.3-0.6-0.2-1.7,0.2
		c-0.9,0.3-2.6,0.5-3.9,0.5C-20293.9-10936-20294.5-10936.2-20296.3-10937.1z M-20287.7-10939.1l1.5-0.5v-5.2c0-5.9-0.1-6.3-2.4-7.3
		c-3.6-1.6-7.9,0.1-9.5,3.8c-0.6,1.5-0.5,4.2,0.2,5.8C-20296.1-10938.9-20292.5-10937.6-20287.7-10939.1z"/>
	<path fill="#919296" d="M-20698.3-10945.7v-9.4h1.5h1.5v9.4v9.4h-1.5h-1.5V-10945.7z"/>
	<path fill="#919296" d="M-20498.2-10936.5c0-0.1,1.5-2,3.2-4.3s3.2-4.3,3.2-4.5c0-0.3-3.7-5.3-6.9-9.3c-0.2-0.3,0.1-0.4,1.3-0.4
		h1.6l2.8,3.7c2.5,3.3,2.9,3.7,3.3,3.2c0.3-0.3,1.6-1.9,2.9-3.7l2.4-3.2l1.7,0h1.7l-3.7,4.8l-3.7,4.8l3.2,4.1c4.2,5.4,4,4.9,2.1,4.9
		h-1.6l-2.4-3.2c-1.4-1.8-2.6-3.3-2.7-3.4c-0.2-0.1-1.5,1.4-2.8,3.2l-2.6,3.4h-1.5
		C-20497.6-10936.4-20498.2-10936.4-20498.2-10936.5z"/>
	<path fill="#919296" d="M-20354.7-10936.5c0-0.1,1.5-2,3.2-4.3s3.2-4.3,3.2-4.5c0-0.3-3.7-5.3-6.9-9.3c-0.2-0.3,0.1-0.4,1.3-0.4
		h1.6l2.8,3.7c2.5,3.3,2.9,3.7,3.3,3.2c0.3-0.3,1.6-1.9,2.9-3.7l2.4-3.2l1.7,0h1.7l-3.7,4.8l-3.7,4.8l3.2,4.1c4.2,5.4,4,4.9,2.1,4.9
		h-1.6l-2.4-3.2c-1.4-1.8-2.6-3.3-2.7-3.4c-0.2-0.1-1.5,1.4-2.8,3.2l-2.6,3.4h-1.5
		C-20354.1-10936.4-20354.7-10936.4-20354.7-10936.5z"/>
	<path fill="#919296" d="M-20332.4-10945.7v-9.4h1.5h1.5v9.4v9.4h-1.5h-1.5V-10945.7z"/>
</g>
</svg>
