<?xml version="1.0" encoding="utf-8"?>
<!DOCTYPE svg PUBLIC "-//W3C//DTD SVG 1.1//EN" "http://www.w3.org/Graphics/SVG/1.1/DTD/svg11.dtd">
<svg version="1.1" xmlns="http://www.w3.org/2000/svg" xmlns:xlink="http://www.w3.org/1999/xlink" x="0px" y="0px"
	 width="32px" height="29.8px" viewBox="31 724.4 32 29.8" enable-background="new 31 724.4 32 29.8" xml:space="preserve">
<g transform="translate(0.000000,645.000000) scale(0.100000,-0.100000)">
	<path d="M464.3-795.3c-11-3.1-20.4-13.6-25.6-28.6l-1.5-4.4l-4.4-1.5c-10-3.5-17.9-8.3-24.7-15.1c-7.4-7.5-10.1-13.3-10.1-22
		c0-5.6,0.6-8.1,3.5-13.7c2.2-4.1,9.8-12,14.9-15.3c10.2-6.6,22.4-11,37.3-13.3c7.7-1.2,25-1.2,32.8,0c28.7,4.4,48.9,17.2,54.8,34.6
		c1.3,3.7,1.3,11.8,0,15.4c-1.9,5.7-4.2,9.2-9.2,14.3c-6.8,6.8-14.7,11.6-24.7,15.1l-4.4,1.5l-1.5,4.4c-4.8,13.9-13.4,24-23.4,27.8
		C474.2-794.6,467.9-794.2,464.3-795.3z"/>
	<path d="M333.7-831.9l-1.2-1.2v-21.4c0-12.8,0.2-22.5,0.5-24.3c2.1-12,9.8-24.2,23.6-37.6c5.2-5,17.1-15,18.6-15.5
		c0.6-0.2,0.7-2.8,0.7-14.7V-961h-31.4h-31.4l-1.2-1.2c-1.1-1.1-1.2-1.5-1.2-6s0.1-5,1.2-6l1.2-1.2h31.3h31.4l0.2-10.7
		c0.1-6.4,0-11-0.2-11.4c-0.2-0.3-2.2-1.8-4.4-3.3c-6.6-4.5-15.1-11.6-21.1-17.5c-12.4-12-19.5-22.2-23.3-33.8l-1.4-4.1l-0.2-16.3
		l-0.2-16.3l1.3-1.3c1.1-1.1,1.5-1.2,6-1.2c7.3,0,6.9-1,6.9,15.4c0,7.3,0.2,14.7,0.5,16.3c1.6,8.9,10.8,21.3,24.9,33.4
		c6.2,5.4,17,13.6,17.8,13.6c0.3,0,1.2-1.3,2.1-2.8c9.9-16.5,34.5-38.5,63.2-56.6l7.5-4.7l0.2,59.7l0.2,59.7l1.6,3.3
		c1.2,2.3,2.2,3.7,3.6,4.7c6.3,4.5,16.3,3.4,20.3-2.4c3.1-4.4,2.9,0.1,3.2-65.3l0.2-59.7l7.7,4.9c30.1,19,53.5,40.2,64.6,59
		c0.4,0.7,1,0.4,4.6-2.2c8.1-5.9,13.8-10.9,20.8-17.8c7.5-7.5,11.6-12.6,14.5-18.2c3.1-5.8,3.3-7.3,3.3-23.5v-14.4l1.2-1.2
		c1.1-1.1,1.5-1.2,6-1.2c4.6,0,4.9,0.1,6.1,1.2l1.2,1.3l-0.1,16.3c-0.2,14.6-0.3,16.6-1.2,19.6c-3.3,11.5-9.6,20.9-22.5,33.8
		c-7.9,7.8-13.1,12.3-22.7,19.2l-4.3,3.1l0.1,9.8c0.1,5.4,0.3,10.2,0.4,10.7c0.2,0.8,2.2,0.8,31.4,0.8h31.1l1.2,1.2
		c1.1,1.1,1.2,1.5,1.2,6s-0.1,5-1.2,6l-1.2,1.2h-31.1h-31.1l-0.2,2.6c-0.1,1.4-0.4,4.9-0.5,7.7c-0.2,4.5-0.7,7.9-1.9,14.6
		c-0.2,1.4,0,1.6,2.7,3.6c6,4.3,12.8,10,18.4,15.4c12.1,11.6,19.1,21.8,22.8,32.8l1.4,4.1l0.2,23.5l0.1,23.5l-1.2,1.2
		c-1.1,1.1-1.5,1.2-6.1,1.2s-5-0.1-6-1.2l-1.2-1.2v-21.4c0-16.5-0.1-22-0.7-23.8c-1.7-6.5-7.5-14.2-16-21.3
		c-9.1-7.7-24.6-17.2-34.7-21.3c-4.5-1.8-29.8-10-40.3-12.9c-21.3-6-32.9-6.8-49.7-3c-7.4,1.6-34.8,9.7-40.1,11.8
		c-1,0.4-5.6,1.8-10.3,3.1c-9.9,2.8-14.9,5.2-24.5,11.6c-17.5,11.7-28,23.8-29.7,34.2c-0.3,1.8-0.5,11.7-0.5,23.3
		c0,24.1,0.6,22-6.8,22C335.2-830.7,334.8-830.8,333.7-831.9z"/>
</g>
</svg>
