<?xml version="1.0" standalone="no"?>
<!DOCTYPE svg PUBLIC "-//W3C//DTD SVG 20010904//EN"
 "http://www.w3.org/TR/2001/REC-SVG-20010904/DTD/svg10.dtd">
<svg version="1.0" xmlns="http://www.w3.org/2000/svg"
 width="1500.000000pt" height="1500.000000pt" viewBox="0 0 1500.000000 1500.000000"
 preserveAspectRatio="xMidYMid meet">
<metadata>
Created by potrace 1.11, written by Peter Selinger 2001-2013
</metadata>
<g transform="translate(0.000000,1500.000000) scale(0.100000,-0.100000)"
fill="#cfcfcf" stroke="none">
<path d="M13643 14455 c-130 -28 -103 -4 -1130 -1029 l-963 -961 0 384 c0 423
-3 452 -63 566 -41 77 -145 181 -223 222 -129 68 221 63 -4014 63 -3412 0
-3842 -2 -3895 -15 -185 -49 -341 -208 -390 -400 -13 -52 -15 -588 -15 -4740
l0 -4680 -1208 -1210 c-1092 -1093 -1211 -1215 -1232 -1265 -53 -128 -50 -254
9 -374 24 -49 69 -100 233 -263 178 -177 212 -206 273 -235 66 -31 76 -33 181
-33 107 0 112 1 185 37 72 37 272 236 6536 6495 5856 5852 6465 6464 6492
6519 42 86 57 175 43 258 -21 129 -44 161 -269 388 -221 222 -259 250 -370
273 -81 17 -99 17 -180 0z m-2953 -2233 l0 -617 -262 -260 c-144 -143 -256
-253 -250 -244 21 29 51 129 58 193 7 70 -9 162 -38 219 -40 80 -129 152 -223
182 -19 7 -19 8 5 23 61 40 139 126 160 175 51 117 30 252 -53 358 -82 103
-194 157 -342 166 -203 12 -372 -72 -448 -224 -33 -63 -61 -163 -51 -173 5 -4
59 -15 119 -24 61 -10 117 -19 125 -22 11 -3 20 12 32 54 48 162 246 204 328
70 24 -39 27 -122 6 -171 -27 -66 -111 -117 -193 -117 -22 0 -33 -6 -37 -17
-9 -31 -30 -213 -25 -217 3 -3 25 0 49 5 115 27 204 -9 254 -101 24 -45 29
-64 29 -130 1 -65 -4 -86 -27 -135 -66 -134 -228 -163 -333 -59 -32 33 -47 58
-60 104 -12 46 -20 59 -32 56 -9 -3 -69 -10 -134 -17 -134 -14 -137 -16 -118
-88 46 -175 179 -305 352 -346 122 -28 282 -14 382 36 32 16 -35 -56 -288
-310 l-330 -331 -2767 0 -2768 0 0 1290 0 1290 3440 0 3440 0 0 -618z m-5357
-3268 c60 -20 131 -84 165 -148 l27 -51 0 -640 0 -640 -23 -46 c-31 -63 -86
-117 -152 -148 l-55 -26 -625 0 -625 0 -57 27 c-73 34 -132 95 -158 164 -19
53 -20 75 -20 663 0 708 -3 679 88 771 93 93 55 88 768 89 540 1 626 -1 667
-15z m2578 1 c24 -9 53 -22 64 -31 18 -14 -20 -54 -750 -784 l-770 -770 -17
23 c-47 59 -49 85 -46 743 l3 619 27 51 c33 62 104 127 161 148 64 22 1263 23
1328 1z m-2580 -2580 c24 -9 53 -22 64 -31 18 -14 -20 -54 -750 -784 -580
-580 -772 -767 -782 -759 -7 6 -21 35 -33 65 -19 53 -20 75 -20 663 0 708 -3
679 88 771 93 93 55 88 768 89 534 1 627 -1 665 -14z"/>
<path d="M7438 12377 c-44 -106 -193 -242 -345 -315 l-73 -34 0 -133 0 -133
53 20 c84 32 177 84 255 143 l72 55 0 -555 0 -556 148 3 147 3 3 773 2 772
-122 0 -123 0 -17 -43z"/>
<path d="M8434 12400 c-145 -38 -231 -100 -288 -209 -31 -59 -65 -172 -66
-217 0 -12 259 -40 283 -31 8 3 17 27 21 53 15 113 88 177 202 177 126 0 194
-72 194 -203 0 -52 -6 -78 -31 -130 -27 -57 -60 -95 -268 -300 -239 -235 -309
-317 -361 -420 -34 -67 -70 -181 -70 -221 l0 -29 515 0 515 0 0 140 0 140
-290 0 c-221 0 -290 3 -290 12 0 7 96 107 214 223 228 223 284 295 332 421
103 274 -38 541 -315 600 -91 19 -212 17 -297 -6z"/>
<path d="M11123 8488 l-422 -423 -3 -295 c-3 -275 -4 -298 -24 -341 -31 -66
-78 -114 -142 -146 l-57 -28 -297 -5 -298 -5 -885 -885 -885 -885 0 -277 c0
-248 -2 -283 -19 -328 -29 -77 -73 -125 -149 -162 l-67 -33 -290 -3 -291 -3
-882 -882 -881 -882 -3 -295 c-3 -284 -4 -297 -26 -341 -31 -64 -85 -117 -151
-148 -56 -26 -57 -26 -346 -29 l-290 -3 -422 -422 c-233 -232 -423 -425 -423
-430 0 -4 1628 -6 3618 -5 l3617 3 65 23 c187 68 333 228 370 406 7 35 9 1157
8 3649 l-3 3597 -422 -422z m-612 -2124 c66 -31 114 -78 146 -142 l28 -57 0
-1925 0 -1925 -21 -46 c-31 -66 -78 -114 -142 -146 l-57 -28 -635 0 -635 0
-57 28 c-64 32 -111 80 -142 146 l-21 46 -3 1895 c-2 1350 0 1910 8 1946 22
101 93 181 193 216 48 16 97 17 672 15 607 -2 621 -2 666 -23z m-2595 -2571
c71 -24 157 -112 178 -183 24 -79 24 -1245 1 -1311 -36 -101 -109 -168 -214
-194 -51 -14 -146 -15 -658 -13 l-598 3 -56 26 c-66 31 -120 84 -151 148 l-23
46 0 640 0 640 27 51 c33 62 104 127 161 148 35 12 142 15 663 15 555 1 626
-1 670 -16z"/>
</g>
</svg>
