<?xml version="1.0" encoding="utf-8"?>
<!DOCTYPE svg PUBLIC "-//W3C//DTD SVG 1.1//EN" "http://www.w3.org/Graphics/SVG/1.1/DTD/svg11.dtd">
<svg version="1.1" xmlns="http://www.w3.org/2000/svg" xmlns:xlink="http://www.w3.org/1999/xlink" x="0px" y="0px"
	 width="26px" height="29.3px" viewBox="166 883.9 26 29.3" enable-background="new 166 883.9 26 29.3" xml:space="preserve">
<g transform="translate(0.000000,1000.000000) scale(0.100000,-0.100000)">
	<path d="M1727.1,1160.1c-6.2-1-11.8-5.2-14.6-11c-1.8-3.8-2-4.9-2-19.1c0-11.6,0.1-12.8,0.6-15c1-3.9,2.3-6.2,5.2-9.1
		c4.1-4.1,8.2-5.9,13.7-5.9c9,0,16.5,5.8,18.9,14.5c0.6,2.1,0.6,3.1,0.6,15.5c0,15-0.1,15.5-2.2,19.7c-1.6,3.1-5.1,6.7-7.8,8.1
		C1735.8,1159.9,1731,1160.7,1727.1,1160.1z"/>
	<path d="M1847.1,1160.2c-6.6-1-11.9-5-14.9-11.1c-1.8-3.5-1.8-4.5-1.8-19c0-14.4,0.1-15,1.8-18.8c2.5-5.4,7.3-9.3,13.1-10.8
		c1-0.2,3.1-0.5,4.6-0.5c5.1,0,9.5,1.7,13.1,5.2c2.5,2.4,4.2,5.1,5.4,8.3l0.9,2.4v14.3v14.3l-0.8,2.2c-2.2,6.1-6.7,10.5-12.6,12.5
		C1853.3,1160.2,1849.5,1160.5,1847.1,1160.2z"/>
	<path d="M1677.1,1129.8c-7.4-1.4-13.1-6.4-15.6-13.9l-0.7-2.2V999.4V885l0.7-2.2c1.2-3.5,2.5-5.7,5-8.2c2.6-2.6,5.1-4.2,8.6-5.3
		l2.3-0.7h112.9h112.9l2.3,0.7c3.5,1.1,6,2.6,8.6,5.3c2.5,2.5,3.8,4.7,5,8.2l0.7,2.2v114.4v114.4l-0.7,2.2c-1.2,3.6-2.5,5.7-5.1,8.3
		c-1.8,1.8-3.1,2.8-4.8,3.6c-4.3,2.2-4.9,2.2-17.7,2.2H1880l-0.2-7.9c-0.2-7.4-0.2-8-1-10.6c-1.6-5.3-4.2-9.5-8.1-13.3
		c-3.8-3.7-8.1-6.1-13.6-7.6c-3.5-1-10.6-1-14.2,0c-10.8,2.9-18.9,11-21.8,21.9c-0.7,2.6-0.8,3.7-1,10.3l-0.1,7.3h-29.8h-29.8
		l-0.1-7.3c-0.2-6.6-0.2-7.6-1-10.3c-2.9-10.9-10.9-19-21.8-21.9c-3.7-1-10.7-1-14.2,0c-5.6,1.5-9.9,3.9-13.6,7.6
		c-3.9,3.8-6.5,8-8.1,13.3c-0.8,2.5-0.8,3.2-1,10.6l-0.2,7.9l-10.6,0.1C1682.4,1130.2,1678.6,1130.1,1677.1,1129.8z M1899.9,974.3
		v-85.5h-109.6h-109.6v85.5v85.5h109.6h109.6V974.3z"/>
	<path d="M1700.7,1024.6v-15.1h14.9h14.9l-0.1,15l-0.1,15l-14.8,0.1l-14.9,0.1V1024.6z"/>
	<path d="M1750.5,1039.5c-0.1-0.1-0.2-6.9-0.2-15.1v-14.9h15.1h15.1l-0.1,15l-0.1,15l-14.8,0.1
		C1757.3,1039.7,1750.5,1039.6,1750.5,1039.5z"/>
	<path d="M1800.3,1039.5c-0.1-0.1-0.2-6.9-0.2-15.1v-14.9h15.1h15.1l-0.1,15l-0.1,15l-14.8,0.1
		C1807.2,1039.7,1800.4,1039.6,1800.3,1039.5z"/>
	<path d="M1850.2,1039.5c-0.1-0.1-0.2-6.9-0.2-15.1v-14.9h14.9h14.9v15.1v15.1h-14.7C1857.1,1039.7,1850.3,1039.6,1850.2,1039.5z"/>
	<path d="M1700.7,974.1v-15.1l14.9,0.1l14.8,0.1l0.1,15l0.1,15h-14.9h-14.9V974.1z"/>
	<path d="M1750.3,974.2l0.1-15h14.9h14.9l0.1,15l0.1,15h-15.1h-15.1L1750.3,974.2z"/>
	<path d="M1800.2,974.2l0.1-15h14.9h14.9l0.1,15l0.1,15h-15.1h-15.1L1800.2,974.2z"/>
	<path d="M1850.1,974.2l0.1-15l14.9-0.1l14.8-0.1v15.1v15.1h-14.9H1850L1850.1,974.2z"/>
	<path d="M1700.6,923.9l0.1-15.1h14.9h14.9v15.1V939h-15h-15L1700.6,923.9z"/>
	<path d="M1750.2,923.9v-15.1h15.1h15.1v15.1V939h-15.1h-15.1V923.9z"/>
	<path d="M1800.1,923.9v-15.1h15.1h15.1v15.1V939h-15.1h-15.1V923.9z"/>
	<path d="M1850,923.9v-15.1h14.9h14.9l0.1,15.1l0.1,15.1h-15h-15V923.9z"/>
</g>
</svg>
