<?xml version="1.0" standalone="no"?>
<!DOCTYPE svg PUBLIC "-//W3C//DTD SVG 20010904//EN"
 "http://www.w3.org/TR/2001/REC-SVG-20010904/DTD/svg10.dtd">
<svg version="1.0" xmlns="http://www.w3.org/2000/svg"
 width="636.000000pt" height="684.000000pt" viewBox="0 0 636.000000 684.000000"
 preserveAspectRatio="xMidYMid meet">
<metadata>
Created by potrace 1.11, written by Peter Selinger 2001-2013
</metadata>
<g transform="translate(0.000000,684.000000) scale(0.100000,-0.100000)"
fill="#000000" stroke="none">
<path d="M3103 6770 c-144 -30 -262 -163 -278 -313 -6 -56 -2 -89 21 -168 4
-14 -8 -19 -63 -29 -261 -44 -537 -151 -738 -285 -352 -234 -641 -626 -735
-994 -34 -134 -40 -200 -50 -491 -18 -528 -58 -854 -155 -1255 -68 -285 -148
-502 -276 -755 -190 -375 -392 -644 -683 -907 l-89 -80 12 -69 c34 -195 194
-358 385 -393 40 -7 343 -11 912 -11 l852 0 7 -77 c17 -185 80 -352 186 -492
141 -187 321 -307 545 -363 125 -31 323 -31 448 0 224 56 404 176 545 363 106
140 169 307 186 492 l7 77 852 0 c569 0 872 4 912 11 191 35 351 198 385 393
l12 69 -89 80 c-292 264 -503 546 -692 923 -160 320 -262 645 -337 1073 -51
295 -72 519 -85 926 -10 318 -24 419 -82 590 -113 334 -401 696 -714 898 -201
130 -474 234 -727 278 -43 7 -67 15 -64 23 53 136 15 300 -91 397 -82 76 -210
112 -319 89z m314 -965 c485 -63 853 -304 1068 -700 106 -194 131 -311 139
-650 16 -629 101 -1166 262 -1653 155 -469 403 -920 681 -1239 l55 -63 -2442
0 -2442 0 55 63 c166 191 326 435 462 707 302 604 459 1319 481 2185 3 138 12
275 20 323 36 200 135 393 307 592 153 178 399 323 669 395 200 53 464 68 685
40z m-793 -4741 c9 -8 16 -32 16 -52 1 -130 61 -265 164 -368 103 -103 238
-163 368 -164 44 0 68 -21 68 -60 0 -43 -23 -60 -83 -60 -226 1 -463 152 -566
360 -44 91 -71 193 -71 277 0 60 17 83 60 83 16 0 36 -7 44 -16z"/>
</g>
</svg>
