<?xml version="1.0" encoding="utf-8"?>
<!DOCTYPE svg PUBLIC "-//W3C//DTD SVG 1.1//EN" "http://www.w3.org/Graphics/SVG/1.1/DTD/svg11.dtd">
<svg version="1.1" xmlns="http://www.w3.org/2000/svg" xmlns:xlink="http://www.w3.org/1999/xlink" x="0px" y="0px"
	 width="32px" height="28.1px" viewBox="76 748.9 32 28.1" enable-background="new 76 748.9 32 28.1" xml:space="preserve">
<g transform="translate(0.000000,684.000000) scale(0.100000,-0.100000)">
	<path d="M852.8-649.8c-6.6-0.7-13.7-3.4-19.7-7.5c-6.4-4.3-13.4-12.4-16.4-19.3c-5.2-11.5-5.4-25.9-0.4-37.7
		c4.6-11.1,15.9-21.6,27.6-25.6c2.5-0.9,8.1-2,10.5-2.2c0.8-0.1-18.9-0.2-43.8-0.3c-44.9-0.2-45.3-0.2-46.4-1.1
		c-0.6-0.5-1.5-1.4-2-2c-0.9-1.1-0.9-1.4-0.9-36.8c0-35.4,0-35.6,0.9-36.8c0.5-0.6,1.4-1.5,2-2c1.1-0.8,1.8-0.9,12.3-1l11.2-0.1
		v-43.9c0-47.6,0-47,2.3-51.6c1.4-2.8,5.6-7,8.4-8.4c4.9-2.4-3.1-2.3,121.9-2.3c124.5,0,117.5-0.1,122.2,2.3c2.9,1.4,7,5.6,8.4,8.4
		c2.3,4.6,2.3,4,2.3,51.6v43.9l11.2,0.1c10.5,0.1,11.2,0.2,12.3,1c0.6,0.5,1.5,1.4,2,2c0.9,1.1,0.9,1.4,0.9,36.8
		c0,35.4,0,35.6-0.9,36.8c-0.5,0.6-1.4,1.5-2,2c-1.1,0.9-1.5,0.9-46.6,1.1c-25,0.1-44,0.3-42.2,0.5c17.6,1.6,34.3,16.2,38.8,33.7
		c3.5,13.7,0.8,28.8-7.1,39.4c-8.1,10.7-18.8,17.1-31.6,18.8c-11.2,1.5-22.9-1-31.2-6.6c-5-3.3-8.4-7.2-22.6-25.6
		c-7.4-9.6-13.6-17.5-13.7-17.5s-6.3,7.8-13.7,17.5c-7.4,9.6-14.9,18.8-16.5,20.5C880.9-652.3,867.7-648.1,852.8-649.8z
		 M866.2-677.1c1.3-0.5,3.3-1.6,4.4-2.5c1.2-1,7.1-8.2,15-18.3c7.2-9.2,13.2-17,13.4-17.3c0.3-0.5-2.5-0.6-22.2-0.5
		c-22.3,0.1-22.5,0.1-24.9,1.1c-5.1,2.1-9.7,6.6-11.6,11.6c-1.1,2.9-1.5,8.2-0.9,11.4c1.5,7,7.2,13.1,14.2,15.1
		C856.8-675.7,863-676,866.2-677.1z M988.9-677.1c5.1-2,9.7-6.5,11.6-11.6c1.3-3.3,1.5-8.6,0.7-12.1c-1.8-7.1-8-13.1-14.9-14.5
		c-1.4-0.3-9.4-0.4-23.4-0.4l-21.2,0.1l13,16.8c13.1,16.8,15.2,19.3,18.1,20.8C977.2-675.7,984.3-675.4,988.9-677.1z M953.6-817.5
		c0-58-0.1-75.6-0.5-76.9c-0.8-2.7-3.8-5.4-7.3-6.5c-2.8-0.8-3.5-0.9-26.5-0.7l-23.6,0.1l-2.4,1.2c-2.7,1.3-5,3.7-5.6,6.1
		c-0.4,1.2-0.5,20.9-0.5,76.8v75.2h33.2h33.2V-817.5z"/>
</g>
</svg>
