<?xml version="1.0" standalone="no"?>
<!DOCTYPE svg PUBLIC "-//W3C//DTD SVG 20010904//EN"
 "http://www.w3.org/TR/2001/REC-SVG-20010904/DTD/svg10.dtd">
<svg version="1.0" xmlns="http://www.w3.org/2000/svg"
 width="780.000000pt" height="652.000000pt" viewBox="0 0 780.000000 652.000000"
 preserveAspectRatio="xMidYMid meet">
<metadata>
Created by potrace 1.11, written by Peter Selinger 2001-2013
</metadata>
<g transform="translate(0.000000,652.000000) scale(0.100000,-0.100000)"
fill="#000000" stroke="none">
<path d="M1740 6449 c-138 -27 -287 -134 -345 -248 -9 -19 -38 -84 -65 -145
-26 -61 -296 -687 -600 -1391 -304 -704 -567 -1325 -585 -1380 -86 -258 -86
-258 -83 -1715 l3 -1265 22 -47 c30 -66 92 -129 160 -164 l58 -29 3555 -3
c2598 -2 3571 0 3615 8 105 20 193 89 239 189 l21 46 0 1315 c0 1458 3 1390
-66 1623 -31 104 -48 143 -459 1097 -139 322 -350 812 -470 1090 -322 748
-336 778 -367 823 -58 85 -205 175 -318 196 -73 14 -4246 13 -4315 0z m4462
-2189 c290 -679 534 -1254 542 -1277 l15 -43 -792 0 -792 -1 -237 -479 -237
-480 -801 0 -801 0 -237 480 -237 479 -792 1 -792 0 19 53 c10 28 252 600 539
1271 287 670 521 1222 521 1227 0 5 735 8 1777 7 l1777 -3 528 -1235z"/>
</g>
</svg>
