<?xml version="1.0" standalone="no"?>
<!DOCTYPE svg PUBLIC "-//W3C//DTD SVG 20010904//EN"
 "http://www.w3.org/TR/2001/REC-SVG-20010904/DTD/svg10.dtd">
<svg version="1.0" xmlns="http://www.w3.org/2000/svg"
 width="716.000000pt" height="716.000000pt" viewBox="0 0 716.000000 716.000000"
 preserveAspectRatio="xMidYMid meet">
<metadata>
Created by potrace 1.11, written by Peter Selinger 2001-2013
</metadata>
<g transform="translate(0.000000,716.000000) scale(0.100000,-0.100000)"
fill="#000000" stroke="none">
<path d="M1385 7093 c-22 -2 -84 -10 -137 -18 -499 -76 -959 -474 -1117 -968
-71 -222 -66 -32 -66 -2527 0 -2511 -6 -2311 71 -2540 139 -414 490 -765 904
-904 229 -77 30 -71 2540 -71 2116 0 2250 1 2340 18 289 55 538 187 754 402
218 217 352 470 403 765 17 100 18 222 18 2335 0 2080 -1 2237 -17 2327 -53
295 -184 542 -404 762 -252 251 -526 382 -873 416 -94 9 -4310 12 -4416 3z
m4513 -666 c96 -33 154 -63 232 -120 116 -86 218 -215 273 -344 61 -144 58 -8
55 -2413 -3 -2069 -4 -2198 -21 -2255 -81 -273 -285 -481 -557 -567 l-75 -23
-2225 0 -2225 0 -75 23 c-166 53 -298 143 -406 277 -68 85 -111 165 -146 275
l-23 75 0 2225 0 2225 23 75 c35 110 78 190 146 275 125 155 303 264 484 295
26 4 1039 7 2252 6 l2205 -1 83 -28z"/>
<path d="M3355 5806 c-37 -17 -70 -52 -84 -89 -8 -19 -11 -313 -11 -922 l0
-895 -909 -2 c-901 -3 -910 -3 -937 -24 -68 -51 -69 -53 -69 -294 0 -241 1
-243 69 -294 27 -21 36 -21 937 -24 l909 -2 2 -909 c3 -901 3 -910 24 -937 51
-68 53 -69 294 -69 241 0 243 1 294 69 21 27 21 36 24 937 l2 909 909 2 c901
3 910 3 937 24 68 51 69 53 69 294 0 241 -1 243 -69 294 -27 21 -36 21 -937
24 l-909 2 -2 909 c-3 901 -3 910 -24 937 -50 67 -55 69 -282 71 -158 2 -214
0 -237 -11z"/>
</g>
</svg>
