<?xml version="1.0" encoding="utf-8"?>
<!DOCTYPE svg PUBLIC "-//W3C//DTD SVG 1.1//EN" "http://www.w3.org/Graphics/SVG/1.1/DTD/svg11.dtd">
<svg version="1.1" xmlns="http://www.w3.org/2000/svg" xmlns:xlink="http://www.w3.org/1999/xlink" x="0px" y="0px"
	 width="32px" height="25.6px" viewBox="52 702 32 25.6" enable-background="new 52 702 32 25.6" xml:space="preserve">
<g transform="translate(0.000000,588.000000) scale(0.100000,-0.100000)">
	<path d="M541.4-1142.1c-9-1.9-16.9-9.4-19.8-18.5c-0.8-2.6-0.8-7-0.8-108.2c0-101,0-105.7,0.8-108.2c2.6-8.4,9.8-15.7,18.2-18.2
		c2.6-0.8,8.2-0.8,140-0.8s137.5,0,140,0.8c5.9,1.8,11,5.6,14.6,10.8c2.4,3.6,3.7,6.9,4.3,11.5c0.3,2.3,0.4,38.8,0.3,106.5
		c-0.1,95.7-0.2,103.3-0.9,105.5c-3,9.5-10.8,16.9-20,18.8C813.6-1141,545.8-1141.1,541.4-1142.1z M815.3-1163.3
		c0.7-0.4,1.5-1.3,1.9-1.9c0.7-1.2,0.7-9.6,0.7-103.5c0-93.9,0-102.4-0.7-103.5c-0.4-0.7-1.3-1.5-1.9-1.9c-1.2-0.7-12-0.7-135.4-0.7
		s-134.2,0-135.4,0.7c-0.7,0.4-1.5,1.3-1.9,1.9c-0.7,1.2-0.7,9.6-0.7,103.5c0,93.6,0,102.4,0.7,103.5c0.4,0.7,1.2,1.5,1.9,1.9
		c1.1,0.7,12.1,0.7,135.4,0.8C803.3-1162.6,814.1-1162.6,815.3-1163.3z"/>
	<path d="M591.2-1182.1c-6.9-1.4-11.1-3.7-16.3-8.9c-3.3-3.2-4.3-4.7-5.8-7.7c-2.7-5.5-3.3-8.5-3.3-14.8c0.1-9.2,2.8-15.7,9.2-22.1
		c6.4-6.4,12.9-9.1,22.1-9.1c6.3,0,9.4,0.7,14.8,3.3c3,1.4,4.5,2.6,7.5,5.6c6.6,6.6,9.3,13,9.4,22.3c0,6.3-0.7,9.4-3.3,14.8
		c-2.7,5.4-8.3,11-13.6,13.6c-2.1,1-4.9,2.2-6.4,2.5C601.5-1181.6,594.9-1181.4,591.2-1182.1z"/>
	<path d="M686.9-1250.5l-42.2-42.2l-13.2,13.2l-13.2,13.2l-26.4-26.4l-26.4-26.4v-15.7v-15.8h116.2H798v36.9v36.9l-34.1,34.1
		c-18.8,18.8-34.3,34.2-34.5,34.3C729.2-1208.4,710.1-1227.3,686.9-1250.5z"/>
</g>
</svg>
