<?xml version="1.0" encoding="utf-8"?>
<!DOCTYPE svg PUBLIC "-//W3C//DTD SVG 1.1//EN" "http://www.w3.org/Graphics/SVG/1.1/DTD/svg11.dtd">
<svg version="1.1" xmlns="http://www.w3.org/2000/svg" xmlns:xlink="http://www.w3.org/1999/xlink" x="0px" y="0px"
	 width="32px" height="30.2px" viewBox="4 705.9 32 30.2" enable-background="new 4 705.9 32 30.2" xml:space="preserve">
<g transform="translate(0.000000,601.000000) scale(0.100000,-0.100000)">
	<path d="M146.1-1050.1c-4.2-0.6-11.9-3.1-15.1-4.9c-5.4-3.1-9.7-7.3-12.4-11.9c-2.7-4.5-3.7-9.3-3.6-16.3c0.1-10.5,2.5-17.6,9.9-29
		c2.5-3.8,5.3-8.4,6.2-10.3c1.5-3.1,1.7-3.8,1.7-8.3c0-4.5-0.2-5.2-1.7-8.4c-2.3-4.7-7.3-9.9-11.4-11.9c-1.8-0.9-5-2-7-2.5
		c-5.4-1.2-19.8-1-32.9,0.4c-9.6,1-36.2,4.8-37.8,5.5c-0.7,0.2-0.8-11.9-0.8-97.8c0-93,0.1-98.1,0.9-98.3c1.3-0.4,28.6-4.3,36.4-5.2
		c3.8-0.4,11.8-0.9,17.9-1.1c12.6-0.4,17.2,0.3,23,3c4.5,2.1,9,6.9,11.6,12.1c1.8,3.6,1.9,4.2,1.9,8.2c0,4-0.2,4.7-1.9,8.3
		c-1,2.2-3.8,6.7-6,10.1c-6.9,10.3-9.5,17.7-10,27.6c-0.5,10.7,1.9,17.4,8.5,24c4.5,4.5,10.6,8,17.4,9.8c3.7,1,5.6,1.2,12.5,1.2
		s8.8-0.2,12.2-1.2c10.1-2.9,18-9.1,21.4-17c1.9-4.4,2.6-8,2.6-13.8c-0.1-6.4-1-10.4-3.9-16.1c-2.4-4.7-3-5.7-7.6-11.4
		c-13.1-16.2-12.6-34,1.2-40.4c10.1-4.7,21.1-4.7,58.3,0c8.9,1.1,18.1,2,20.3,2h4.1l-0.4,5.8c-0.2,3.1-0.9,8.7-1.6,12.4
		c-3,15.6-3.8,21.3-3.8,27c0.1,15.7,6,23,19.4,23.7c9.8,0.5,15-1.8,29.3-13c3-2.3,10.7-6,14.7-7c3.9-1,11.9-1.1,15.9-0.3
		c8.4,1.7,15.9,7.9,20,16.4c3.3,6.8,4.1,10.5,4.1,18.8c0.1,11.4-2.7,19.9-8.7,27.6c-8.4,10.7-22.7,13.9-38.6,8.6
		c-5.8-1.9-8.6-3.4-15.8-8.2c-3.3-2.2-7.6-4.7-9.4-5.7c-3.2-1.5-3.9-1.7-8.3-1.7c-4.5,0-5.2,0.2-8.4,1.7c-4.7,2.3-9.9,7.3-11.9,11.4
		c-2.6,5.1-3.3,9.5-3.3,19.8c0.1,12.7,1.5,26.4,5,48.3c0.9,5.9,1.7,10.7,1.6,10.7c-0.4,0.3-14.6-1.3-41.2-4.5
		c-6.6-0.8-12.1-1.1-20.7-1.1c-11-0.1-12,0.1-15.6,1.2c-11.5,3.6-16.4,10.3-15.7,21.4c0.5,7.5,3.4,13.8,10.8,23
		c4.4,5.5,7.9,12.3,9.2,17.8c0.7,2.9,0.9,5,0.6,9.7c-0.4,9.1-2.5,14-8.2,19.8c-4.2,4.2-9.9,7.4-16,9
		C160.1-1049.8,151.2-1049.4,146.1-1050.1z"/>
</g>
</svg>
