<?xml version="1.0" encoding="utf-8"?>
<!DOCTYPE svg PUBLIC "-//W3C//DTD SVG 1.1//EN" "http://www.w3.org/Graphics/SVG/1.1/DTD/svg11.dtd">
<svg version="1.1" xmlns="http://www.w3.org/2000/svg" xmlns:xlink="http://www.w3.org/1999/xlink" x="0px" y="0px"
	 width="32px" height="30px" viewBox="-8 691.9 32 30" enable-background="new -8 691.9 32 30" xml:space="preserve">
<g transform="translate(0.000000,572.000000) scale(0.100000,-0.100000)">
	<path d="M-23-1200.4c-5.2-1-7.2-1.7-11.9-4.1c-10.2-5.3-18.5-15.4-21.5-26.4c-0.7-2.5-1-5.4-1-11.1c0-8.6,0.6-11.7,3.8-18.4
		c5-10.6,15.6-19.5,27.1-22.6c5.8-1.6,16.2-1.6,22.1,0c14.3,3.9,25.9,15.7,29.9,30.1c1.4,5.1,1.4,17.1,0.1,22
		c-3.9,14.1-16,26.2-29.9,29.8C-9.8-1199.8-18.1-1199.5-23-1200.4z"/>
	<path d="M169.3-1200.3c-15.4-2.1-29.3-13.8-34.1-28.9c-1.7-5.3-2.3-14.8-1.3-20.6c1.5-8.7,5.5-16.1,12.2-22.6
		c7.2-7,15-10.7,25.2-11.8c12.8-1.4,24.4,2.7,33.7,11.8c9.3,9,13.2,19.2,12.6,32.7c-0.4,7.6-1.9,12.8-5.4,18.8
		c-5.7,9.7-14.6,16.6-25.3,19.6C182.3-1200,174.5-1199.5,169.3-1200.3z"/>
	<path d="M72.1-1242.7c-14.4-1.8-26.7-7.9-37.1-18.4c-9.6-9.7-15.3-20.5-17.6-33.6c-0.6-3.9-0.8-7.1-0.6-13.5
		c0.3-9.3,1.4-15.1,4.6-22.6c5.1-12.2,17.4-25.3,29.5-31.6c17.5-9,39.3-9.2,56.8-0.7c12.5,6.2,23.5,17,29.7,29.7
		c4.7,9.6,6.4,18.4,5.9,30.9c-0.4,12.4-3.4,21.7-10.1,31.8c-9.5,14.2-24,24.1-40.3,27.4C87.8-1242.4,77.1-1242,72.1-1242.7z"/>
	<path d="M-61.9-1285.1c-9.1-2.8-14.5-15.2-16.4-38c-0.7-8.2-0.7-23.7,0.1-26.7c2-8.5,8.9-15,19.7-18.1c3.4-1,5.5-1.2,18.7-1.4
		l14.8-0.3l4.4,4.2c10,9.9,20.3,14.9,34,16.6c2.9,0.4,5.4,0.7,5.5,0.8c0.1,0.1-0.8,1.8-2.1,3.8c-8,12.9-11.8,28.7-10.6,43.7
		c0.2,2.8,0.3,5.1,0.3,5.2c-0.1,0.1-2.4-0.4-5.1-1.2c-17.1-4.5-31.5-2.2-52,8.2C-58.1-1284.6-59.3-1284.3-61.9-1285.1z"/>
	<path d="M212.2-1287.8c-20.4-10.7-35.7-13.2-53.2-8.8c-2.9,0.7-5.3,1.3-5.3,1.2c-0.1-0.1,0.1-2.5,0.4-5.4
		c1.3-14.9-2.9-31.4-11-44.2c-1-1.5-1.8-2.9-1.8-3c0-0.1,1.8-0.4,3.9-0.5c13.6-1.3,24.9-6.5,34.9-16.1l5.2-5l14.5,0.2
		c12.7,0.2,15,0.4,18.6,1.4c5.8,1.6,10.2,4,13.9,7.8c3.4,3.4,5,6.2,6.1,10.8c0.9,3.8,0.4,24.9-0.8,33.5c-2.7,19.3-8.3,29.6-17,31
		C218.6-1284.5,217.8-1284.8,212.2-1287.8z"/>
	<path d="M13.7-1359.4c-22.2-2.9-37.5-19.3-44.8-48c-3.8-14.9-5.6-30.6-5.1-46.2c0.2-8.1,0.5-10.8,1.4-14
		c3.8-13.1,12.7-22.3,25.5-26.5c8.1-2.7,8.1-2.7,88.9-2.7c76.1,0,80.7,0.1,87.5,2c14.8,4,25.4,15.2,28.4,30.1c1,4.8,1.1,6.5,0.8,18
		c-0.3,13.3-1.1,20.4-3.3,31.6c-3.7,18.1-10.2,32.4-18.8,41.6c-7.9,8.5-18.2,13.3-30.7,14.4c-5.1,0.4-5.5,0.3-16.8-7.1
		c-12.2-8-17.1-10.3-27.3-13.1c-7.2-2-11.5-2.5-19.4-2.5c-8.3,0-15.1,1.1-22.9,3.6c-8,2.6-13.4,5.3-22.6,11.2
		C21.4-1358.3,21.6-1358.4,13.7-1359.4z"/>
</g>
</svg>
