<?xml version="1.0" encoding="utf-8"?>
<!DOCTYPE svg PUBLIC "-//W3C//DTD SVG 1.1//EN" "http://www.w3.org/Graphics/SVG/1.1/DTD/svg11.dtd">
<svg version="1.1" id="Layer_1" xmlns="http://www.w3.org/2000/svg" xmlns:xlink="http://www.w3.org/1999/xlink" x="0px" y="0px"
	 width="32px" height="32px" viewBox="-57 660.9 32 32" enable-background="new -57 660.9 32 32" xml:space="preserve">
<path d="M-26,687.7l-10.8-10.8l10.8-10.8c1.2-1.2,1.2-3,0-4.2c-1.2-1.2-3-1.2-4.2,0L-41,672.7l-10.8-10.8c-1.2-1.2-3-1.2-4.2,0
	c-1.2,1.2-1.2,3,0,4.2l10.8,10.8L-56,687.7c-1.2,1.2-1.2,3,0,4.2c1.2,1.2,3,1.2,4.2,0l10.8-10.8l10.8,10.8c1.2,1.2,3,1.2,4.2,0
	C-24.8,690.8-24.8,688.9-26,687.7z"/>
</svg>
