<?xml version="1.0" encoding="utf-8"?>
<!-- Generator: Adobe Illustrator 18.0.0, SVG Export Plug-In . SVG Version: 6.00 Build 0)  -->
<!DOCTYPE svg PUBLIC "-//W3C//DTD SVG 1.1//EN" "http://www.w3.org/Graphics/SVG/1.1/DTD/svg11.dtd">
<svg version="1.1" xmlns="http://www.w3.org/2000/svg" xmlns:xlink="http://www.w3.org/1999/xlink" x="0px" y="0px"
	 width="32px" height="32px" viewBox="2476 2832 32 32" enable-background="new 2476 2832 32 32" xml:space="preserve">
<g transform="translate(0.000000,5684.000000) scale(0.100000,-0.100000)">
	<path fill="#1082CB" d="M24801,28518.7c-2.3-0.2-5.2-0.9-7.5-1.7c-2.7-0.9-5.4-2.3-7.6-3.8c-1.9-1.4-3.8-3.1-4.9-4.6
		c-2.6-3.4-4.3-8.6-4.7-13.9c0-0.6,0-248.9,0-249.6c0.6-4.7,3.1-8.8,7.1-11.4c2-1.3,4.1-2.1,6.6-2.5c0.6-0.1,99.4-0.1,99.4-0.1
		c0,0-1.9,3.4-3.5,7c-1.6,3.6-3,7.5-3,7.5l-72.7,0l0,222.4h184.8v-80.2l0.4,0c0.8-0.1,3.5-0.5,4.8-0.7c2.7-0.4,5.8-1.1,8-1.6
		c0.6-0.1,1.1-0.3,1.1-0.3c0.1,0,0.1,97.3,0.1,97.3l-18.1,0l0,20.4h18.1v15.8C25009.4,28518.8,24801.2,28518.7,24801,28518.7z
		 M24975.5,28482.5c0,0-168.4,0-172.6,0c-4.2,0-9.6,2-9.6,10.7s6,9.7,9.2,9.7s172.9,0,172.9,0V28482.5z"/>
	<path fill="#1082CB" d="M24830.5,28394.2h142.7v15.8h-142.7V28394.2z"/>
	<path fill="#1082CB" d="M24830.5,28358h77.6c0,0,4.4,4.3,9.6,8.8c5.3,4.5,11,7,11,7h-98.2V28358z"/>
	<path fill="#1082CB" d="M24978.6,28364.2c-5.5-0.2-11.1-1.1-16.4-2.4c-21.6-5.5-40.1-19.6-51.1-39.2c-9.4-16.8-12.6-36.6-8.9-55.7
		c4.2-21.6,17.2-40.7,35.8-52.7c11.2-7.3,24-11.6,37.3-12.7c2.5-0.2,3.2-0.2,6.9-0.2s4.3,0,6.9,0.2c12.4,1,24.4,4.9,35.1,11.3
		c15,9,26.8,22.7,33.4,38.8c3.2,7.7,5.2,16,5.8,24.2c0.2,2.3,0.2,2.9,0.2,5.9c0,3.9-0.1,6.1-0.4,9.4c-1.7,16.3-8.2,31.7-18.9,44.3
		c-1.5,1.7-2.6,2.9-4.6,4.9c-2.6,2.6-4.1,4-6.6,6c-13,10.5-28.7,16.6-45.4,17.7C24985.4,28364.2,24981.1,28364.3,24978.6,28364.2z
		 M24985.6,28349.7c5-0.2,10.6-0.9,13.2-1.7c7.5-2.2,14.6-5.5,21.3-9.8c1.8-1.2,4.2-3,6.9-5.5c4.1-3.7,8.7-8.9,10.8-12.1
		c4.3-6.6,7.5-13.7,9.7-21.1c0.7-2.4,1.3-6.8,1.7-11.8c0.1-1.4,0.1-6.6,0.1-8.3c-0.2-4.8-0.9-10.4-1.6-12.8
		c-1.8-6.2-4.5-12.6-7.8-18.2c-2.1-3.6-3.3-5.3-5.9-8.3c-4.1-4.8-9.8-10-13.6-12.5c-6.5-4.3-14.2-7.8-21.7-10
		c-2.2-0.6-6.8-1.3-11.5-1.6c-1.5-0.1-6.5-0.1-8.3-0.1c-3.5,0.2-6.8,0.5-10.1,1c-1.6,0.3-2.1,0.4-3.6,0.8c-7.5,2.3-15,5.8-21.3,10
		c-1.5,1-4,3.1-6.4,5.2c-3.8,3.5-8.5,8.7-10.5,11.7c-4.2,6.5-7.6,13.6-9.8,20.9c-0.5,1.5-0.6,1.9-0.8,3.4c-0.6,3.3-0.8,5.8-1.1,9.5
		c-0.1,1.6-0.1,6.8,0,8.5c0.3,4.8,1,9.8,1.6,12.1c1.4,4.7,3.4,9.8,5.7,14.3c1.8,3.5,4.1,7.3,5.6,9.2c3.8,4.9,8.4,9.6,13.2,13.4
		c1.4,1.1,2,1.5,3.2,2.3c6.4,4.1,13.3,7.3,20.6,9.5c1.3,0.4,1.7,0.5,2.7,0.7c3.6,0.6,7.3,1,10.8,1.2
		C24980.3,28349.7,24984.1,28349.7,24985.6,28349.7z"/>
	<path fill="#1082CB" d="M24973.2,28328c-0.1-0.1,0-17.8,0-18l0-0.1c0,0,17.9,0,18,0l0.1,0v18.1
		C24991.4,28328,24973.2,28328,24973.2,28328z"/>
	<path fill="#1082CB" d="M24973.2,28291.5c0-0.1,0-54.1,0-54.1l18.2,0v54.4h-18.1L24973.2,28291.5z"/>
	<path fill="#1082CB" d="M24830.5,28321.8h53.5c0,0,1.1,4,3,7.9c2,4,4.9,7.9,4.9,7.9c0,0-61.4,0-61.4,0V28321.8z"/>
</g>
</svg>
