<?xml version="1.0" encoding="utf-8"?>
<!-- Generator: Adobe Illustrator 18.0.0, SVG Export Plug-In . SVG Version: 6.00 Build 0)  -->
<!DOCTYPE svg PUBLIC "-//W3C//DTD SVG 1.1//EN" "http://www.w3.org/Graphics/SVG/1.1/DTD/svg11.dtd">
<svg version="1.1" xmlns="http://www.w3.org/2000/svg" xmlns:xlink="http://www.w3.org/1999/xlink" x="0px" y="0px"
	 width="32px" height="32px" viewBox="291 258 32 32" enable-background="new 291 258 32 32" xml:space="preserve">
<g>
	<path fill="#039BE4" d="M298.4,274.1c-0.3,0.1-0.4,0.4-0.5,0.8c-0.1,0.5-0.2,1.2-0.4,1.5c-0.1,0.2-0.4,0.5-0.8,1
		c-0.7,0.8-0.8,0.9-1.1,1.7c-0.3,0.8-0.5,1.2-0.8,1.5l-0.3,0.2l-0.2-0.1c-0.2-0.1-0.3-0.1-1.3-0.1c-1,0-1.1,0-1.3,0.1
		c-0.4,0.2-0.4,0.1-0.4,3c0,2.9,0,2.9,0.3,3.2c0.2,0.1,0.3,0.1,1.3,0.1c1.2,0,1.3,0,1.5-0.2c0.1-0.1,0.2-0.1,0.6-0.1
		c0.3,0,0.9,0.2,1.5,0.3c1.7,0.4,2.3,0.4,4.1,0.1c0.9-0.2,1.4-0.4,1.7-0.7c0.3-0.3,0.3-0.4,0.2-0.8l-0.1-0.3l0.3-0.4
		c0.3-0.4,0.3-0.8,0.2-1.2l-0.1-0.3l0.2-0.3c0.2-0.3,0.2-0.4,0.3-0.6c0-0.3,0-0.4-0.2-0.6l-0.2-0.3l0.2-0.4c0.1-0.2,0.2-0.5,0.2-0.6
		c0-0.4-0.4-1-0.8-1.3c-0.3-0.2-0.9-0.2-2.2-0.2c-0.9,0-1.1,0-1.2-0.1c-0.1,0-0.1-0.1-0.1-0.2c0-0.1,0.2-0.4,0.4-0.8
		c0.5-0.8,0.6-1.1,0.5-1.8c-0.1-0.8-0.4-1.6-0.9-1.9C298.9,274,298.7,274,298.4,274.1z M299,274.8c0.2,0.2,0.4,0.7,0.4,1.2
		c0,0.6,0,0.7-0.4,1.4c-0.5,0.8-0.6,1-0.6,1.3c0,0.3,0.1,0.5,0.4,0.6c0.2,0.1,0.3,0.2,0.9,0.1c1,0,2.4,0.1,2.6,0.2
		c0.2,0.1,0.5,0.5,0.5,0.7c0,0.1,0,0.3-0.2,0.6c-0.1,0.2-0.2,0.5-0.2,0.5c0,0.1,0.1,0.3,0.2,0.5c0.1,0.2,0.2,0.4,0.2,0.4
		c0,0-0.1,0.2-0.2,0.4c-0.3,0.4-0.3,0.5-0.2,0.9c0.1,0.2,0.1,0.4,0.1,0.4c0,0.1-0.1,0.3-0.3,0.4L302,285l0,0.5c0,0.4,0,0.5-0.1,0.6
		c-0.3,0.3-1,0.5-2.3,0.6c-1.1,0.2-1.5,0.1-3.2-0.3c-0.5-0.1-1-0.2-1.2-0.3c-0.2,0-0.4-0.1-0.5-0.1c-0.1,0-0.1-0.2-0.1-2.3v-2.2
		l0.3-0.2c0.6-0.5,0.8-0.9,1.2-1.9c0.3-0.8,0.4-0.9,1.1-1.7c0.5-0.5,0.7-0.7,0.8-1c0.2-0.4,0.4-1.1,0.4-1.6c0-0.3,0.1-0.6,0.3-0.6
		C298.8,274.7,299,274.7,299,274.8z M294.1,283.8c0,2,0,2.6-0.1,2.6c-0.7,0-2,0-2,0c-0.1,0-0.1-5,0-5c0,0,0.5,0,1.1,0h1V283.8z"/>
	<circle fill="none" stroke="#039BE4" stroke-width="0.4" stroke-miterlimit="10" cx="320.3" cy="264.2" r="0.6"/>
	<circle fill="none" stroke="#039BE4" stroke-width="0.4" stroke-miterlimit="10" cx="318" cy="264.2" r="0.6"/>
	<circle fill="none" stroke="#039BE4" stroke-width="0.4" stroke-miterlimit="10" cx="315.8" cy="264.2" r="0.6"/>
	<path fill="#039BE4" d="M300,260.7c-1,0-1.1,0.2-1.1,1.1c0,1,0,4.1,0,5c0,0.9,0.2,1,1,1c0.9,0,20.9,0,21.7,0s1.1-0.2,1.1-1.1
		s0-4.1,0-5s-0.2-1.1-1.1-1.1C320.7,260.7,300.9,260.7,300,260.7z M322.1,261.8c0,0.6,0,4.3,0,4.9c0,0.6,0,0.6-0.6,0.6s-21,0-21.6,0
		s-0.6,0-0.6-0.6c0-0.6,0-4.3,0-4.9c0-0.6,0-0.6,0.6-0.6s21,0,21.6,0S322.1,261.3,322.1,261.8z"/>
	<path fill="none" stroke="#039BE4" stroke-width="0.4" stroke-miterlimit="10" d="M301.1,266.2L301.1,266.2c-0.2,0-0.4-0.2-0.4-0.4
		v-3.1c0-0.2,0.2-0.4,0.4-0.4h0c0.2,0,0.4,0.2,0.4,0.4v3.1C301.5,266,301.3,266.2,301.1,266.2z"/>
	<path fill="none" stroke="#039BE4" stroke-width="0.4" stroke-miterlimit="10" d="M303,266.2L303,266.2c-0.2,0-0.4-0.2-0.4-0.4
		v-3.1c0-0.2,0.2-0.4,0.4-0.4h0c0.2,0,0.4,0.2,0.4,0.4v3.1C303.4,266,303.2,266.2,303,266.2z"/>
	<path fill="none" stroke="#039BE4" stroke-width="0.4" stroke-miterlimit="10" d="M305,266.2L305,266.2c-0.2,0-0.4-0.2-0.4-0.4
		v-3.1c0-0.2,0.2-0.4,0.4-0.4h0c0.2,0,0.4,0.2,0.4,0.4v3.1C305.4,266,305.2,266.2,305,266.2z"/>
	<circle fill="none" stroke="#039BE4" stroke-width="0.4" stroke-miterlimit="10" cx="320.3" cy="272.5" r="0.6"/>
	<circle fill="none" stroke="#039BE4" stroke-width="0.4" stroke-miterlimit="10" cx="318" cy="272.5" r="0.6"/>
	<circle fill="none" stroke="#039BE4" stroke-width="0.4" stroke-miterlimit="10" cx="315.8" cy="272.5" r="0.6"/>
	<path fill="none" stroke="#039BE4" stroke-width="0.4" stroke-miterlimit="10" d="M301.1,274.5L301.1,274.5c-0.2,0-0.4-0.2-0.4-0.4
		V271c0-0.2,0.2-0.4,0.4-0.4h0c0.2,0,0.4,0.2,0.4,0.4v3.1C301.5,274.4,301.3,274.5,301.1,274.5z"/>
	<path fill="none" stroke="#039BE4" stroke-width="0.4" stroke-miterlimit="10" d="M303,274.5L303,274.5c-0.2,0-0.4-0.2-0.4-0.4V271
		c0-0.2,0.2-0.4,0.4-0.4h0c0.2,0,0.4,0.2,0.4,0.4v3.1C303.4,274.4,303.2,274.5,303,274.5z"/>
	<path fill="none" stroke="#039BE4" stroke-width="0.4" stroke-miterlimit="10" d="M305,274.5L305,274.5c-0.2,0-0.4-0.2-0.4-0.4V271
		c0-0.2,0.2-0.4,0.4-0.4h0c0.2,0,0.4,0.2,0.4,0.4v3.1C305.4,274.4,305.2,274.5,305,274.5z"/>
	<path fill="#039BE4" d="M321.6,269c-0.9,0-20.7,0-21.6,0c-1,0-1.1,0.2-1.1,1.1c0,0.5,0,2.5,0,2.9c0.2-0.1,0.3,0,0.6,0.1
		c0-0.4,0-2.7,0-3c0-0.6,0-0.6,0.6-0.6s21,0,21.6,0s0.6,0,0.6,0.6c0,0.6,0,4.3,0,4.9c0,0.6,0,0.6-0.6,0.6c-0.5,0-15.7,0-20.5,0
		c0,0.1,0.1,0.2,0.1,0.4c0,0.1,0,0.1,0,0.2c4.9,0,19.5,0,20.5,0c0.8,0,1.1-0.2,1.1-1.1c0-0.8,0-4.1,0-5S322.4,269,321.6,269z"/>
	<circle fill="none" stroke="#039BE4" stroke-width="0.4" stroke-miterlimit="10" cx="320.3" cy="281" r="0.6"/>
	<circle fill="none" stroke="#039BE4" stroke-width="0.4" stroke-miterlimit="10" cx="318" cy="281" r="0.6"/>
	<circle fill="none" stroke="#039BE4" stroke-width="0.4" stroke-miterlimit="10" cx="315.8" cy="281" r="0.6"/>
	<path fill="none" stroke="#039BE4" stroke-width="0.4" stroke-miterlimit="10" d="M305,283L305,283c-0.2,0-0.4-0.2-0.4-0.4v-3.1
		c0-0.2,0.2-0.4,0.4-0.4h0c0.2,0,0.4,0.2,0.4,0.4v3.1C305.4,282.8,305.2,283,305,283z"/>
	<path fill="#039BE4" d="M321.6,277.5c-0.9,0-20.7,0-20.7,0l-0.2,0.6c0,0,20.3,0,20.9,0s0.6,0,0.6,0.6c0,0.6,0,4.3,0,4.9
		c0,0.6,0,0.6-0.6,0.6c-0.5,0-12.4,0-17.1,0c0,0.1-0.1,0.2-0.1,0.3c0,0.1-0.1,0.2-0.1,0.3c4.9,0,16.3,0,17.3,0
		c0.8,0,1.1-0.2,1.1-1.1s0-4.1,0-5S322.4,277.5,321.6,277.5z"/>
</g>
</svg>
