<?xml version="1.0" encoding="utf-8"?>
<!DOCTYPE svg PUBLIC "-//W3C//DTD SVG 1.1//EN" "http://www.w3.org/Graphics/SVG/1.1/DTD/svg11.dtd">
<svg version="1.1" xmlns="http://www.w3.org/2000/svg" xmlns:xlink="http://www.w3.org/1999/xlink" x="0px" y="0px"
	 width="30px" height="30px" viewBox="285 305 30 30" enable-background="new 285 305 30 30" xml:space="preserve">
<g transform="translate(0.000000,620.000000) scale(0.100000,-0.100000)">
	<path fill="#FFD740" d="M2985.8,3145.9c-22.8-2.5-44.1-9.7-62.7-21.3c-50.6-31.5-76.8-89.7-67-148.6c6.9-41.6,32.2-78.6,68.5-100.6
		c17-10.2,35.2-16.7,55.9-19.8c8.5-1.2,30.7-1.2,39.1,0c40.1,6,73.8,25.8,97.5,57.5c14.8,19.7,24,42.2,27.8,67.9
		c1.2,8.4,1.2,30.7,0,39.1c-1.2,8.3-3.4,17.8-5.5,24.5c-17.3,53.6-62.2,91.9-118,100.5C3013.8,3146.2,2993.1,3146.7,2985.8,3145.9z
		 M3015.4,2978.7h-30.5l-5,87.6h40.4L3015.4,2978.7z M3009.2,2962.4c7.6-2.9,11.4-11.3,9.5-20.7c-1.2-5.7-3.9-9.1-9.2-11.6
		c-2.6-1.2-4-1.5-8-1.7c-10.1-0.5-16.6,2.8-19.9,10.1c-1.5,3.3-1.6,11-0.1,14.9c1.8,4.9,5.6,8.2,11.1,9.8
		C2996.8,2964.3,3005.4,2963.9,3009.2,2962.4z"/>
</g>
</svg>
