<?xml version="1.0" standalone="no"?>
<!DOCTYPE svg PUBLIC "-//W3C//DTD SVG 20010904//EN"
 "http://www.w3.org/TR/2001/REC-SVG-20010904/DTD/svg10.dtd">
<svg version="1.0" xmlns="http://www.w3.org/2000/svg"
 width="912.000000pt" height="1152.000000pt" viewBox="0 0 912.000000 1152.000000"
 preserveAspectRatio="xMidYMid meet">
<metadata>
Created by potrace 1.11, written by Peter Selinger 2001-2013
</metadata>
<g transform="translate(0.000000,1152.000000) scale(0.100000,-0.100000)"
fill="#000000" stroke="none">
<path d="M1269 11024 c-373 -67 -677 -359 -766 -734 -17 -71 -18 -298 -18
-4535 0 -4226 1 -4464 18 -4529 92 -359 344 -616 706 -719 l76 -22 1483 -3
1482 -2 0 290 0 290 -1448 0 -1448 0 -69 34 c-87 42 -154 109 -194 196 l-31
65 0 4405 0 4405 31 65 c40 87 107 154 194 196 l69 34 2442 0 c1941 0 2444 -3
2452 -12 6 -8 12 -161 15 -403 4 -341 7 -401 25 -480 86 -391 365 -700 742
-823 142 -46 210 -52 603 -52 l371 0 28 -27 28 -27 0 -1898 0 -1898 290 0 290
0 0 2018 0 2017 -1083 1083 -1082 1082 -2565 -1 c-2132 -1 -2578 -3 -2641 -15z"/>
<path d="M4227 4892 l-868 -868 1252 -1248 1252 -1248 -519 -519 -519 -519
1908 0 1907 0 0 1902 c0 1046 -2 1899 -5 1897 -2 -2 -236 -236 -520 -519
l-515 -515 -1253 1253 -1252 1252 -868 -868z"/>
</g>
</svg>
