<?xml version="1.0" encoding="utf-8"?>
<!DOCTYPE svg PUBLIC "-//W3C//DTD SVG 1.1//EN" "http://www.w3.org/Graphics/SVG/1.1/DTD/svg11.dtd">
<svg version="1.1" xmlns="http://www.w3.org/2000/svg" xmlns:xlink="http://www.w3.org/1999/xlink" x="0px" y="0px"
	 width="32px" height="32px" viewBox="111 828.9 32 32" enable-background="new 111 828.9 32 32" xml:space="preserve">
<g transform="translate(0.000000,850.000000) scale(0.100000,-0.100000)">
	<path d="M1260.3,210c-34.5-2.6-63.9-14-90.2-35c-6.8-5.4-18.7-17.3-24.1-24.1c-19.3-24.2-30.5-51.2-34.3-82.5
		c-0.9-8-0.9-26.6,0-34.6c3.8-31.3,15-58.3,34.3-82.5c5.4-6.8,17.3-18.7,24.1-24.1c24.3-19.4,51.1-30.5,82.5-34.3
		c8-0.9,26.6-0.9,34.6,0c31.4,3.8,58.2,14.9,82.5,34.3c6.8,5.4,18.7,17.3,24.1,24.1c19.3,24.2,30.5,51.2,34.3,82.5
		c0.9,8,0.9,26.6,0,34.6c-3.8,31.3-15,58.3-34.3,82.5c-5.4,6.8-17.3,18.7-24.1,24.1c-24.2,19.3-51.4,30.6-82.1,34.2
		C1282.6,209.8,1264.7,210.3,1260.3,210z M1285.6,173.8c20.7-2.8,39.5-10.2,56-21.9c25.5-18.2,43.5-45.7,49.6-76
		c1.9-9.5,2.3-13.9,2.3-25s-0.4-15.5-2.3-25c-4.8-23.7-17.6-47.2-35-63.9c-9.8-9.4-19.7-16.3-32-22.4s-24.1-9.6-38.9-11.7
		c-6.9-0.9-23.8-0.9-30.7,0c-14.7,2-26.5,5.6-38.9,11.7c-15.6,7.7-28.4,17.5-39.2,30.1c-28.2,32.7-37.4,76.5-24.8,117.9
		c3.7,12.1,10.4,25.5,18.2,36.1c21.1,29,53.2,47.1,89.5,50.5C1264.6,174.9,1280.3,174.6,1285.6,173.8z"/>
	<path d="M1265.9,127.2c-6.4-1.5-12-7.4-13.2-13.8c-0.6-3-0.5-64.2,0-66.9c1.9-8.9,11-15.3,19.8-13.8c7.3,1.3,13.2,6.8,14.7,13.8
		c0.6,2.7,0.6,63.9,0,66.9c-0.9,4.8-5,10.2-9.2,12.2C1274.2,127.5,1269.6,128.1,1265.9,127.2z"/>
	<path d="M1265.9,9.3c-4.7-1.1-9.8-5.2-11.8-9.6c-3.3-6.9-1.9-14.7,3.5-20.1c7.1-7.1,17.8-7.1,24.8,0c7,7,7,17.8,0,24.8
		C1277.9,8.9,1271.7,10.7,1265.9,9.3z"/>
</g>
</svg>
