<?xml version="1.0" standalone="no"?>
<!DOCTYPE svg PUBLIC "-//W3C//DTD SVG 20010904//EN"
 "http://www.w3.org/TR/2001/REC-SVG-20010904/DTD/svg10.dtd">
<svg version="1.0" xmlns="http://www.w3.org/2000/svg"
 width="570.000000pt" height="570.000000pt" viewBox="0 0 570.000000 570.000000"
 preserveAspectRatio="xMidYMid meet">
<metadata>
Created by potrace 1.11, written by Peter Selinger 2001-2013
</metadata>
<g transform="translate(0.000000,570.000000) scale(0.100000,-0.100000)"
fill="#000000" stroke="none">
<path d="M3880 5459 c-121 -8 -364 -68 -481 -119 -295 -127 -559 -379 -706
-675 -51 -102 -76 -176 -116 -339 -29 -122 -31 -143 -31 -311 0 -162 2 -191
27 -294 15 -62 27 -115 25 -116 -2 -2 -166 163 -365 366 l-363 369 0 109 c0
197 -40 301 -144 373 -50 35 -662 415 -701 435 -11 6 -47 16 -81 23 -67 13
-151 2 -209 -28 -39 -19 -355 -331 -408 -401 -27 -37 -46 -77 -58 -125 -31
-121 -23 -142 230 -556 136 -224 233 -372 262 -402 65 -65 117 -80 297 -86
l142 -4 408 -414 c224 -228 408 -418 409 -422 1 -4 -334 -292 -745 -640 -877
-744 -847 -712 -902 -942 -11 -47 -20 -112 -20 -145 0 -80 41 -241 81 -315 69
-129 305 -356 422 -405 59 -25 208 -57 268 -57 66 -1 227 36 289 67 106 53
172 120 705 713 297 330 543 601 546 601 3 1 20 -20 37 -46 35 -55 1124 -1175
1192 -1226 25 -19 59 -41 75 -49 40 -20 167 -48 219 -48 59 0 178 33 233 65
63 35 595 570 649 650 29 45 45 85 63 161 l24 100 -22 92 c-23 104 -37 135
-92 207 -21 28 -234 250 -473 495 l-435 444 82 17 c254 51 423 121 597 245
227 163 429 427 509 668 74 226 106 441 90 618 -12 135 -78 402 -117 471 -43
77 -114 130 -199 151 -65 16 -74 16 -134 1 -35 -9 -73 -21 -84 -27 -11 -6
-147 -137 -302 -291 -156 -155 -284 -279 -285 -276 -2 3 -46 48 -98 102 l-95
97 261 263 c143 144 272 278 287 298 14 20 34 67 43 104 16 64 16 72 0 141
-37 156 -105 205 -376 271 -161 39 -287 51 -430 42z m371 -329 c46 -12 99 -28
118 -36 l35 -15 -368 -368 -367 -368 310 -314 310 -314 370 369 370 370 11
-30 c55 -142 83 -355 69 -519 -40 -467 -359 -865 -799 -999 -128 -38 -218 -49
-375 -43 -166 6 -287 33 -421 96 -48 23 -90 41 -94 41 -9 0 -310 -331 -310
-340 0 -3 48 -56 107 -118 l106 -114 81 81 c110 108 161 129 245 95 52 -21
1154 -1147 1182 -1208 23 -50 24 -85 4 -132 -18 -44 -535 -577 -581 -599 -45
-21 -122 -19 -160 4 -30 18 -1121 1128 -1151 1171 -25 36 -35 97 -22 143 8 30
31 62 85 117 41 42 74 81 74 86 0 5 -47 56 -104 113 l-103 103 -279 -309
c-154 -169 -490 -542 -748 -828 -258 -286 -480 -530 -495 -543 -103 -91 -273
-110 -393 -45 -66 36 -247 225 -277 288 -51 107 -36 267 32 356 18 24 417 369
887 768 469 400 853 731 851 736 -1 6 -255 268 -564 582 l-562 573 -180 0
-180 0 -207 337 -206 337 160 165 c88 92 165 167 172 169 6 1 162 -91 346
-206 l335 -208 5 -180 5 -181 569 -579 c313 -318 573 -580 577 -582 10 -4 329
266 329 278 0 5 -18 38 -40 73 -174 277 -219 663 -114 976 146 434 541 748
982 779 126 9 269 -2 373 -28z"/>
<path d="M965 1226 c-65 -28 -114 -120 -101 -189 15 -83 79 -139 163 -144 72
-5 127 24 160 82 84 147 -68 318 -222 251z"/>
</g>
</svg>
