<?xml version="1.0" encoding="utf-8"?>
<!DOCTYPE svg PUBLIC "-//W3C//DTD SVG 1.1//EN" "http://www.w3.org/Graphics/SVG/1.1/DTD/svg11.dtd">
<svg version="1.1" xmlns="http://www.w3.org/2000/svg" xmlns:xlink="http://www.w3.org/1999/xlink" x="0px" y="0px"
	 width="32.2px" height="28.2px" viewBox="0 0 32.2 28.2" enable-background="new 0 0 32.2 28.2" xml:space="preserve">
<g transform="translate(0.000000,480.000000) scale(0.100000,-0.100000)">
	<path d="M59.8,4798.2c-0.3-0.9-13.8-36.9-30.1-80.4l-29.5-78.8v-60.2v-60.2h160.5h160.5v60.4l-0.1,60.3l-30,80l-30.1,80l-30.2,0.2
		l-30.2,0.1v-20.1v-20.1h17.6H236l22.5-60l22.5-60l-40-0.2l-40-0.1l-0.7-2.6c-0.4-1.3-2.4-9.3-4.4-17.5c-2.1-8.3-4-16.2-4.4-17.5
		l-0.7-2.6h-30h-30.1l-0.7,2.6c-0.4,1.3-2.4,9.3-4.4,17.5c-2,8.3-4,16.2-4.4,17.5l-0.7,2.6l-40,0.1l-40,0.2l22.5,60l22.5,60H103
		h17.6v20.1v20.1H90.6H60.5L59.8,4798.2z"/>
	<path d="M141.9,4759.8v-40.3l-25-0.1l-25.1-0.2l35.1-35.1L162,4649l34.9,34.9c19.2,19.2,34.9,35.1,34.9,35.3s-11.2,0.4-24.9,0.4
		H182v40.3l-0.2,39.7H162h-20.2L141.9,4759.8z"/>
</g>
</svg>
