<?xml version="1.0" encoding="utf-8"?>
<!-- Generator: Adobe Illustrator 18.0.0, SVG Export Plug-In . SVG Version: 6.00 Build 0)  -->
<!DOCTYPE svg PUBLIC "-//W3C//DTD SVG 1.1//EN" "http://www.w3.org/Graphics/SVG/1.1/DTD/svg11.dtd">
<svg version="1.1" xmlns="http://www.w3.org/2000/svg" xmlns:xlink="http://www.w3.org/1999/xlink" x="0px" y="0px"
	 width="960px" height="960px" viewBox="-278 439.9 960 960" enable-background="new -278 439.9 960 960" xml:space="preserve">
<g transform="translate(0.000000,1000.000000) scale(0.100000,-0.100000)">
	<path d="M1700,5535.1c-323-28-553-64-818-130c-862-212-1629-653-2257-1295c-231-237-380-421-560-694c-421-636-668-1317-762-2100
		c-25-215-25-815,0-1030c116-971,478-1810,1101-2555c99-118,350-374,476-484c331-291,712-543,1095-726c478-229,978-371,1530-437
		c215-25,815-25,1030,0c1001,119,1880,509,2625,1163c300,263,586,592,815,939c423,638,668,1314,762,2104c25,210,25,813,0,1026
		c-116,970-478,1810-1101,2555c-99,118-350,374-476,484c-331,291-712,543-1095,726c-475,227-980,371-1520,435
		C2412,5532.1,1819,5545.1,1700,5535.1z M970,3096.1v-1545H409c-452,0-560-2-556-13c8-21,2159-2907,2167-2907s2159,2886,2167,2907
		c4,11-104,13-556,13h-561v1545c0,1365,2,1545,15,1545c25,0,318-107,469-171c245-105,590-294,773-425c273-196,646-560,874-854
		c317-407,645-1131,724-1595c51-298,59-417,59-795s-8-497-59-795c-72-427-366-1098-659-1508c-197-276-560-648-856-878
		c-407-317-1131-645-1595-724c-298-51-417-59-795-59s-497,8-795,59c-464,79-1188,407-1595,724c-263,204-587,528-791,791
		c-317,407-645,1131-724,1595c-51,298-59,417-59,795s8,497,59,795c72,425,367,1100,660,1509c196,275,560,648,855,877
		c214,167,582,374,899,506c121,51,403,152,424,153C969,4641.1,970,4561.1,970,3096.1z"/>
</g>
</svg>
